<ttFont>
    <TTGlyph name=".notdef" xMin="81" yMin="0" xMax="1189" yMax="1600">
      <contour>
        <pt x="369" y="1046" on="1"/>
        <pt x="369" y="1029" on="0"/>
        <pt x="345" y="1005" on="0"/>
        <pt x="328" y="1005" on="1"/>
        <pt x="311" y="1005" on="0"/>
        <pt x="286" y="1029" on="0"/>
        <pt x="286" y="1046" on="1"/>
        <pt x="286" y="1191" on="0"/>
        <pt x="388" y="1292" on="1"/>
        <pt x="491" y="1395" on="0"/>
        <pt x="635" y="1395" on="1"/>
        <pt x="781" y="1395" on="0"/>
        <pt x="881" y="1292" on="1"/>
        <pt x="984" y="1192" on="0"/>
        <pt x="984" y="1046" on="1"/>
        <pt x="984" y="902" on="0"/>
        <pt x="881" y="799" on="1"/>
        <pt x="881" y="800" on="1"/>
        <pt x="755" y="681" on="1"/>
        <pt x="676" y="602" on="0"/>
        <pt x="676" y="492" on="1"/>
        <pt x="676" y="475" on="0"/>
        <pt x="652" y="451" on="0"/>
        <pt x="635" y="451" on="1"/>
        <pt x="618" y="451" on="0"/>
        <pt x="594" y="475" on="0"/>
        <pt x="594" y="492" on="1"/>
        <pt x="594" y="637" on="0"/>
        <pt x="697" y="739" on="1"/>
        <pt x="697" y="738" on="1"/>
        <pt x="824" y="856" on="1"/>
        <pt x="902" y="935" on="0"/>
        <pt x="902" y="1046" on="1"/>
        <pt x="902" y="1157" on="0"/>
        <pt x="824" y="1235" on="1"/>
        <pt x="746" y="1313" on="0"/>
        <pt x="635" y="1313" on="1"/>
        <pt x="525" y="1313" on="0"/>
        <pt x="446" y="1235" on="1"/>
        <pt x="369" y="1158" on="0"/>
      </contour>
      <contour>
        <pt x="707" y="277" on="1"/>
        <pt x="707" y="248" on="0"/>
        <pt x="666" y="205" on="0"/>
        <pt x="635" y="205" on="1"/>
        <pt x="606" y="205" on="0"/>
        <pt x="563" y="248" on="0"/>
        <pt x="563" y="277" on="1"/>
        <pt x="563" y="308" on="0"/>
        <pt x="606" y="349" on="0"/>
        <pt x="635" y="349" on="1"/>
        <pt x="666" y="349" on="0"/>
        <pt x="707" y="308" on="0"/>
      </contour>
      <contour>
        <pt x="163" y="82" on="1"/>
        <pt x="1107" y="82" on="1"/>
        <pt x="1107" y="1518" on="1"/>
        <pt x="163" y="1518" on="1"/>
      </contour>
      <contour>
        <pt x="122" y="0" on="1"/>
        <pt x="105" y="0" on="0"/>
        <pt x="81" y="24" on="0"/>
        <pt x="81" y="41" on="1"/>
        <pt x="81" y="1559" on="1"/>
        <pt x="81" y="1576" on="0"/>
        <pt x="105" y="1600" on="0"/>
        <pt x="122" y="1600" on="1"/>
        <pt x="1148" y="1600" on="1"/>
        <pt x="1165" y="1600" on="0"/>
        <pt x="1189" y="1576" on="0"/>
        <pt x="1189" y="1559" on="1"/>
        <pt x="1189" y="41" on="1"/>
        <pt x="1189" y="24" on="0"/>
        <pt x="1165" y="0" on="0"/>
        <pt x="1148" y="0" on="1"/>
      </contour>
    </TTGlyph>
    <TTGlyph name="A" xMin="80" yMin="0" xMax="1352" yMax="1600">
      <contour>
        <pt x="408" y="574" on="1"/>
        <pt x="199" y="38" on="1"/>
        <pt x="193" y="24" on="0"/>
        <pt x="185" y="16" on="1"/>
        <pt x="168" y="0" on="0"/>
        <pt x="142" y="0" on="1"/>
        <pt x="116" y="0" on="0"/>
        <pt x="80" y="36" on="0"/>
        <pt x="80" y="62" on="1"/>
        <pt x="80" y="75" on="0"/>
        <pt x="86" y="89" on="1"/>
        <pt x="657" y="1556" on="1"/>
        <pt x="663" y="1572" on="0"/>
        <pt x="673" y="1583" on="1"/>
        <pt x="690" y="1600" on="0"/>
        <pt x="716" y="1600" on="1"/>
        <pt x="742" y="1600" on="0"/>
        <pt x="760" y="1582" on="1"/>
        <pt x="770" y="1572" on="0"/>
        <pt x="776" y="1556" on="1"/>
        <pt x="1346" y="89" on="1"/>
        <pt x="1352" y="75" on="0"/>
        <pt x="1352" y="62" on="1"/>
        <pt x="1352" y="36" on="0"/>
        <pt x="1316" y="0" on="0"/>
        <pt x="1291" y="0" on="1"/>
        <pt x="1265" y="0" on="0"/>
        <pt x="1248" y="15" on="1"/>
        <pt x="1239" y="24" on="0"/>
        <pt x="1233" y="38" on="1"/>
        <pt x="1025" y="574" on="1"/>
      </contour>
      <contour>
        <pt x="977" y="697" on="1"/>
        <pt x="716" y="1369" on="1"/>
        <pt x="456" y="697" on="1"/>
      </contour>
    </TTGlyph>
    <TTGlyph name="AE" xMin="79" yMin="0" xMax="1679" yMax="1600">
      <contour>
        <pt x="900" y="1300" on="1"/>
        <pt x="611" y="779" on="1"/>
        <pt x="900" y="779" on="1"/>
      </contour>
      <contour>
        <pt x="1618" y="1600" on="1"/>
        <pt x="1644" y="1600" on="0"/>
        <pt x="1679" y="1564" on="0"/>
        <pt x="1679" y="1538" on="1"/>
        <pt x="1679" y="1513" on="0"/>
        <pt x="1644" y="1477" on="0"/>
        <pt x="1618" y="1477" on="1"/>
        <pt x="1023" y="1477" on="1"/>
        <pt x="1023" y="779" on="1"/>
        <pt x="1454" y="779" on="1"/>
        <pt x="1479" y="779" on="0"/>
        <pt x="1515" y="744" on="0"/>
        <pt x="1515" y="718" on="1"/>
        <pt x="1515" y="692" on="0"/>
        <pt x="1479" y="656" on="0"/>
        <pt x="1454" y="656" on="1"/>
        <pt x="1023" y="656" on="1"/>
        <pt x="1023" y="123" on="1"/>
        <pt x="1618" y="123" on="1"/>
        <pt x="1644" y="123" on="0"/>
        <pt x="1679" y="87" on="0"/>
        <pt x="1679" y="62" on="1"/>
        <pt x="1679" y="36" on="0"/>
        <pt x="1644" y="0" on="0"/>
        <pt x="1618" y="0" on="1"/>
        <pt x="961" y="0" on="1"/>
        <pt x="935" y="0" on="0"/>
        <pt x="900" y="36" on="0"/>
        <pt x="900" y="62" on="1"/>
        <pt x="900" y="656" on="1"/>
        <pt x="542" y="656" on="1"/>
        <pt x="193" y="29" on="1"/>
        <pt x="174" y="0" on="0"/>
        <pt x="141" y="0" on="1"/>
        <pt x="115" y="0" on="0"/>
        <pt x="79" y="36" on="0"/>
        <pt x="79" y="62" on="1"/>
        <pt x="79" y="79" on="0"/>
        <pt x="86" y="90" on="1"/>
        <pt x="909" y="1572" on="1"/>
        <pt x="926" y="1600" on="0"/>
        <pt x="961" y="1600" on="1"/>
      </contour>
    </TTGlyph>
    <TTGlyph name="AEacute" xMin="79" yMin="0" xMax="1679" yMax="2079">
      <component glyphName="AE" x="0" y="0" flags="0x200"/>
      <component glyphName="acute" x="800" y="480" flags="0x0"/>
    </TTGlyph>
    <TTGlyph name="Aacute" xMin="93" yMin="0" xMax="1365" yMax="2079">
      <component glyphName="A" x="13" y="0" flags="0x200"/>
      <component glyphName="acute" x="520" y="480" flags="0x0"/>
    </TTGlyph>
    <TTGlyph name="Abreve" xMin="93" yMin="0" xMax="1365" yMax="2056">
      <component glyphName="A" x="13" y="0" flags="0x200"/>
      <component glyphName="breve" x="339" y="480" flags="0x0"/>
    </TTGlyph>
    <TTGlyph name="Acircumflex" xMin="93" yMin="0" xMax="1365" yMax="2056">
      <component glyphName="A" x="13" y="0" flags="0x200"/>
      <component glyphName="circumflex" x="333" y="480" flags="0x0"/>
    </TTGlyph>
    <TTGlyph name="Adieresis" xMin="93" yMin="0" xMax="1365" yMax="1953">
      <component glyphName="A" x="13" y="0" flags="0x200"/>
      <component glyphName="dieresis" x="254" y="480" flags="0x0"/>
    </TTGlyph>
    <TTGlyph name="Agrave" xMin="93" yMin="0" xMax="1365" yMax="2081">
      <component glyphName="A" x="13" y="0" flags="0x200"/>
      <component glyphName="grave" x="386" y="480" flags="0x0"/>
    </TTGlyph>
    <TTGlyph name="Alpha" xMin="93" yMin="0" xMax="1365" yMax="1600">
      <component glyphName="A" x="13" y="0" flags="0x200"/>
    </TTGlyph>
    <TTGlyph name="Alphatonos" xMin="80" yMin="0" xMax="1352" yMax="1600">
      <contour>
        <pt x="263" y="1241" on="1"/>
        <pt x="246" y="1225" on="0"/>
        <pt x="221" y="1225" on="1"/>
        <pt x="195" y="1225" on="0"/>
        <pt x="159" y="1262" on="0"/>
        <pt x="159" y="1288" on="1"/>
        <pt x="159" y="1313" on="0"/>
        <pt x="173" y="1329" on="1"/>
        <pt x="425" y="1581" on="1"/>
        <pt x="443" y="1599" on="0"/>
        <pt x="470" y="1599" on="1"/>
        <pt x="496" y="1599" on="0"/>
        <pt x="532" y="1563" on="0"/>
        <pt x="532" y="1537" on="1"/>
        <pt x="532" y="1525" on="0"/>
        <pt x="524" y="1502" on="0"/>
        <pt x="515" y="1493" on="1"/>
      </contour>
      <contour>
        <pt x="408" y="574" on="1"/>
        <pt x="199" y="38" on="1"/>
        <pt x="193" y="24" on="0"/>
        <pt x="185" y="16" on="1"/>
        <pt x="168" y="0" on="0"/>
        <pt x="142" y="0" on="1"/>
        <pt x="116" y="0" on="0"/>
        <pt x="80" y="36" on="0"/>
        <pt x="80" y="62" on="1"/>
        <pt x="80" y="75" on="0"/>
        <pt x="86" y="89" on="1"/>
        <pt x="657" y="1556" on="1"/>
        <pt x="663" y="1572" on="0"/>
        <pt x="673" y="1583" on="1"/>
        <pt x="690" y="1600" on="0"/>
        <pt x="716" y="1600" on="1"/>
        <pt x="742" y="1600" on="0"/>
        <pt x="760" y="1582" on="1"/>
        <pt x="770" y="1572" on="0"/>
        <pt x="776" y="1556" on="1"/>
        <pt x="1346" y="89" on="1"/>
        <pt x="1352" y="75" on="0"/>
        <pt x="1352" y="62" on="1"/>
        <pt x="1352" y="36" on="0"/>
        <pt x="1316" y="0" on="0"/>
        <pt x="1291" y="0" on="1"/>
        <pt x="1265" y="0" on="0"/>
        <pt x="1248" y="15" on="1"/>
        <pt x="1239" y="24" on="0"/>
        <pt x="1233" y="38" on="1"/>
        <pt x="1025" y="574" on="1"/>
      </contour>
      <contour>
        <pt x="977" y="697" on="1"/>
        <pt x="716" y="1369" on="1"/>
        <pt x="456" y="697" on="1"/>
      </contour>
    </TTGlyph>
    <TTGlyph name="Amacron" xMin="93" yMin="0" xMax="1365" yMax="1886">
      <component glyphName="A" x="13" y="0" flags="0x200"/>
      <component glyphName="uni02C9" x="333" y="480" flags="0x0"/>
    </TTGlyph>
    <TTGlyph name="Aogonek" xMin="93" yMin="-413" xMax="1530" yMax="1600">
      <component glyphName="A" x="13" y="0" flags="0x0"/>
      <component glyphName="ogonek" x="988" y="59" flags="0x0"/>
    </TTGlyph>
    <TTGlyph name="Aring" xMin="93" yMin="0" xMax="1365" yMax="2080">
      <component glyphName="A" x="13" y="0" flags="0x200"/>
      <component glyphName="ring" x="451" y="480" flags="0x0"/>
    </TTGlyph>
    <TTGlyph name="Aringacute" xMin="81" yMin="0" xMax="1353" yMax="2080">
      <contour>
        <pt x="978" y="697" on="1"/>
        <pt x="717" y="1369" on="1"/>
        <pt x="457" y="697" on="1"/>
      </contour>
      <contour>
        <pt x="761" y="1615" on="0"/>
        <pt x="825" y="1679" on="0"/>
        <pt x="825" y="1724" on="1"/>
        <pt x="825" y="1769" on="0"/>
        <pt x="761" y="1833" on="0"/>
        <pt x="716" y="1833" on="1"/>
        <pt x="671" y="1833" on="0"/>
        <pt x="607" y="1769" on="0"/>
        <pt x="607" y="1724" on="1"/>
        <pt x="607" y="1679" on="0"/>
        <pt x="671" y="1615" on="0"/>
        <pt x="716" y="1615" on="1"/>
      </contour>
      <contour>
        <pt x="673" y="2063" on="1"/>
        <pt x="691" y="2080" on="0"/>
        <pt x="717" y="2080" on="1"/>
        <pt x="743" y="2080" on="0"/>
        <pt x="779" y="2045" on="0"/>
        <pt x="779" y="2019" on="1"/>
        <pt x="779" y="1993" on="0"/>
        <pt x="762" y="1976" on="1"/>
        <pt x="693" y="1907" on="1"/>
        <pt x="783" y="1915" on="0"/>
        <pt x="847" y="1856" on="1"/>
        <pt x="902" y="1803" on="0"/>
        <pt x="902" y="1725" on="1"/>
        <pt x="902" y="1648" on="0"/>
        <pt x="847" y="1593" on="1"/>
        <pt x="825" y="1569" on="0"/>
        <pt x="780" y="1549" on="1"/>
        <pt x="1347" y="89" on="1"/>
        <pt x="1353" y="75" on="0"/>
        <pt x="1353" y="62" on="1"/>
        <pt x="1353" y="36" on="0"/>
        <pt x="1317" y="0" on="0"/>
        <pt x="1292" y="0" on="1"/>
        <pt x="1268" y="0" on="0"/>
        <pt x="1254" y="12" on="1"/>
        <pt x="1242" y="22" on="0"/>
        <pt x="1234" y="38" on="1"/>
        <pt x="1026" y="574" on="1"/>
        <pt x="409" y="574" on="1"/>
        <pt x="200" y="38" on="1"/>
        <pt x="196" y="28" on="0"/>
        <pt x="187" y="18" on="1"/>
        <pt x="169" y="0" on="0"/>
        <pt x="143" y="0" on="1"/>
        <pt x="117" y="0" on="0"/>
        <pt x="81" y="36" on="0"/>
        <pt x="81" y="62" on="1"/>
        <pt x="81" y="75" on="0"/>
        <pt x="87" y="89" on="1"/>
        <pt x="655" y="1547" on="1"/>
        <pt x="605" y="1570" on="0"/>
        <pt x="584" y="1593" on="1"/>
        <pt x="530" y="1647" on="0"/>
        <pt x="530" y="1725" on="1"/>
        <pt x="530" y="1765" on="0"/>
        <pt x="553" y="1810" on="1"/>
        <pt x="574" y="1851" on="0"/>
        <pt x="609" y="1880" on="1"/>
        <pt x="599" y="1884" on="0"/>
        <pt x="590" y="1893" on="1"/>
        <pt x="572" y="1912" on="0"/>
        <pt x="572" y="1937" on="1"/>
        <pt x="572" y="1959" on="0"/>
        <pt x="588" y="1978" on="1"/>
      </contour>
    </TTGlyph>
    <TTGlyph name="Atilde" xMin="93" yMin="0" xMax="1365" yMax="2004">
      <component glyphName="A" x="13" y="0" flags="0x200"/>
      <component glyphName="tilde" x="250" y="480" flags="0x0"/>
    </TTGlyph>
    <TTGlyph name="B" xMin="80" yMin="0" xMax="1024" yMax="1600">
      <contour>
        <pt x="203" y="1477" on="1"/>
        <pt x="203" y="944" on="1"/>
        <pt x="470" y="944" on="1"/>
        <pt x="581" y="944" on="0"/>
        <pt x="658" y="1022" on="1"/>
        <pt x="737" y="1101" on="0"/>
        <pt x="737" y="1210" on="1"/>
        <pt x="737" y="1319" on="0"/>
        <pt x="658" y="1398" on="1"/>
        <pt x="579" y="1477" on="0"/>
        <pt x="470" y="1477" on="1"/>
      </contour>
      <contour>
        <pt x="203" y="821" on="1"/>
        <pt x="203" y="123" on="1"/>
        <pt x="552" y="123" on="1"/>
        <pt x="697" y="123" on="0"/>
        <pt x="798" y="225" on="1"/>
        <pt x="901" y="327" on="0"/>
        <pt x="901" y="472" on="1"/>
        <pt x="901" y="616" on="0"/>
        <pt x="798" y="718" on="1"/>
        <pt x="698" y="821" on="0"/>
        <pt x="552" y="821" on="1"/>
      </contour>
      <contour>
        <pt x="470" y="1600" on="1"/>
        <pt x="632" y="1600" on="0"/>
        <pt x="746" y="1486" on="1"/>
        <pt x="860" y="1372" on="0"/>
        <pt x="860" y="1210" on="1"/>
        <pt x="860" y="1048" on="0"/>
        <pt x="726" y="914" on="1"/>
        <pt x="826" y="866" on="0"/>
        <pt x="887" y="806" on="1"/>
        <pt x="1024" y="667" on="0"/>
        <pt x="1024" y="472" on="1"/>
        <pt x="1024" y="276" on="0"/>
        <pt x="886" y="137" on="1"/>
        <pt x="747" y="0" on="0"/>
        <pt x="552" y="0" on="1"/>
        <pt x="142" y="0" on="1"/>
        <pt x="116" y="0" on="0"/>
        <pt x="80" y="36" on="0"/>
        <pt x="80" y="62" on="1"/>
        <pt x="80" y="1538" on="1"/>
        <pt x="80" y="1564" on="0"/>
        <pt x="116" y="1600" on="0"/>
        <pt x="142" y="1600" on="1"/>
      </contour>
    </TTGlyph>
    <TTGlyph name="Beta" xMin="95" yMin="0" xMax="1039" yMax="1600">
      <component glyphName="B" x="15" y="0" flags="0x200"/>
    </TTGlyph>
    <TTGlyph name="C" xMin="80" yMin="0" xMax="1405" yMax="1600">
      <contour>
        <pt x="1337" y="281" on="1"/>
        <pt x="1363" y="281" on="0"/>
        <pt x="1399" y="245" on="0"/>
        <pt x="1399" y="219" on="1"/>
        <pt x="1399" y="194" on="0"/>
        <pt x="1384" y="178" on="1"/>
        <pt x="1272" y="91" on="0"/>
        <pt x="1020" y="0" on="0"/>
        <pt x="880" y="0" on="1"/>
        <pt x="717" y="0" on="0"/>
        <pt x="431" y="122" on="0"/>
        <pt x="314" y="234" on="1"/>
        <pt x="202" y="351" on="0"/>
        <pt x="80" y="637" on="0"/>
        <pt x="80" y="800" on="1"/>
        <pt x="80" y="1131" on="0"/>
        <pt x="314" y="1365" on="1"/>
        <pt x="549" y="1600" on="0"/>
        <pt x="880" y="1600" on="1"/>
        <pt x="1165" y="1600" on="0"/>
        <pt x="1387" y="1418" on="1"/>
        <pt x="1405" y="1400" on="0"/>
        <pt x="1405" y="1374" on="1"/>
        <pt x="1405" y="1349" on="0"/>
        <pt x="1369" y="1313" on="0"/>
        <pt x="1344" y="1313" on="1"/>
        <pt x="1318" y="1313" on="0"/>
        <pt x="1293" y="1337" on="1"/>
        <pt x="1120" y="1477" on="0"/>
        <pt x="880" y="1477" on="1"/>
        <pt x="600" y="1477" on="0"/>
        <pt x="401" y="1278" on="1"/>
        <pt x="203" y="1080" on="0"/>
        <pt x="203" y="800" on="1"/>
        <pt x="203" y="519" on="0"/>
        <pt x="401" y="321" on="1"/>
        <pt x="599" y="123" on="0"/>
        <pt x="880" y="123" on="1"/>
        <pt x="1122" y="123" on="0"/>
        <pt x="1304" y="272" on="1"/>
        <pt x="1317" y="281" on="0"/>
      </contour>
    </TTGlyph>
    <TTGlyph name="Cacute" xMin="93" yMin="0" xMax="1418" yMax="2079">
      <component glyphName="C" x="13" y="0" flags="0x200"/>
      <component glyphName="acute" x="661" y="480" flags="0x0"/>
    </TTGlyph>
    <TTGlyph name="Ccaron" xMin="93" yMin="0" xMax="1418" yMax="2056">
      <component glyphName="C" x="13" y="0" flags="0x200"/>
      <component glyphName="caron" x="492" y="480" flags="0x0"/>
    </TTGlyph>
    <TTGlyph name="Ccedilla" xMin="93" yMin="-462" xMax="1418" yMax="1600">
      <component glyphName="C" x="13" y="0" flags="0x200"/>
      <component glyphName="cedilla" x="439" y="0" flags="0x0"/>
    </TTGlyph>
    <TTGlyph name="Ccircumflex" xMin="93" yMin="0" xMax="1418" yMax="2056">
      <component glyphName="C" x="13" y="0" flags="0x200"/>
      <component glyphName="circumflex" x="494" y="480" flags="0x0"/>
    </TTGlyph>
    <TTGlyph name="Cdotaccent" xMin="93" yMin="0" xMax="1418" yMax="1974">
      <component glyphName="C" x="13" y="0" flags="0x200"/>
      <component glyphName="dotaccent" x="692" y="480" flags="0x0"/>
    </TTGlyph>
    <TTGlyph name="Chi" xMin="93" yMin="0" xMax="1365" yMax="1600">
      <component glyphName="X" x="13" y="0" flags="0x200"/>
    </TTGlyph>
    <TTGlyph name="D" xMin="80" yMin="0" xMax="1270" yMax="1600">
      <contour>
        <pt x="470" y="123" on="1"/>
        <pt x="748" y="123" on="0"/>
        <pt x="948" y="321" on="1"/>
        <pt x="1147" y="520" on="0"/>
        <pt x="1147" y="800" on="1"/>
        <pt x="1147" y="1079" on="0"/>
        <pt x="948" y="1278" on="1"/>
        <pt x="747" y="1477" on="0"/>
        <pt x="470" y="1477" on="1"/>
        <pt x="203" y="1477" on="1"/>
        <pt x="203" y="123" on="1"/>
      </contour>
      <contour>
        <pt x="470" y="1600" on="1"/>
        <pt x="801" y="1600" on="0"/>
        <pt x="1035" y="1365" on="1"/>
        <pt x="1270" y="1131" on="0"/>
        <pt x="1270" y="800" on="1"/>
        <pt x="1270" y="469" on="0"/>
        <pt x="1035" y="234" on="1"/>
        <pt x="801" y="0" on="0"/>
        <pt x="470" y="0" on="1"/>
        <pt x="141" y="0" on="1"/>
        <pt x="116" y="0" on="0"/>
        <pt x="80" y="36" on="0"/>
        <pt x="80" y="62" on="1"/>
        <pt x="80" y="1538" on="1"/>
        <pt x="80" y="1564" on="0"/>
        <pt x="116" y="1600" on="0"/>
        <pt x="141" y="1600" on="1"/>
      </contour>
    </TTGlyph>
    <TTGlyph name="Dcaron" xMin="94" yMin="0" xMax="1284" yMax="2056">
      <component glyphName="D" x="14" y="0" flags="0x200"/>
      <component glyphName="caron" x="174" y="480" flags="0x0"/>
    </TTGlyph>
    <TTGlyph name="Dcroat" xMin="-1" yMin="0" xMax="1434" yMax="1600">
      <component glyphName="Eth" x="0" y="0" flags="0x200"/>
    </TTGlyph>
    <TTGlyph name="Delta" xMin="78" yMin="0" xMax="1364" yMax="1618">
      <contour>
        <pt x="141" y="0" on="1"/>
        <pt x="115" y="0" on="0"/>
        <pt x="78" y="36" on="0"/>
        <pt x="78" y="62" on="1"/>
        <pt x="78" y="81" on="0"/>
        <pt x="87" y="101" on="1"/>
        <pt x="665" y="1579" on="1"/>
        <pt x="670" y="1592" on="0"/>
        <pt x="676" y="1599" on="1"/>
        <pt x="694" y="1618" on="0"/>
        <pt x="721" y="1618" on="1"/>
        <pt x="747" y="1618" on="0"/>
        <pt x="766" y="1599" on="1"/>
        <pt x="773" y="1591" on="0"/>
        <pt x="778" y="1578" on="1"/>
        <pt x="1355" y="101" on="1"/>
        <pt x="1364" y="78" on="0"/>
        <pt x="1364" y="62" on="1"/>
        <pt x="1364" y="36" on="0"/>
        <pt x="1328" y="0" on="0"/>
        <pt x="1302" y="0" on="1"/>
      </contour>
      <contour>
        <pt x="1211" y="124" on="1"/>
        <pt x="721" y="1384" on="1"/>
        <pt x="232" y="124" on="1"/>
      </contour>
    </TTGlyph>
    <TTGlyph name="E" xMin="80" yMin="0" xMax="1188" yMax="1600">
      <contour>
        <pt x="1127" y="1600" on="1"/>
        <pt x="1152" y="1600" on="0"/>
        <pt x="1188" y="1564" on="0"/>
        <pt x="1188" y="1538" on="1"/>
        <pt x="1188" y="1513" on="0"/>
        <pt x="1152" y="1477" on="0"/>
        <pt x="1127" y="1477" on="1"/>
        <pt x="203" y="1477" on="1"/>
        <pt x="203" y="862" on="1"/>
        <pt x="880" y="862" on="1"/>
        <pt x="906" y="862" on="0"/>
        <pt x="942" y="826" on="0"/>
        <pt x="942" y="800" on="1"/>
        <pt x="942" y="774" on="0"/>
        <pt x="906" y="738" on="0"/>
        <pt x="880" y="738" on="1"/>
        <pt x="203" y="738" on="1"/>
        <pt x="203" y="123" on="1"/>
        <pt x="1127" y="123" on="1"/>
        <pt x="1152" y="123" on="0"/>
        <pt x="1188" y="87" on="0"/>
        <pt x="1188" y="62" on="1"/>
        <pt x="1188" y="36" on="0"/>
        <pt x="1152" y="0" on="0"/>
        <pt x="1127" y="0" on="1"/>
        <pt x="142" y="0" on="1"/>
        <pt x="116" y="0" on="0"/>
        <pt x="80" y="36" on="0"/>
        <pt x="80" y="62" on="1"/>
        <pt x="80" y="1538" on="1"/>
        <pt x="80" y="1564" on="0"/>
        <pt x="116" y="1600" on="0"/>
        <pt x="142" y="1600" on="1"/>
      </contour>
    </TTGlyph>
    <TTGlyph name="Eacute" xMin="95" yMin="0" xMax="1203" yMax="2079">
      <component glyphName="E" x="15" y="0" flags="0x200"/>
      <component glyphName="acute" x="443" y="480" flags="0x0"/>
    </TTGlyph>
    <TTGlyph name="Ebreve" xMin="94" yMin="0" xMax="1202" yMax="2056">
      <component glyphName="E" x="14" y="0" flags="0x200"/>
      <component glyphName="breve" x="260" y="480" flags="0x0"/>
    </TTGlyph>
    <TTGlyph name="Ecaron" xMin="94" yMin="0" xMax="1202" yMax="2056">
      <component glyphName="E" x="14" y="0" flags="0x200"/>
      <component glyphName="caron" x="255" y="480" flags="0x0"/>
    </TTGlyph>
    <TTGlyph name="Ecircumflex" xMin="95" yMin="0" xMax="1203" yMax="2056">
      <component glyphName="E" x="15" y="0" flags="0x200"/>
      <component glyphName="circumflex" x="254" y="480" flags="0x0"/>
    </TTGlyph>
    <TTGlyph name="Edieresis" xMin="95" yMin="0" xMax="1203" yMax="1953">
      <component glyphName="E" x="15" y="0" flags="0x200"/>
      <component glyphName="dieresis" x="177" y="480" flags="0x0"/>
    </TTGlyph>
    <TTGlyph name="Edotaccent" xMin="94" yMin="0" xMax="1202" yMax="1974">
      <component glyphName="E" x="14" y="0" flags="0x200"/>
      <component glyphName="dotaccent" x="455" y="480" flags="0x0"/>
    </TTGlyph>
    <TTGlyph name="Egrave" xMin="95" yMin="0" xMax="1203" yMax="2081">
      <component glyphName="E" x="15" y="0" flags="0x200"/>
      <component glyphName="grave" x="309" y="480" flags="0x0"/>
    </TTGlyph>
    <TTGlyph name="Emacron" xMin="94" yMin="0" xMax="1202" yMax="1886">
      <component glyphName="E" x="14" y="0" flags="0x200"/>
      <component glyphName="uni02C9" x="255" y="480" flags="0x0"/>
    </TTGlyph>
    <TTGlyph name="Eng" xMin="81" yMin="0" xMax="1353" yMax="1600">
      <contour>
        <pt x="204" y="62" on="1"/>
        <pt x="204" y="36" on="0"/>
        <pt x="169" y="0" on="0"/>
        <pt x="143" y="0" on="1"/>
        <pt x="117" y="0" on="0"/>
        <pt x="81" y="36" on="0"/>
        <pt x="81" y="62" on="1"/>
        <pt x="81" y="1538" on="1"/>
        <pt x="81" y="1564" on="0"/>
        <pt x="117" y="1600" on="0"/>
        <pt x="143" y="1600" on="1"/>
        <pt x="169" y="1600" on="0"/>
        <pt x="204" y="1564" on="0"/>
        <pt x="204" y="1538" on="1"/>
        <pt x="204" y="1345" on="1"/>
        <pt x="231" y="1375" on="0"/>
        <pt x="268" y="1414" on="1"/>
        <pt x="454" y="1600" on="0"/>
        <pt x="717" y="1600" on="1"/>
        <pt x="851" y="1600" on="0"/>
        <pt x="1072" y="1507" on="0"/>
        <pt x="1166" y="1413" on="1"/>
        <pt x="1353" y="1227" on="0"/>
        <pt x="1353" y="964" on="1"/>
        <pt x="1353" y="472" on="1"/>
        <pt x="1353" y="276" on="0"/>
        <pt x="1215" y="137" on="1"/>
        <pt x="1146" y="68" on="0"/>
        <pt x="981" y="0" on="0"/>
        <pt x="881" y="0" on="1"/>
        <pt x="684" y="0" on="0"/>
        <pt x="548" y="139" on="1"/>
        <pt x="530" y="157" on="0"/>
        <pt x="530" y="183" on="1"/>
        <pt x="530" y="208" on="0"/>
        <pt x="565" y="244" on="0"/>
        <pt x="591" y="244" on="1"/>
        <pt x="617" y="244" on="0"/>
        <pt x="635" y="227" on="1"/>
        <pt x="737" y="123" on="0"/>
        <pt x="881" y="123" on="1"/>
        <pt x="1026" y="123" on="0"/>
        <pt x="1127" y="225" on="1"/>
        <pt x="1230" y="327" on="0"/>
        <pt x="1230" y="472" on="1"/>
        <pt x="1230" y="964" on="1"/>
        <pt x="1230" y="1178" on="0"/>
        <pt x="1079" y="1326" on="1"/>
        <pt x="932" y="1477" on="0"/>
        <pt x="717" y="1477" on="1"/>
        <pt x="505" y="1477" on="0"/>
        <pt x="354" y="1326" on="1"/>
        <pt x="204" y="1176" on="0"/>
        <pt x="204" y="964" on="1"/>
      </contour>
    </TTGlyph>
    <TTGlyph name="Eogonek" xMin="94" yMin="-472" xMax="1202" yMax="1600">
      <component glyphName="E" x="14" y="0" flags="0x200"/>
      <component glyphName="ogonek" x="655" y="0" flags="0x0"/>
    </TTGlyph>
    <TTGlyph name="Epsilon" xMin="94" yMin="0" xMax="1202" yMax="1600">
      <component glyphName="E" x="14" y="0" flags="0x200"/>
    </TTGlyph>
    <TTGlyph name="Epsilontonos" xMin="-41" yMin="0" xMax="1558" yMax="1600">
      <contour>
        <pt x="63" y="1241" on="1"/>
        <pt x="46" y="1225" on="0"/>
        <pt x="21" y="1225" on="1"/>
        <pt x="-5" y="1225" on="0"/>
        <pt x="-41" y="1262" on="0"/>
        <pt x="-41" y="1288" on="1"/>
        <pt x="-41" y="1313" on="0"/>
        <pt x="-27" y="1329" on="1"/>
        <pt x="225" y="1581" on="1"/>
        <pt x="243" y="1599" on="0"/>
        <pt x="270" y="1599" on="1"/>
        <pt x="296" y="1599" on="0"/>
        <pt x="332" y="1563" on="0"/>
        <pt x="332" y="1537" on="1"/>
        <pt x="332" y="1525" on="0"/>
        <pt x="324" y="1502" on="0"/>
        <pt x="315" y="1493" on="1"/>
      </contour>
      <contour>
        <pt x="1497" y="1600" on="1"/>
        <pt x="1522" y="1600" on="0"/>
        <pt x="1558" y="1564" on="0"/>
        <pt x="1558" y="1538" on="1"/>
        <pt x="1558" y="1513" on="0"/>
        <pt x="1522" y="1477" on="0"/>
        <pt x="1497" y="1477" on="1"/>
        <pt x="573" y="1477" on="1"/>
        <pt x="573" y="862" on="1"/>
        <pt x="1250" y="862" on="1"/>
        <pt x="1276" y="862" on="0"/>
        <pt x="1312" y="826" on="0"/>
        <pt x="1312" y="800" on="1"/>
        <pt x="1312" y="774" on="0"/>
        <pt x="1276" y="738" on="0"/>
        <pt x="1250" y="738" on="1"/>
        <pt x="573" y="738" on="1"/>
        <pt x="573" y="123" on="1"/>
        <pt x="1497" y="123" on="1"/>
        <pt x="1522" y="123" on="0"/>
        <pt x="1558" y="87" on="0"/>
        <pt x="1558" y="62" on="1"/>
        <pt x="1558" y="36" on="0"/>
        <pt x="1522" y="0" on="0"/>
        <pt x="1497" y="0" on="1"/>
        <pt x="512" y="0" on="1"/>
        <pt x="486" y="0" on="0"/>
        <pt x="450" y="36" on="0"/>
        <pt x="450" y="62" on="1"/>
        <pt x="450" y="1538" on="1"/>
        <pt x="450" y="1564" on="0"/>
        <pt x="486" y="1600" on="0"/>
        <pt x="512" y="1600" on="1"/>
      </contour>
    </TTGlyph>
    <TTGlyph name="Eta" xMin="94" yMin="0" xMax="1202" yMax="1600">
      <component glyphName="H" x="14" y="0" flags="0x200"/>
    </TTGlyph>
    <TTGlyph name="Etatonos" xMin="-41" yMin="0" xMax="1558" yMax="1600">
      <contour>
        <pt x="63" y="1241" on="1"/>
        <pt x="46" y="1225" on="0"/>
        <pt x="21" y="1225" on="1"/>
        <pt x="-5" y="1225" on="0"/>
        <pt x="-41" y="1262" on="0"/>
        <pt x="-41" y="1288" on="1"/>
        <pt x="-41" y="1313" on="0"/>
        <pt x="-27" y="1329" on="1"/>
        <pt x="225" y="1581" on="1"/>
        <pt x="243" y="1599" on="0"/>
        <pt x="270" y="1599" on="1"/>
        <pt x="296" y="1599" on="0"/>
        <pt x="332" y="1563" on="0"/>
        <pt x="332" y="1537" on="1"/>
        <pt x="332" y="1525" on="0"/>
        <pt x="324" y="1502" on="0"/>
        <pt x="315" y="1493" on="1"/>
      </contour>
      <contour>
        <pt x="450" y="1538" on="1"/>
        <pt x="450" y="1564" on="0"/>
        <pt x="486" y="1600" on="0"/>
        <pt x="512" y="1600" on="1"/>
        <pt x="538" y="1600" on="0"/>
        <pt x="573" y="1564" on="0"/>
        <pt x="573" y="1538" on="1"/>
        <pt x="573" y="862" on="1"/>
        <pt x="1435" y="862" on="1"/>
        <pt x="1435" y="1538" on="1"/>
        <pt x="1435" y="1564" on="0"/>
        <pt x="1471" y="1600" on="0"/>
        <pt x="1497" y="1600" on="1"/>
        <pt x="1522" y="1600" on="0"/>
        <pt x="1558" y="1564" on="0"/>
        <pt x="1558" y="1538" on="1"/>
        <pt x="1558" y="62" on="1"/>
        <pt x="1558" y="36" on="0"/>
        <pt x="1522" y="0" on="0"/>
        <pt x="1497" y="0" on="1"/>
        <pt x="1471" y="0" on="0"/>
        <pt x="1435" y="36" on="0"/>
        <pt x="1435" y="62" on="1"/>
        <pt x="1435" y="738" on="1"/>
        <pt x="573" y="738" on="1"/>
        <pt x="573" y="62" on="1"/>
        <pt x="573" y="36" on="0"/>
        <pt x="538" y="0" on="0"/>
        <pt x="512" y="0" on="1"/>
        <pt x="486" y="0" on="0"/>
        <pt x="450" y="36" on="0"/>
        <pt x="450" y="62" on="1"/>
      </contour>
    </TTGlyph>
    <TTGlyph name="Eth" xMin="-1" yMin="0" xMax="1434" yMax="1600">
      <contour>
        <pt x="244" y="862" on="1"/>
        <pt x="244" y="1538" on="1"/>
        <pt x="244" y="1564" on="0"/>
        <pt x="280" y="1600" on="0"/>
        <pt x="306" y="1600" on="1"/>
        <pt x="634" y="1600" on="1"/>
        <pt x="965" y="1600" on="0"/>
        <pt x="1199" y="1365" on="1"/>
        <pt x="1434" y="1131" on="0"/>
        <pt x="1434" y="800" on="1"/>
        <pt x="1434" y="469" on="0"/>
        <pt x="1199" y="234" on="1"/>
        <pt x="965" y="0" on="0"/>
        <pt x="634" y="0" on="1"/>
        <pt x="306" y="0" on="1"/>
        <pt x="280" y="0" on="0"/>
        <pt x="244" y="36" on="0"/>
        <pt x="244" y="62" on="1"/>
        <pt x="244" y="738" on="1"/>
        <pt x="61" y="738" on="1"/>
        <pt x="35" y="738" on="0"/>
        <pt x="-1" y="774" on="0"/>
        <pt x="-1" y="800" on="1"/>
        <pt x="-1" y="826" on="0"/>
        <pt x="35" y="862" on="0"/>
        <pt x="61" y="862" on="1"/>
      </contour>
      <contour>
        <pt x="367" y="862" on="1"/>
        <pt x="716" y="862" on="1"/>
        <pt x="742" y="862" on="0"/>
        <pt x="778" y="826" on="0"/>
        <pt x="778" y="800" on="1"/>
        <pt x="778" y="774" on="0"/>
        <pt x="742" y="738" on="0"/>
        <pt x="716" y="738" on="1"/>
        <pt x="367" y="738" on="1"/>
        <pt x="367" y="123" on="1"/>
        <pt x="634" y="123" on="1"/>
        <pt x="914" y="123" on="0"/>
        <pt x="1112" y="321" on="1"/>
        <pt x="1311" y="520" on="0"/>
        <pt x="1311" y="800" on="1"/>
        <pt x="1311" y="1079" on="0"/>
        <pt x="1112" y="1278" on="1"/>
        <pt x="913" y="1477" on="0"/>
        <pt x="634" y="1477" on="1"/>
        <pt x="367" y="1477" on="1"/>
      </contour>
    </TTGlyph>
    <TTGlyph name="Euro" xMin="78" yMin="0" xMax="1418" yMax="1618">
      <contour>
        <pt x="1219" y="1037" on="1"/>
        <pt x="1245" y="1037" on="0"/>
        <pt x="1281" y="1001" on="0"/>
        <pt x="1281" y="975" on="1"/>
        <pt x="1281" y="949" on="0"/>
        <pt x="1245" y="913" on="0"/>
        <pt x="1219" y="913" on="1"/>
        <pt x="209" y="913" on="1"/>
        <pt x="202" y="858" on="0"/>
        <pt x="202" y="809" on="1"/>
        <pt x="202" y="755" on="0"/>
        <pt x="209" y="705" on="1"/>
        <pt x="1219" y="705" on="1"/>
        <pt x="1245" y="705" on="0"/>
        <pt x="1281" y="669" on="0"/>
        <pt x="1281" y="643" on="1"/>
        <pt x="1281" y="617" on="0"/>
        <pt x="1245" y="581" on="0"/>
        <pt x="1219" y="581" on="1"/>
        <pt x="239" y="581" on="1"/>
        <pt x="299" y="429" on="0"/>
        <pt x="404" y="326" on="1"/>
        <pt x="604" y="124" on="0"/>
        <pt x="887" y="124" on="1"/>
        <pt x="1131" y="124" on="0"/>
        <pt x="1315" y="275" on="1"/>
        <pt x="1328" y="284" on="0"/>
        <pt x="1349" y="284" on="1"/>
        <pt x="1375" y="284" on="0"/>
        <pt x="1412" y="248" on="0"/>
        <pt x="1412" y="222" on="1"/>
        <pt x="1412" y="196" on="0"/>
        <pt x="1396" y="180" on="1"/>
        <pt x="1283" y="92" on="0"/>
        <pt x="1027" y="0" on="0"/>
        <pt x="887" y="0" on="1"/>
        <pt x="722" y="0" on="0"/>
        <pt x="432" y="124" on="0"/>
        <pt x="314" y="236" on="1"/>
        <pt x="202" y="354" on="0"/>
        <pt x="78" y="644" on="0"/>
        <pt x="78" y="809" on="1"/>
        <pt x="78" y="1144" on="0"/>
        <pt x="314" y="1380" on="1"/>
        <pt x="552" y="1618" on="0"/>
        <pt x="887" y="1618" on="1"/>
        <pt x="1177" y="1618" on="0"/>
        <pt x="1399" y="1434" on="1"/>
        <pt x="1418" y="1416" on="0"/>
        <pt x="1418" y="1390" on="1"/>
        <pt x="1418" y="1364" on="0"/>
        <pt x="1382" y="1327" on="0"/>
        <pt x="1356" y="1327" on="1"/>
        <pt x="1330" y="1327" on="0"/>
        <pt x="1305" y="1352" on="1"/>
        <pt x="1131" y="1493" on="0"/>
        <pt x="887" y="1493" on="1"/>
        <pt x="603" y="1493" on="0"/>
        <pt x="404" y="1293" on="1"/>
        <pt x="350" y="1240" on="0"/>
        <pt x="269" y="1113" on="0"/>
        <pt x="239" y="1037" on="1"/>
      </contour>
    </TTGlyph>
    <TTGlyph name="F" xMin="80" yMin="0" xMax="1188" yMax="1600">
      <contour>
        <pt x="1127" y="1600" on="1"/>
        <pt x="1152" y="1600" on="0"/>
        <pt x="1188" y="1564" on="0"/>
        <pt x="1188" y="1538" on="1"/>
        <pt x="1188" y="1513" on="0"/>
        <pt x="1152" y="1477" on="0"/>
        <pt x="1127" y="1477" on="1"/>
        <pt x="203" y="1477" on="1"/>
        <pt x="203" y="862" on="1"/>
        <pt x="880" y="862" on="1"/>
        <pt x="906" y="862" on="0"/>
        <pt x="942" y="826" on="0"/>
        <pt x="942" y="800" on="1"/>
        <pt x="942" y="774" on="0"/>
        <pt x="906" y="738" on="0"/>
        <pt x="880" y="738" on="1"/>
        <pt x="203" y="738" on="1"/>
        <pt x="203" y="62" on="1"/>
        <pt x="203" y="36" on="0"/>
        <pt x="168" y="0" on="0"/>
        <pt x="142" y="0" on="1"/>
        <pt x="116" y="0" on="0"/>
        <pt x="80" y="36" on="0"/>
        <pt x="80" y="62" on="1"/>
        <pt x="80" y="1538" on="1"/>
        <pt x="80" y="1564" on="0"/>
        <pt x="116" y="1600" on="0"/>
        <pt x="142" y="1600" on="1"/>
      </contour>
    </TTGlyph>
    <TTGlyph name="G" xMin="80" yMin="0" xMax="1405" yMax="1600">
      <contour>
        <pt x="1399" y="219" on="1"/>
        <pt x="1399" y="192" on="0"/>
        <pt x="1384" y="178" on="1"/>
        <pt x="1272" y="91" on="0"/>
        <pt x="1020" y="0" on="0"/>
        <pt x="880" y="0" on="1"/>
        <pt x="717" y="0" on="0"/>
        <pt x="431" y="122" on="0"/>
        <pt x="314" y="234" on="1"/>
        <pt x="202" y="351" on="0"/>
        <pt x="80" y="637" on="0"/>
        <pt x="80" y="800" on="1"/>
        <pt x="80" y="1131" on="0"/>
        <pt x="314" y="1365" on="1"/>
        <pt x="549" y="1600" on="0"/>
        <pt x="880" y="1600" on="1"/>
        <pt x="1165" y="1600" on="0"/>
        <pt x="1387" y="1418" on="1"/>
        <pt x="1405" y="1400" on="0"/>
        <pt x="1405" y="1374" on="1"/>
        <pt x="1405" y="1349" on="0"/>
        <pt x="1369" y="1313" on="0"/>
        <pt x="1344" y="1313" on="1"/>
        <pt x="1318" y="1313" on="0"/>
        <pt x="1293" y="1337" on="1"/>
        <pt x="1120" y="1477" on="0"/>
        <pt x="880" y="1477" on="1"/>
        <pt x="600" y="1477" on="0"/>
        <pt x="401" y="1278" on="1"/>
        <pt x="203" y="1080" on="0"/>
        <pt x="203" y="800" on="1"/>
        <pt x="203" y="519" on="0"/>
        <pt x="401" y="321" on="1"/>
        <pt x="599" y="123" on="0"/>
        <pt x="880" y="123" on="1"/>
        <pt x="1100" y="123" on="0"/>
        <pt x="1276" y="250" on="1"/>
        <pt x="1276" y="656" on="1"/>
        <pt x="931" y="656" on="1"/>
        <pt x="905" y="656" on="0"/>
        <pt x="870" y="692" on="0"/>
        <pt x="870" y="718" on="1"/>
        <pt x="870" y="744" on="0"/>
        <pt x="905" y="779" on="0"/>
        <pt x="931" y="779" on="1"/>
        <pt x="1338" y="779" on="1"/>
        <pt x="1362" y="779" on="0"/>
        <pt x="1382" y="761" on="1"/>
        <pt x="1399" y="742" on="0"/>
        <pt x="1399" y="718" on="1"/>
      </contour>
    </TTGlyph>
    <TTGlyph name="Gamma" xMin="82" yMin="0" xMax="1191" yMax="1600">
      <contour>
        <pt x="82" y="1538" on="1"/>
        <pt x="83" y="1564" on="0"/>
        <pt x="119" y="1600" on="0"/>
        <pt x="145" y="1600" on="1"/>
        <pt x="1130" y="1600" on="1"/>
        <pt x="1155" y="1600" on="0"/>
        <pt x="1191" y="1564" on="0"/>
        <pt x="1191" y="1538" on="1"/>
        <pt x="1191" y="1513" on="0"/>
        <pt x="1155" y="1477" on="0"/>
        <pt x="1130" y="1477" on="1"/>
        <pt x="205" y="1477" on="1"/>
        <pt x="205" y="62" on="1"/>
        <pt x="205" y="36" on="0"/>
        <pt x="170" y="0" on="0"/>
        <pt x="144" y="0" on="1"/>
        <pt x="118" y="0" on="0"/>
        <pt x="82" y="36" on="0"/>
        <pt x="82" y="62" on="1"/>
      </contour>
    </TTGlyph>
    <TTGlyph name="Gbreve" xMin="93" yMin="0" xMax="1418" yMax="2056">
      <component glyphName="G" x="13" y="0" flags="0x200"/>
      <component glyphName="breve" x="498" y="480" flags="0x0"/>
    </TTGlyph>
    <TTGlyph name="Gcircumflex" xMin="93" yMin="0" xMax="1418" yMax="2056">
      <component glyphName="G" x="13" y="0" flags="0x200"/>
      <component glyphName="circumflex" x="493" y="480" flags="0x0"/>
    </TTGlyph>
    <TTGlyph name="Gcommaaccent" xMin="93" yMin="-478" xMax="1418" yMax="1600">
      <component glyphName="G" x="13" y="0" flags="0x200"/>
      <component glyphName="commaaccent" x="572" y="-22" flags="0x0"/>
    </TTGlyph>
    <TTGlyph name="Gdotaccent" xMin="93" yMin="0" xMax="1418" yMax="1974">
      <component glyphName="G" x="13" y="0" flags="0x200"/>
      <component glyphName="dotaccent" x="693" y="480" flags="0x0"/>
    </TTGlyph>
    <TTGlyph name="H" xMin="80" yMin="0" xMax="1188" yMax="1600">
      <contour>
        <pt x="80" y="1538" on="1"/>
        <pt x="80" y="1564" on="0"/>
        <pt x="116" y="1600" on="0"/>
        <pt x="142" y="1600" on="1"/>
        <pt x="168" y="1600" on="0"/>
        <pt x="203" y="1564" on="0"/>
        <pt x="203" y="1538" on="1"/>
        <pt x="203" y="862" on="1"/>
        <pt x="1065" y="862" on="1"/>
        <pt x="1065" y="1538" on="1"/>
        <pt x="1065" y="1564" on="0"/>
        <pt x="1101" y="1600" on="0"/>
        <pt x="1127" y="1600" on="1"/>
        <pt x="1152" y="1600" on="0"/>
        <pt x="1188" y="1564" on="0"/>
        <pt x="1188" y="1538" on="1"/>
        <pt x="1188" y="62" on="1"/>
        <pt x="1188" y="36" on="0"/>
        <pt x="1152" y="0" on="0"/>
        <pt x="1127" y="0" on="1"/>
        <pt x="1101" y="0" on="0"/>
        <pt x="1065" y="36" on="0"/>
        <pt x="1065" y="62" on="1"/>
        <pt x="1065" y="738" on="1"/>
        <pt x="203" y="738" on="1"/>
        <pt x="203" y="62" on="1"/>
        <pt x="203" y="36" on="0"/>
        <pt x="168" y="0" on="0"/>
        <pt x="142" y="0" on="1"/>
        <pt x="116" y="0" on="0"/>
        <pt x="80" y="36" on="0"/>
        <pt x="80" y="62" on="1"/>
      </contour>
    </TTGlyph>
    <TTGlyph name="Hbar" xMin="80" yMin="0" xMax="1516" yMax="1600">
      <contour>
        <pt x="244" y="1313" on="1"/>
        <pt x="244" y="1538" on="1"/>
        <pt x="244" y="1564" on="0"/>
        <pt x="280" y="1600" on="0"/>
        <pt x="306" y="1600" on="1"/>
        <pt x="332" y="1600" on="0"/>
        <pt x="367" y="1564" on="0"/>
        <pt x="367" y="1538" on="1"/>
        <pt x="367" y="1313" on="1"/>
        <pt x="1229" y="1313" on="1"/>
        <pt x="1229" y="1538" on="1"/>
        <pt x="1229" y="1564" on="0"/>
        <pt x="1265" y="1600" on="0"/>
        <pt x="1291" y="1600" on="1"/>
        <pt x="1316" y="1600" on="0"/>
        <pt x="1352" y="1564" on="0"/>
        <pt x="1352" y="1538" on="1"/>
        <pt x="1352" y="1313" on="1"/>
        <pt x="1455" y="1313" on="1"/>
        <pt x="1481" y="1313" on="0"/>
        <pt x="1516" y="1277" on="0"/>
        <pt x="1516" y="1251" on="1"/>
        <pt x="1516" y="1225" on="0"/>
        <pt x="1481" y="1190" on="0"/>
        <pt x="1455" y="1190" on="1"/>
        <pt x="1352" y="1190" on="1"/>
        <pt x="1352" y="62" on="1"/>
        <pt x="1352" y="36" on="0"/>
        <pt x="1316" y="0" on="0"/>
        <pt x="1291" y="0" on="1"/>
        <pt x="1265" y="0" on="0"/>
        <pt x="1229" y="36" on="0"/>
        <pt x="1229" y="62" on="1"/>
        <pt x="1229" y="738" on="1"/>
        <pt x="367" y="738" on="1"/>
        <pt x="367" y="62" on="1"/>
        <pt x="367" y="36" on="0"/>
        <pt x="332" y="0" on="0"/>
        <pt x="306" y="0" on="1"/>
        <pt x="280" y="0" on="0"/>
        <pt x="244" y="36" on="0"/>
        <pt x="244" y="62" on="1"/>
        <pt x="244" y="1190" on="1"/>
        <pt x="142" y="1190" on="1"/>
        <pt x="116" y="1190" on="0"/>
        <pt x="80" y="1225" on="0"/>
        <pt x="80" y="1251" on="1"/>
        <pt x="80" y="1277" on="0"/>
        <pt x="116" y="1313" on="0"/>
        <pt x="142" y="1313" on="1"/>
      </contour>
      <contour>
        <pt x="367" y="1190" on="1"/>
        <pt x="367" y="862" on="1"/>
        <pt x="1229" y="862" on="1"/>
        <pt x="1229" y="1190" on="1"/>
      </contour>
    </TTGlyph>
    <TTGlyph name="Hcircumflex" xMin="94" yMin="0" xMax="1202" yMax="2056">
      <component glyphName="H" x="14" y="0" flags="0x200"/>
      <component glyphName="circumflex" x="254" y="480" flags="0x0"/>
    </TTGlyph>
    <TTGlyph name="I" xMin="178" yMin="0" xMax="301" yMax="1600">
      <contour>
        <pt x="178" y="1538" on="1"/>
        <pt x="178" y="1564" on="0"/>
        <pt x="213" y="1600" on="0"/>
        <pt x="239" y="1600" on="1"/>
        <pt x="265" y="1600" on="0"/>
        <pt x="301" y="1564" on="0"/>
        <pt x="301" y="1538" on="1"/>
        <pt x="301" y="62" on="1"/>
        <pt x="301" y="36" on="0"/>
        <pt x="265" y="0" on="0"/>
        <pt x="239" y="0" on="1"/>
        <pt x="213" y="0" on="0"/>
        <pt x="178" y="36" on="0"/>
        <pt x="178" y="62" on="1"/>
      </contour>
    </TTGlyph>
    <TTGlyph name="IJ" xMin="182" yMin="0" xMax="1428" yMax="1600">
      <component glyphName="I" x="4" y="0" flags="0x0"/>
      <component glyphName="J" x="404" y="0" flags="0x0"/>
    </TTGlyph>
    <TTGlyph name="Iacute" xMin="114" yMin="0" xMax="487" yMax="2079">
      <component glyphName="I" x="0" y="0" flags="0x200"/>
      <component glyphName="acute" x="27" y="480" flags="0x0"/>
    </TTGlyph>
    <TTGlyph name="Ibreve" xMin="-74" yMin="0" xMax="550" yMax="2056">
      <component glyphName="I" x="-3" y="0" flags="0x200"/>
      <component glyphName="breve" x="-158" y="480" flags="0x0"/>
    </TTGlyph>
    <TTGlyph name="Icircumflex" xMin="-74" yMin="0" xMax="549" yMax="2056">
      <component glyphName="I" x="0" y="0" flags="0x200"/>
      <component glyphName="circumflex" x="-158" y="480" flags="0x0"/>
    </TTGlyph>
    <TTGlyph name="Idieresis" xMin="-93" yMin="0" xMax="571" yMax="1953">
      <component glyphName="I" x="0" y="0" flags="0x200"/>
      <component glyphName="dieresis" x="-237" y="480" flags="0x0"/>
    </TTGlyph>
    <TTGlyph name="Idotaccent" xMin="128" yMin="0" xMax="335" yMax="1974">
      <component glyphName="I" x="0" y="0" flags="0x200"/>
      <component glyphName="dotaccent" x="40" y="480" flags="0x0"/>
    </TTGlyph>
    <TTGlyph name="Igrave" xMin="-6" yMin="0" xMax="367" yMax="2081">
      <component glyphName="I" x="0" y="0" flags="0x200"/>
      <component glyphName="grave" x="-105" y="480" flags="0x0"/>
    </TTGlyph>
    <TTGlyph name="Imacron" xMin="-74" yMin="0" xMax="549" yMax="1886">
      <component glyphName="I" x="0" y="0" flags="0x200"/>
      <component glyphName="uni02C9" x="-158" y="480" flags="0x0"/>
    </TTGlyph>
    <TTGlyph name="Iogonek" xMin="12" yMin="-416" xMax="468" yMax="1600">
      <component glyphName="I" x="0" y="0" flags="0x200"/>
      <component glyphName="ogonek" x="-74" y="56" flags="0x0"/>
    </TTGlyph>
    <TTGlyph name="Iota" xMin="182" yMin="0" xMax="305" yMax="1600">
      <component glyphName="I" x="4" y="0" flags="0x200"/>
    </TTGlyph>
    <TTGlyph name="Iotadieresis" xMin="-88" yMin="0" xMax="576" yMax="1953">
      <contour>
        <pt x="183" y="1538" on="1"/>
        <pt x="183" y="1564" on="0"/>
        <pt x="218" y="1600" on="0"/>
        <pt x="244" y="1600" on="1"/>
        <pt x="270" y="1600" on="0"/>
        <pt x="306" y="1564" on="0"/>
        <pt x="306" y="1538" on="1"/>
        <pt x="306" y="62" on="1"/>
        <pt x="306" y="36" on="0"/>
        <pt x="270" y="0" on="0"/>
        <pt x="244" y="0" on="1"/>
        <pt x="218" y="0" on="0"/>
        <pt x="183" y="36" on="0"/>
        <pt x="183" y="62" on="1"/>
      </contour>
      <contour>
        <pt x="78" y="1870" on="1"/>
        <pt x="78" y="1835" on="0"/>
        <pt x="30" y="1787" on="0"/>
        <pt x="-5" y="1787" on="1"/>
        <pt x="-40" y="1787" on="0"/>
        <pt x="-88" y="1835" on="0"/>
        <pt x="-88" y="1870" on="1"/>
        <pt x="-88" y="1904" on="0"/>
        <pt x="-40" y="1953" on="0"/>
        <pt x="-5" y="1953" on="1"/>
        <pt x="30" y="1953" on="0"/>
        <pt x="78" y="1904" on="0"/>
      </contour>
      <contour>
        <pt x="576" y="1870" on="1"/>
        <pt x="576" y="1835" on="0"/>
        <pt x="527" y="1787" on="0"/>
        <pt x="493" y="1787" on="1"/>
        <pt x="458" y="1787" on="0"/>
        <pt x="410" y="1835" on="0"/>
        <pt x="410" y="1870" on="1"/>
        <pt x="410" y="1904" on="0"/>
        <pt x="458" y="1953" on="0"/>
        <pt x="493" y="1953" on="1"/>
        <pt x="527" y="1953" on="0"/>
        <pt x="576" y="1904" on="0"/>
      </contour>
    </TTGlyph>
    <TTGlyph name="Iotatonos" xMin="-41" yMin="0" xMax="593" yMax="1600">
      <contour>
        <pt x="63" y="1241" on="1"/>
        <pt x="46" y="1225" on="0"/>
        <pt x="21" y="1225" on="1"/>
        <pt x="-5" y="1225" on="0"/>
        <pt x="-41" y="1262" on="0"/>
        <pt x="-41" y="1288" on="1"/>
        <pt x="-41" y="1313" on="0"/>
        <pt x="-27" y="1329" on="1"/>
        <pt x="225" y="1581" on="1"/>
        <pt x="243" y="1599" on="0"/>
        <pt x="270" y="1599" on="1"/>
        <pt x="296" y="1599" on="0"/>
        <pt x="332" y="1563" on="0"/>
        <pt x="332" y="1537" on="1"/>
        <pt x="332" y="1525" on="0"/>
        <pt x="324" y="1502" on="0"/>
        <pt x="315" y="1493" on="1"/>
      </contour>
      <contour>
        <pt x="470" y="1538" on="1"/>
        <pt x="470" y="1564" on="0"/>
        <pt x="505" y="1600" on="0"/>
        <pt x="531" y="1600" on="1"/>
        <pt x="557" y="1600" on="0"/>
        <pt x="593" y="1564" on="0"/>
        <pt x="593" y="1538" on="1"/>
        <pt x="593" y="62" on="1"/>
        <pt x="593" y="36" on="0"/>
        <pt x="557" y="0" on="0"/>
        <pt x="531" y="0" on="1"/>
        <pt x="505" y="0" on="0"/>
        <pt x="470" y="36" on="0"/>
        <pt x="470" y="62" on="1"/>
      </contour>
    </TTGlyph>
    <TTGlyph name="Itilde" xMin="-80" yMin="0" xMax="718" yMax="2004">
      <component glyphName="I" x="80" y="0" flags="0x0"/>
      <component glyphName="tilde" x="-154" y="480" flags="0x0"/>
    </TTGlyph>
    <TTGlyph name="J" xMin="80" yMin="0" xMax="1024" yMax="1600">
      <contour>
        <pt x="80" y="472" on="1"/>
        <pt x="80" y="498" on="0"/>
        <pt x="116" y="533" on="0"/>
        <pt x="142" y="533" on="1"/>
        <pt x="168" y="533" on="0"/>
        <pt x="203" y="498" on="0"/>
        <pt x="203" y="472" on="1"/>
        <pt x="203" y="328" on="0"/>
        <pt x="305" y="225" on="1"/>
        <pt x="410" y="123" on="0"/>
        <pt x="552" y="123" on="1"/>
        <pt x="697" y="123" on="0"/>
        <pt x="798" y="225" on="1"/>
        <pt x="901" y="327" on="0"/>
        <pt x="901" y="472" on="1"/>
        <pt x="901" y="1538" on="1"/>
        <pt x="901" y="1564" on="0"/>
        <pt x="937" y="1600" on="0"/>
        <pt x="962" y="1600" on="1"/>
        <pt x="988" y="1600" on="0"/>
        <pt x="1024" y="1564" on="0"/>
        <pt x="1024" y="1538" on="1"/>
        <pt x="1024" y="472" on="1"/>
        <pt x="1024" y="276" on="0"/>
        <pt x="886" y="137" on="1"/>
        <pt x="747" y="0" on="0"/>
        <pt x="552" y="0" on="1"/>
        <pt x="357" y="0" on="0"/>
        <pt x="218" y="137" on="1"/>
        <pt x="80" y="278" on="0"/>
      </contour>
    </TTGlyph>
    <TTGlyph name="Jcircumflex" xMin="95" yMin="0" xMax="1282" yMax="2056">
      <component glyphName="J" x="15" y="0" flags="0x0"/>
      <component glyphName="circumflex" x="575" y="480" flags="0x0"/>
    </TTGlyph>
    <TTGlyph name="K" xMin="80" yMin="0" xMax="1106" yMax="1600">
      <contour>
        <pt x="80" y="1538" on="1"/>
        <pt x="80" y="1564" on="0"/>
        <pt x="116" y="1600" on="0"/>
        <pt x="141" y="1600" on="1"/>
        <pt x="167" y="1600" on="0"/>
        <pt x="203" y="1564" on="0"/>
        <pt x="203" y="1538" on="1"/>
        <pt x="203" y="786" on="1"/>
        <pt x="998" y="1581" on="1"/>
        <pt x="1017" y="1600" on="0"/>
        <pt x="1044" y="1600" on="1"/>
        <pt x="1070" y="1600" on="0"/>
        <pt x="1106" y="1564" on="0"/>
        <pt x="1106" y="1538" on="1"/>
        <pt x="1106" y="1515" on="0"/>
        <pt x="1088" y="1494" on="1"/>
        <pt x="499" y="906" on="1"/>
        <pt x="1094" y="98" on="1"/>
        <pt x="1105" y="82" on="0"/>
        <pt x="1106" y="65" on="1"/>
        <pt x="1106" y="32" on="0"/>
        <pt x="1081" y="12" on="1"/>
        <pt x="1064" y="0" on="0"/>
        <pt x="1046" y="0" on="1"/>
        <pt x="1012" y="0" on="0"/>
        <pt x="993" y="26" on="1"/>
        <pt x="410" y="816" on="1"/>
        <pt x="203" y="609" on="1"/>
        <pt x="203" y="62" on="1"/>
        <pt x="203" y="36" on="0"/>
        <pt x="167" y="0" on="0"/>
        <pt x="141" y="0" on="1"/>
        <pt x="116" y="0" on="0"/>
        <pt x="80" y="36" on="0"/>
        <pt x="80" y="62" on="1"/>
      </contour>
    </TTGlyph>
    <TTGlyph name="Kappa" xMin="95" yMin="0" xMax="1121" yMax="1600">
      <component glyphName="K" x="15" y="0" flags="0x200"/>
    </TTGlyph>
    <TTGlyph name="Kcommaaccent" xMin="95" yMin="-456" xMax="1121" yMax="1600">
      <component glyphName="K" x="15" y="0" flags="0x200"/>
      <component glyphName="commaaccent" x="256" y="0" flags="0x0"/>
    </TTGlyph>
    <TTGlyph name="L" xMin="80" yMin="0" xMax="1106" yMax="1600">
      <contour>
        <pt x="80" y="1538" on="1"/>
        <pt x="80" y="1564" on="0"/>
        <pt x="116" y="1600" on="0"/>
        <pt x="141" y="1600" on="1"/>
        <pt x="167" y="1600" on="0"/>
        <pt x="203" y="1564" on="0"/>
        <pt x="203" y="1538" on="1"/>
        <pt x="203" y="123" on="1"/>
        <pt x="1044" y="123" on="1"/>
        <pt x="1070" y="123" on="0"/>
        <pt x="1106" y="87" on="0"/>
        <pt x="1106" y="62" on="1"/>
        <pt x="1106" y="36" on="0"/>
        <pt x="1070" y="0" on="0"/>
        <pt x="1044" y="0" on="1"/>
        <pt x="141" y="0" on="1"/>
        <pt x="116" y="0" on="0"/>
        <pt x="80" y="36" on="0"/>
        <pt x="80" y="62" on="1"/>
      </contour>
    </TTGlyph>
    <TTGlyph name="Lacute" xMin="95" yMin="0" xMax="1121" yMax="2079">
      <component glyphName="L" x="15" y="0" flags="0x200"/>
      <component glyphName="acute" x="176" y="480" flags="0x0"/>
    </TTGlyph>
    <TTGlyph name="Lambda" xMin="81" yMin="0" xMax="1353" yMax="1600">
      <contour>
        <pt x="200" y="38" on="1"/>
        <pt x="196" y="28" on="0"/>
        <pt x="187" y="18" on="1"/>
        <pt x="169" y="0" on="0"/>
        <pt x="143" y="0" on="1"/>
        <pt x="117" y="0" on="0"/>
        <pt x="81" y="36" on="0"/>
        <pt x="81" y="62" on="1"/>
        <pt x="81" y="75" on="0"/>
        <pt x="87" y="89" on="1"/>
        <pt x="658" y="1556" on="1"/>
        <pt x="664" y="1572" on="0"/>
        <pt x="674" y="1583" on="1"/>
        <pt x="691" y="1600" on="0"/>
        <pt x="717" y="1600" on="1"/>
        <pt x="743" y="1600" on="0"/>
        <pt x="761" y="1582" on="1"/>
        <pt x="771" y="1571" on="0"/>
        <pt x="777" y="1556" on="1"/>
        <pt x="1347" y="89" on="1"/>
        <pt x="1353" y="75" on="0"/>
        <pt x="1353" y="62" on="1"/>
        <pt x="1353" y="36" on="0"/>
        <pt x="1317" y="0" on="0"/>
        <pt x="1292" y="0" on="1"/>
        <pt x="1269" y="0" on="0"/>
        <pt x="1254" y="12" on="1"/>
        <pt x="1243" y="22" on="0"/>
        <pt x="1235" y="37" on="1"/>
        <pt x="717" y="1369" on="1"/>
      </contour>
    </TTGlyph>
    <TTGlyph name="Lcaron" xMin="95" yMin="0" xMax="1121" yMax="1602">
      <component glyphName="L" x="15" y="0" flags="0x200"/>
      <component glyphName="quoteright" x="374" y="0" flags="0x0"/>
    </TTGlyph>
    <TTGlyph name="Lcommaaccent" xMin="95" yMin="-456" xMax="1121" yMax="1600">
      <component glyphName="L" x="15" y="0" flags="0x200"/>
      <component glyphName="commaaccent" x="295" y="0" flags="0x0"/>
    </TTGlyph>
    <TTGlyph name="Ldot" xMin="95" yMin="0" xMax="1121" yMax="1600">
      <component glyphName="L" x="15" y="0" flags="0x200"/>
      <component glyphName="periodcentered" x="496" y="40" flags="0x0"/>
    </TTGlyph>
    <TTGlyph name="Lslash" xMin="26" yMin="0" xMax="1272" yMax="1600">
      <contour>
        <pt x="246" y="829" on="1"/>
        <pt x="246" y="1538" on="1"/>
        <pt x="246" y="1564" on="0"/>
        <pt x="282" y="1600" on="0"/>
        <pt x="308" y="1600" on="1"/>
        <pt x="334" y="1600" on="0"/>
        <pt x="369" y="1564" on="0"/>
        <pt x="369" y="1538" on="1"/>
        <pt x="369" y="950" on="1"/>
        <pt x="511" y="1090" on="1"/>
        <pt x="529" y="1109" on="0"/>
        <pt x="554" y="1109" on="1"/>
        <pt x="580" y="1109" on="0"/>
        <pt x="598" y="1090" on="1"/>
        <pt x="616" y="1071" on="0"/>
        <pt x="616" y="1046" on="1"/>
        <pt x="616" y="1022" on="0"/>
        <pt x="598" y="1003" on="1"/>
        <pt x="369" y="776" on="1"/>
        <pt x="369" y="123" on="1"/>
        <pt x="1210" y="123" on="1"/>
        <pt x="1236" y="123" on="0"/>
        <pt x="1272" y="87" on="0"/>
        <pt x="1272" y="62" on="1"/>
        <pt x="1272" y="36" on="0"/>
        <pt x="1236" y="0" on="0"/>
        <pt x="1210" y="0" on="1"/>
        <pt x="308" y="0" on="1"/>
        <pt x="282" y="0" on="0"/>
        <pt x="246" y="36" on="0"/>
        <pt x="246" y="62" on="1"/>
        <pt x="246" y="655" on="1"/>
        <pt x="129" y="541" on="1"/>
        <pt x="113" y="522" on="0"/>
        <pt x="87" y="522" on="1"/>
        <pt x="62" y="522" on="0"/>
        <pt x="43" y="541" on="1"/>
        <pt x="26" y="559" on="0"/>
        <pt x="26" y="585" on="1"/>
        <pt x="26" y="612" on="0"/>
        <pt x="43" y="628" on="1"/>
      </contour>
    </TTGlyph>
    <TTGlyph name="M" xMin="80" yMin="0" xMax="1680" yMax="1600">
      <contour>
        <pt x="203" y="1278" on="1"/>
        <pt x="203" y="62" on="1"/>
        <pt x="203" y="36" on="0"/>
        <pt x="168" y="0" on="0"/>
        <pt x="142" y="0" on="1"/>
        <pt x="116" y="0" on="0"/>
        <pt x="80" y="36" on="0"/>
        <pt x="80" y="62" on="1"/>
        <pt x="80" y="1538" on="1"/>
        <pt x="80" y="1564" on="0"/>
        <pt x="116" y="1600" on="0"/>
        <pt x="142" y="1600" on="1"/>
        <pt x="179" y="1600" on="0"/>
        <pt x="196" y="1568" on="1"/>
        <pt x="880" y="199" on="1"/>
        <pt x="1564" y="1568" on="1"/>
        <pt x="1582" y="1600" on="0"/>
        <pt x="1619" y="1600" on="1"/>
        <pt x="1645" y="1600" on="0"/>
        <pt x="1680" y="1564" on="0"/>
        <pt x="1680" y="1538" on="1"/>
        <pt x="1680" y="62" on="1"/>
        <pt x="1680" y="36" on="0"/>
        <pt x="1645" y="0" on="0"/>
        <pt x="1619" y="0" on="1"/>
        <pt x="1593" y="0" on="0"/>
        <pt x="1557" y="36" on="0"/>
        <pt x="1557" y="62" on="1"/>
        <pt x="1557" y="1278" on="1"/>
        <pt x="933" y="29" on="1"/>
        <pt x="915" y="0" on="0"/>
        <pt x="880" y="0" on="1"/>
        <pt x="840" y="0" on="0"/>
        <pt x="823" y="39" on="1"/>
      </contour>
    </TTGlyph>
    <TTGlyph name="Mu" xMin="91" yMin="0" xMax="1691" yMax="1600">
      <component glyphName="M" x="11" y="0" flags="0x200"/>
    </TTGlyph>
    <TTGlyph name="N" xMin="80" yMin="0" xMax="1352" yMax="1600">
      <contour>
        <pt x="203" y="62" on="1"/>
        <pt x="203" y="36" on="0"/>
        <pt x="168" y="0" on="0"/>
        <pt x="142" y="0" on="1"/>
        <pt x="116" y="0" on="0"/>
        <pt x="80" y="36" on="0"/>
        <pt x="80" y="62" on="1"/>
        <pt x="80" y="1538" on="1"/>
        <pt x="80" y="1564" on="0"/>
        <pt x="116" y="1600" on="0"/>
        <pt x="142" y="1600" on="1"/>
        <pt x="171" y="1600" on="0"/>
        <pt x="189" y="1578" on="1"/>
        <pt x="1229" y="241" on="1"/>
        <pt x="1229" y="1538" on="1"/>
        <pt x="1229" y="1564" on="0"/>
        <pt x="1265" y="1600" on="0"/>
        <pt x="1291" y="1600" on="1"/>
        <pt x="1316" y="1600" on="0"/>
        <pt x="1352" y="1564" on="0"/>
        <pt x="1352" y="1538" on="1"/>
        <pt x="1352" y="62" on="1"/>
        <pt x="1352" y="36" on="0"/>
        <pt x="1316" y="0" on="0"/>
        <pt x="1291" y="0" on="1"/>
        <pt x="1261" y="0" on="0"/>
        <pt x="1245" y="18" on="1"/>
        <pt x="203" y="1358" on="1"/>
      </contour>
    </TTGlyph>
    <TTGlyph name="Nacute" xMin="93" yMin="0" xMax="1365" yMax="2079">
      <component glyphName="N" x="13" y="0" flags="0x200"/>
      <component glyphName="acute" x="520" y="480" flags="0x0"/>
    </TTGlyph>
    <TTGlyph name="Ncaron" xMin="93" yMin="0" xMax="1365" yMax="2056">
      <component glyphName="N" x="13" y="0" flags="0x200"/>
      <component glyphName="caron" x="333" y="480" flags="0x0"/>
    </TTGlyph>
    <TTGlyph name="Ncommaaccent" xMin="93" yMin="-456" xMax="1365" yMax="1600">
      <component glyphName="N" x="13" y="0" flags="0x200"/>
      <component glyphName="commaaccent" x="413" y="0" flags="0x0"/>
    </TTGlyph>
    <TTGlyph name="Ntilde" xMin="93" yMin="0" xMax="1365" yMax="2004">
      <component glyphName="N" x="13" y="0" flags="0x200"/>
      <component glyphName="tilde" x="250" y="480" flags="0x0"/>
    </TTGlyph>
    <TTGlyph name="Nu" xMin="93" yMin="0" xMax="1365" yMax="1600">
      <component glyphName="N" x="13" y="0" flags="0x200"/>
    </TTGlyph>
    <TTGlyph name="O" xMin="80" yMin="0" xMax="1680" yMax="1600">
      <contour>
        <pt x="880" y="1477" on="1"/>
        <pt x="602" y="1477" on="0"/>
        <pt x="401" y="1278" on="1"/>
        <pt x="203" y="1080" on="0"/>
        <pt x="203" y="800" on="1"/>
        <pt x="203" y="519" on="0"/>
        <pt x="401" y="321" on="1"/>
        <pt x="600" y="123" on="0"/>
        <pt x="880" y="123" on="1"/>
        <pt x="1160" y="123" on="0"/>
        <pt x="1358" y="321" on="1"/>
        <pt x="1557" y="519" on="0"/>
        <pt x="1557" y="800" on="1"/>
        <pt x="1557" y="1080" on="0"/>
        <pt x="1358" y="1278" on="1"/>
        <pt x="1159" y="1477" on="0"/>
      </contour>
      <contour>
        <pt x="1680" y="800" on="1"/>
        <pt x="1680" y="469" on="0"/>
        <pt x="1445" y="234" on="1"/>
        <pt x="1212" y="0" on="0"/>
        <pt x="880" y="0" on="1"/>
        <pt x="717" y="0" on="0"/>
        <pt x="431" y="122" on="0"/>
        <pt x="314" y="234" on="1"/>
        <pt x="202" y="351" on="0"/>
        <pt x="80" y="637" on="0"/>
        <pt x="80" y="800" on="1"/>
        <pt x="80" y="1131" on="0"/>
        <pt x="314" y="1365" on="1"/>
        <pt x="549" y="1600" on="0"/>
        <pt x="880" y="1600" on="1"/>
        <pt x="1213" y="1600" on="0"/>
        <pt x="1445" y="1365" on="1"/>
        <pt x="1680" y="1131" on="0"/>
      </contour>
    </TTGlyph>
    <TTGlyph name="OE" xMin="77" yMin="0" xMax="2088" yMax="1600">
      <contour>
        <pt x="877" y="1477" on="1"/>
        <pt x="597" y="1477" on="0"/>
        <pt x="398" y="1278" on="1"/>
        <pt x="200" y="1081" on="0"/>
        <pt x="200" y="800" on="1"/>
        <pt x="200" y="518" on="0"/>
        <pt x="398" y="321" on="1"/>
        <pt x="596" y="123" on="0"/>
        <pt x="877" y="123" on="1"/>
        <pt x="979" y="123" on="1"/>
        <pt x="979" y="1477" on="1"/>
      </contour>
      <contour>
        <pt x="877" y="0" on="1"/>
        <pt x="713" y="0" on="0"/>
        <pt x="427" y="122" on="0"/>
        <pt x="311" y="234" on="1"/>
        <pt x="199" y="351" on="0"/>
        <pt x="77" y="637" on="0"/>
        <pt x="77" y="800" on="1"/>
        <pt x="77" y="1131" on="0"/>
        <pt x="311" y="1365" on="1"/>
        <pt x="545" y="1600" on="0"/>
        <pt x="877" y="1600" on="1"/>
        <pt x="2026" y="1600" on="1"/>
        <pt x="2052" y="1600" on="0"/>
        <pt x="2088" y="1564" on="0"/>
        <pt x="2088" y="1538" on="1"/>
        <pt x="2088" y="1513" on="0"/>
        <pt x="2052" y="1477" on="0"/>
        <pt x="2026" y="1477" on="1"/>
        <pt x="1102" y="1477" on="1"/>
        <pt x="1102" y="862" on="1"/>
        <pt x="1780" y="862" on="1"/>
        <pt x="1806" y="862" on="0"/>
        <pt x="1842" y="826" on="0"/>
        <pt x="1842" y="800" on="1"/>
        <pt x="1842" y="774" on="0"/>
        <pt x="1806" y="737" on="0"/>
        <pt x="1780" y="737" on="1"/>
        <pt x="1102" y="737" on="1"/>
        <pt x="1102" y="123" on="1"/>
        <pt x="2025" y="123" on="1"/>
        <pt x="2051" y="123" on="0"/>
        <pt x="2087" y="87" on="0"/>
        <pt x="2087" y="62" on="1"/>
        <pt x="2087" y="36" on="0"/>
        <pt x="2051" y="0" on="0"/>
        <pt x="2025" y="0" on="1"/>
      </contour>
    </TTGlyph>
    <TTGlyph name="Oacute" xMin="91" yMin="0" xMax="1691" yMax="2079">
      <component glyphName="O" x="11" y="0" flags="0x200"/>
      <component glyphName="acute" x="608" y="480" flags="0x0"/>
    </TTGlyph>
    <TTGlyph name="Obreve" xMin="91" yMin="0" xMax="1691" yMax="2056">
      <component glyphName="O" x="11" y="0" flags="0x200"/>
      <component glyphName="breve" x="497" y="480" flags="0x0"/>
    </TTGlyph>
    <TTGlyph name="Ocircumflex" xMin="91" yMin="0" xMax="1691" yMax="2056">
      <component glyphName="O" x="11" y="0" flags="0x200"/>
      <component glyphName="circumflex" x="491" y="480" flags="0x0"/>
    </TTGlyph>
    <TTGlyph name="Odieresis" xMin="91" yMin="0" xMax="1691" yMax="1953">
      <component glyphName="O" x="11" y="0" flags="0x200"/>
      <component glyphName="dieresis" x="412" y="480" flags="0x0"/>
    </TTGlyph>
    <TTGlyph name="Ograve" xMin="91" yMin="0" xMax="1691" yMax="2081">
      <component glyphName="O" x="11" y="0" flags="0x200"/>
      <component glyphName="grave" x="624" y="480" flags="0x0"/>
    </TTGlyph>
    <TTGlyph name="Ohungarumlaut" xMin="91" yMin="0" xMax="1691" yMax="2079">
      <component glyphName="O" x="11" y="0" flags="0x200"/>
      <component glyphName="hungarumlaut" x="531" y="479" flags="0x0"/>
    </TTGlyph>
    <TTGlyph name="Omacron" xMin="91" yMin="0" xMax="1691" yMax="1886">
      <component glyphName="O" x="11" y="0" flags="0x200"/>
      <component glyphName="uni02C9" x="491" y="480" flags="0x0"/>
    </TTGlyph>
    <TTGlyph name="Omega" xMin="79" yMin="0" xMax="1679" yMax="1600">
      <component glyphName="uni03A9" x="0" y="0" flags="0x200"/>
    </TTGlyph>
    <TTGlyph name="Omegatonos" xMin="-38" yMin="0" xMax="1720" yMax="1600">
      <contour>
        <pt x="66" y="1241" on="1"/>
        <pt x="49" y="1225" on="0"/>
        <pt x="24" y="1225" on="1"/>
        <pt x="-2" y="1225" on="0"/>
        <pt x="-38" y="1262" on="0"/>
        <pt x="-38" y="1288" on="1"/>
        <pt x="-38" y="1313" on="0"/>
        <pt x="-24" y="1329" on="1"/>
        <pt x="228" y="1581" on="1"/>
        <pt x="246" y="1599" on="0"/>
        <pt x="273" y="1599" on="1"/>
        <pt x="299" y="1599" on="0"/>
        <pt x="335" y="1563" on="0"/>
        <pt x="335" y="1537" on="1"/>
        <pt x="335" y="1525" on="0"/>
        <pt x="327" y="1502" on="0"/>
        <pt x="318" y="1493" on="1"/>
      </contour>
      <contour>
        <pt x="674" y="123" on="1"/>
        <pt x="700" y="123" on="0"/>
        <pt x="736" y="87" on="0"/>
        <pt x="736" y="62" on="1"/>
        <pt x="736" y="36" on="0"/>
        <pt x="700" y="0" on="0"/>
        <pt x="674" y="0" on="1"/>
        <pt x="182" y="0" on="1"/>
        <pt x="156" y="0" on="0"/>
        <pt x="120" y="36" on="0"/>
        <pt x="120" y="62" on="1"/>
        <pt x="120" y="87" on="0"/>
        <pt x="156" y="123" on="0"/>
        <pt x="182" y="123" on="1"/>
        <pt x="374" y="123" on="1"/>
        <pt x="345" y="156" on="0"/>
        <pt x="299" y="213" on="0"/>
        <pt x="284" y="233" on="1"/>
        <pt x="284" y="232" on="1"/>
        <pt x="203" y="350" on="0"/>
        <pt x="120" y="631" on="0"/>
        <pt x="120" y="800" on="1"/>
        <pt x="120" y="1131" on="0"/>
        <pt x="354" y="1365" on="1"/>
        <pt x="589" y="1600" on="0"/>
        <pt x="920" y="1600" on="1"/>
        <pt x="1253" y="1600" on="0"/>
        <pt x="1485" y="1365" on="1"/>
        <pt x="1720" y="1131" on="0"/>
        <pt x="1720" y="800" on="1"/>
        <pt x="1720" y="631" on="0"/>
        <pt x="1638" y="350" on="0"/>
        <pt x="1556" y="232" on="1"/>
        <pt x="1556" y="233" on="1"/>
        <pt x="1542" y="213" on="0"/>
        <pt x="1496" y="156" on="0"/>
        <pt x="1467" y="123" on="1"/>
        <pt x="1659" y="123" on="1"/>
        <pt x="1685" y="123" on="0"/>
        <pt x="1720" y="87" on="0"/>
        <pt x="1720" y="62" on="1"/>
        <pt x="1720" y="36" on="0"/>
        <pt x="1685" y="0" on="0"/>
        <pt x="1659" y="0" on="1"/>
        <pt x="1166" y="0" on="1"/>
        <pt x="1141" y="0" on="0"/>
        <pt x="1105" y="36" on="0"/>
        <pt x="1105" y="62" on="1"/>
        <pt x="1105" y="87" on="0"/>
        <pt x="1141" y="123" on="0"/>
        <pt x="1166" y="123" on="1"/>
        <pt x="1349" y="123" on="0"/>
        <pt x="1474" y="324" on="1"/>
        <pt x="1597" y="520" on="0"/>
        <pt x="1597" y="800" on="1"/>
        <pt x="1597" y="1080" on="0"/>
        <pt x="1398" y="1278" on="1"/>
        <pt x="1199" y="1477" on="0"/>
        <pt x="920" y="1477" on="1"/>
        <pt x="642" y="1477" on="0"/>
        <pt x="441" y="1278" on="1"/>
        <pt x="243" y="1080" on="0"/>
        <pt x="243" y="800" on="1"/>
        <pt x="243" y="520" on="0"/>
        <pt x="366" y="324" on="1"/>
        <pt x="492" y="123" on="0"/>
      </contour>
    </TTGlyph>
    <TTGlyph name="Omicron" xMin="91" yMin="0" xMax="1691" yMax="1600">
      <component glyphName="O" x="11" y="0" flags="0x200"/>
    </TTGlyph>
    <TTGlyph name="Omicrontonos" xMin="-40" yMin="0" xMax="1717" yMax="1600">
      <contour>
        <pt x="64" y="1241" on="1"/>
        <pt x="47" y="1225" on="0"/>
        <pt x="22" y="1225" on="1"/>
        <pt x="-4" y="1225" on="0"/>
        <pt x="-40" y="1262" on="0"/>
        <pt x="-40" y="1288" on="1"/>
        <pt x="-40" y="1313" on="0"/>
        <pt x="-26" y="1329" on="1"/>
        <pt x="226" y="1581" on="1"/>
        <pt x="244" y="1599" on="0"/>
        <pt x="271" y="1599" on="1"/>
        <pt x="297" y="1599" on="0"/>
        <pt x="333" y="1563" on="0"/>
        <pt x="333" y="1537" on="1"/>
        <pt x="333" y="1525" on="0"/>
        <pt x="325" y="1502" on="0"/>
        <pt x="316" y="1493" on="1"/>
      </contour>
      <contour>
        <pt x="917" y="1477" on="1"/>
        <pt x="639" y="1477" on="0"/>
        <pt x="438" y="1278" on="1"/>
        <pt x="240" y="1080" on="0"/>
        <pt x="240" y="800" on="1"/>
        <pt x="240" y="519" on="0"/>
        <pt x="438" y="321" on="1"/>
        <pt x="637" y="123" on="0"/>
        <pt x="917" y="123" on="1"/>
        <pt x="1197" y="123" on="0"/>
        <pt x="1395" y="321" on="1"/>
        <pt x="1594" y="519" on="0"/>
        <pt x="1594" y="800" on="1"/>
        <pt x="1594" y="1080" on="0"/>
        <pt x="1395" y="1278" on="1"/>
        <pt x="1196" y="1477" on="0"/>
      </contour>
      <contour>
        <pt x="1717" y="800" on="1"/>
        <pt x="1717" y="469" on="0"/>
        <pt x="1482" y="234" on="1"/>
        <pt x="1249" y="0" on="0"/>
        <pt x="917" y="0" on="1"/>
        <pt x="754" y="0" on="0"/>
        <pt x="468" y="122" on="0"/>
        <pt x="351" y="234" on="1"/>
        <pt x="239" y="351" on="0"/>
        <pt x="117" y="637" on="0"/>
        <pt x="117" y="800" on="1"/>
        <pt x="117" y="1131" on="0"/>
        <pt x="351" y="1365" on="1"/>
        <pt x="586" y="1600" on="0"/>
        <pt x="917" y="1600" on="1"/>
        <pt x="1250" y="1600" on="0"/>
        <pt x="1482" y="1365" on="1"/>
        <pt x="1717" y="1131" on="0"/>
      </contour>
    </TTGlyph>
    <TTGlyph name="Oslash" xMin="79" yMin="0" xMax="1679" yMax="1600">
      <contour>
        <pt x="1487" y="1320" on="1"/>
        <pt x="1679" y="1092" on="0"/>
        <pt x="1679" y="800" on="1"/>
        <pt x="1679" y="469" on="0"/>
        <pt x="1444" y="234" on="1"/>
        <pt x="1211" y="0" on="0"/>
        <pt x="879" y="0" on="1"/>
        <pt x="588" y="0" on="0"/>
        <pt x="359" y="192" on="1"/>
        <pt x="185" y="17" on="1"/>
        <pt x="167" y="0" on="0"/>
        <pt x="141" y="0" on="1"/>
        <pt x="115" y="0" on="0"/>
        <pt x="79" y="36" on="0"/>
        <pt x="79" y="62" on="1"/>
        <pt x="79" y="87" on="0"/>
        <pt x="95" y="104" on="1"/>
        <pt x="271" y="280" on="1"/>
        <pt x="79" y="509" on="0"/>
        <pt x="79" y="800" on="1"/>
        <pt x="79" y="1131" on="0"/>
        <pt x="313" y="1365" on="1"/>
        <pt x="548" y="1600" on="0"/>
        <pt x="879" y="1600" on="1"/>
        <pt x="1169" y="1600" on="0"/>
        <pt x="1399" y="1408" on="1"/>
        <pt x="1574" y="1583" on="1"/>
        <pt x="1592" y="1600" on="0"/>
        <pt x="1618" y="1600" on="1"/>
        <pt x="1644" y="1600" on="0"/>
        <pt x="1679" y="1564" on="0"/>
        <pt x="1679" y="1538" on="1"/>
        <pt x="1679" y="1514" on="0"/>
        <pt x="1665" y="1498" on="1"/>
      </contour>
      <contour>
        <pt x="1312" y="1321" on="1"/>
        <pt x="1117" y="1477" on="0"/>
        <pt x="879" y="1477" on="1"/>
        <pt x="601" y="1477" on="0"/>
        <pt x="400" y="1278" on="1"/>
        <pt x="202" y="1080" on="0"/>
        <pt x="202" y="800" on="1"/>
        <pt x="202" y="564" on="0"/>
        <pt x="358" y="367" on="1"/>
      </contour>
      <contour>
        <pt x="446" y="279" on="1"/>
        <pt x="642" y="123" on="0"/>
        <pt x="879" y="123" on="1"/>
        <pt x="1159" y="123" on="0"/>
        <pt x="1357" y="321" on="1"/>
        <pt x="1556" y="519" on="0"/>
        <pt x="1556" y="800" on="1"/>
        <pt x="1556" y="1037" on="0"/>
        <pt x="1400" y="1234" on="1"/>
      </contour>
    </TTGlyph>
    <TTGlyph name="Oslashacute" xMin="79" yMin="0" xMax="1679" yMax="2079">
      <component glyphName="Oslash" x="0" y="0" flags="0x200"/>
      <component glyphName="acute" x="640" y="480" flags="0x0"/>
    </TTGlyph>
    <TTGlyph name="Otilde" xMin="91" yMin="0" xMax="1691" yMax="2004">
      <component glyphName="O" x="11" y="0" flags="0x200"/>
      <component glyphName="tilde" x="408" y="480" flags="0x0"/>
    </TTGlyph>
    <TTGlyph name="P" xMin="80" yMin="0" xMax="982" yMax="1600">
      <contour>
        <pt x="203" y="1477" on="1"/>
        <pt x="203" y="697" on="1"/>
        <pt x="469" y="697" on="1"/>
        <pt x="630" y="697" on="0"/>
        <pt x="744" y="811" on="1"/>
        <pt x="859" y="926" on="0"/>
        <pt x="859" y="1087" on="1"/>
        <pt x="859" y="1248" on="0"/>
        <pt x="744" y="1362" on="1"/>
        <pt x="630" y="1477" on="0"/>
        <pt x="469" y="1477" on="1"/>
      </contour>
      <contour>
        <pt x="469" y="1600" on="1"/>
        <pt x="683" y="1600" on="0"/>
        <pt x="831" y="1449" on="1"/>
        <pt x="982" y="1301" on="0"/>
        <pt x="982" y="1087" on="1"/>
        <pt x="982" y="875" on="0"/>
        <pt x="831" y="724" on="1"/>
        <pt x="681" y="574" on="0"/>
        <pt x="469" y="574" on="1"/>
        <pt x="203" y="574" on="1"/>
        <pt x="203" y="62" on="1"/>
        <pt x="203" y="36" on="0"/>
        <pt x="167" y="0" on="0"/>
        <pt x="141" y="0" on="1"/>
        <pt x="115" y="0" on="0"/>
        <pt x="80" y="36" on="0"/>
        <pt x="80" y="62" on="1"/>
        <pt x="80" y="1538" on="1"/>
        <pt x="80" y="1564" on="0"/>
        <pt x="115" y="1600" on="0"/>
        <pt x="141" y="1600" on="1"/>
      </contour>
    </TTGlyph>
    <TTGlyph name="Phi" xMin="79" yMin="0" xMax="1679" yMax="1600">
      <contour>
        <pt x="818" y="1312" on="1"/>
        <pt x="697" y="1300" on="0"/>
        <pt x="486" y="1225" on="0"/>
        <pt x="403" y="1165" on="1"/>
        <pt x="305" y="1090" on="0"/>
        <pt x="202" y="907" on="0"/>
        <pt x="202" y="800" on="1"/>
        <pt x="202" y="693" on="0"/>
        <pt x="305" y="510" on="0"/>
        <pt x="403" y="436" on="1"/>
        <pt x="485" y="376" on="0"/>
        <pt x="697" y="299" on="0"/>
        <pt x="818" y="288" on="1"/>
      </contour>
      <contour>
        <pt x="941" y="288" on="1"/>
        <pt x="1064" y="300" on="0"/>
        <pt x="1272" y="375" on="0"/>
        <pt x="1356" y="436" on="1"/>
        <pt x="1454" y="510" on="0"/>
        <pt x="1556" y="693" on="0"/>
        <pt x="1556" y="800" on="1"/>
        <pt x="1556" y="1016" on="0"/>
        <pt x="1356" y="1165" on="1"/>
        <pt x="1190" y="1288" on="0"/>
        <pt x="941" y="1312" on="1"/>
      </contour>
      <contour>
        <pt x="818" y="1538" on="1"/>
        <pt x="818" y="1564" on="0"/>
        <pt x="853" y="1600" on="0"/>
        <pt x="879" y="1600" on="1"/>
        <pt x="905" y="1600" on="0"/>
        <pt x="941" y="1564" on="0"/>
        <pt x="941" y="1538" on="1"/>
        <pt x="941" y="1434" on="1"/>
        <pt x="1093" y="1424" on="0"/>
        <pt x="1344" y="1330" on="0"/>
        <pt x="1447" y="1248" on="1"/>
        <pt x="1446" y="1248" on="1"/>
        <pt x="1679" y="1062" on="0"/>
        <pt x="1679" y="800" on="1"/>
        <pt x="1679" y="539" on="0"/>
        <pt x="1446" y="353" on="1"/>
        <pt x="1241" y="185" on="0"/>
        <pt x="941" y="166" on="1"/>
        <pt x="941" y="62" on="1"/>
        <pt x="941" y="36" on="0"/>
        <pt x="905" y="0" on="0"/>
        <pt x="879" y="0" on="1"/>
        <pt x="853" y="0" on="0"/>
        <pt x="818" y="36" on="0"/>
        <pt x="818" y="62" on="1"/>
        <pt x="818" y="166" on="1"/>
        <pt x="519" y="185" on="0"/>
        <pt x="312" y="353" on="1"/>
        <pt x="79" y="538" on="0"/>
        <pt x="79" y="800" on="1"/>
        <pt x="79" y="928" on="0"/>
        <pt x="200" y="1156" on="0"/>
        <pt x="312" y="1248" on="1"/>
        <pt x="413" y="1326" on="0"/>
        <pt x="671" y="1423" on="0"/>
        <pt x="818" y="1434" on="1"/>
      </contour>
    </TTGlyph>
    <TTGlyph name="Pi" xMin="82" yMin="0" xMax="1272" yMax="1600">
      <contour>
        <pt x="1210" y="1600" on="1"/>
        <pt x="1236" y="1600" on="0"/>
        <pt x="1272" y="1564" on="0"/>
        <pt x="1272" y="1538" on="1"/>
        <pt x="1272" y="62" on="1"/>
        <pt x="1272" y="36" on="0"/>
        <pt x="1236" y="0" on="0"/>
        <pt x="1210" y="0" on="1"/>
        <pt x="1184" y="0" on="0"/>
        <pt x="1149" y="36" on="0"/>
        <pt x="1149" y="62" on="1"/>
        <pt x="1149" y="1477" on="1"/>
        <pt x="205" y="1477" on="1"/>
        <pt x="205" y="62" on="1"/>
        <pt x="205" y="36" on="0"/>
        <pt x="169" y="0" on="0"/>
        <pt x="143" y="0" on="1"/>
        <pt x="118" y="0" on="0"/>
        <pt x="82" y="36" on="0"/>
        <pt x="82" y="62" on="1"/>
        <pt x="82" y="1538" on="1"/>
        <pt x="82" y="1564" on="0"/>
        <pt x="118" y="1600" on="0"/>
        <pt x="143" y="1600" on="1"/>
      </contour>
    </TTGlyph>
    <TTGlyph name="Psi" xMin="81" yMin="0" xMax="1353" yMax="1600">
      <contour>
        <pt x="81" y="1538" on="1"/>
        <pt x="81" y="1564" on="0"/>
        <pt x="117" y="1600" on="0"/>
        <pt x="143" y="1600" on="1"/>
        <pt x="169" y="1600" on="0"/>
        <pt x="204" y="1564" on="0"/>
        <pt x="204" y="1538" on="1"/>
        <pt x="204" y="1128" on="1"/>
        <pt x="204" y="917" on="0"/>
        <pt x="355" y="766" on="1"/>
        <pt x="473" y="647" on="0"/>
        <pt x="656" y="618" on="1"/>
        <pt x="656" y="1538" on="1"/>
        <pt x="656" y="1564" on="0"/>
        <pt x="691" y="1600" on="0"/>
        <pt x="717" y="1600" on="1"/>
        <pt x="743" y="1600" on="0"/>
        <pt x="779" y="1564" on="0"/>
        <pt x="779" y="1538" on="1"/>
        <pt x="779" y="618" on="1"/>
        <pt x="960" y="646" on="0"/>
        <pt x="1080" y="766" on="1"/>
        <pt x="1230" y="916" on="0"/>
        <pt x="1230" y="1128" on="1"/>
        <pt x="1230" y="1538" on="1"/>
        <pt x="1230" y="1564" on="0"/>
        <pt x="1266" y="1600" on="0"/>
        <pt x="1292" y="1600" on="1"/>
        <pt x="1317" y="1600" on="0"/>
        <pt x="1353" y="1564" on="0"/>
        <pt x="1353" y="1538" on="1"/>
        <pt x="1353" y="1128" on="1"/>
        <pt x="1353" y="864" on="0"/>
        <pt x="1167" y="679" on="1"/>
        <pt x="1088" y="599" on="0"/>
        <pt x="895" y="508" on="0"/>
        <pt x="779" y="494" on="1"/>
        <pt x="779" y="62" on="1"/>
        <pt x="779" y="36" on="0"/>
        <pt x="743" y="0" on="0"/>
        <pt x="717" y="0" on="1"/>
        <pt x="691" y="0" on="0"/>
        <pt x="656" y="36" on="0"/>
        <pt x="656" y="62" on="1"/>
        <pt x="656" y="494" on="1"/>
        <pt x="424" y="523" on="0"/>
        <pt x="268" y="679" on="1"/>
        <pt x="81" y="866" on="0"/>
        <pt x="81" y="1128" on="1"/>
      </contour>
    </TTGlyph>
    <TTGlyph name="Q" xMin="80" yMin="0" xMax="1680" yMax="1600">
      <contour>
        <pt x="1400" y="192" on="1"/>
        <pt x="1170" y="0" on="0"/>
        <pt x="880" y="0" on="1"/>
        <pt x="717" y="0" on="0"/>
        <pt x="431" y="122" on="0"/>
        <pt x="314" y="234" on="1"/>
        <pt x="202" y="351" on="0"/>
        <pt x="80" y="637" on="0"/>
        <pt x="80" y="800" on="1"/>
        <pt x="80" y="1131" on="0"/>
        <pt x="314" y="1365" on="1"/>
        <pt x="549" y="1600" on="0"/>
        <pt x="880" y="1600" on="1"/>
        <pt x="1213" y="1600" on="0"/>
        <pt x="1445" y="1365" on="1"/>
        <pt x="1680" y="1131" on="0"/>
        <pt x="1680" y="800" on="1"/>
        <pt x="1680" y="508" on="0"/>
        <pt x="1488" y="280" on="1"/>
        <pt x="1663" y="105" on="1"/>
        <pt x="1680" y="87" on="0"/>
        <pt x="1680" y="62" on="1"/>
        <pt x="1680" y="36" on="0"/>
        <pt x="1645" y="0" on="0"/>
        <pt x="1619" y="0" on="1"/>
        <pt x="1593" y="0" on="0"/>
        <pt x="1574" y="19" on="1"/>
      </contour>
      <contour>
        <pt x="1123" y="469" on="1"/>
        <pt x="1106" y="487" on="0"/>
        <pt x="1106" y="513" on="1"/>
        <pt x="1106" y="539" on="0"/>
        <pt x="1142" y="574" on="0"/>
        <pt x="1167" y="574" on="1"/>
        <pt x="1192" y="574" on="0"/>
        <pt x="1212" y="557" on="1"/>
        <pt x="1401" y="367" on="1"/>
        <pt x="1557" y="562" on="0"/>
        <pt x="1557" y="800" on="1"/>
        <pt x="1557" y="1080" on="0"/>
        <pt x="1358" y="1278" on="1"/>
        <pt x="1159" y="1477" on="0"/>
        <pt x="880" y="1477" on="1"/>
        <pt x="602" y="1477" on="0"/>
        <pt x="401" y="1278" on="1"/>
        <pt x="203" y="1080" on="0"/>
        <pt x="203" y="800" on="1"/>
        <pt x="203" y="519" on="0"/>
        <pt x="401" y="321" on="1"/>
        <pt x="600" y="123" on="0"/>
        <pt x="880" y="123" on="1"/>
        <pt x="1118" y="123" on="0"/>
        <pt x="1313" y="279" on="1"/>
      </contour>
    </TTGlyph>
    <TTGlyph name="R" xMin="80" yMin="0" xMax="1106" yMax="1600">
      <contour>
        <pt x="203" y="1477" on="1"/>
        <pt x="203" y="779" on="1"/>
        <pt x="552" y="779" on="1"/>
        <pt x="696" y="779" on="0"/>
        <pt x="798" y="881" on="1"/>
        <pt x="900" y="983" on="0"/>
        <pt x="900" y="1128" on="1"/>
        <pt x="900" y="1275" on="0"/>
        <pt x="798" y="1374" on="1"/>
        <pt x="696" y="1477" on="0"/>
        <pt x="552" y="1477" on="1"/>
      </contour>
      <contour>
        <pt x="552" y="1600" on="1"/>
        <pt x="748" y="1600" on="0"/>
        <pt x="885" y="1462" on="1"/>
        <pt x="1023" y="1324" on="0"/>
        <pt x="1023" y="1128" on="1"/>
        <pt x="1023" y="932" on="0"/>
        <pt x="886" y="795" on="1"/>
        <pt x="821" y="730" on="0"/>
        <pt x="726" y="687" on="1"/>
        <pt x="1095" y="95" on="1"/>
        <pt x="1106" y="79" on="0"/>
        <pt x="1106" y="62" on="1"/>
        <pt x="1106" y="36" on="0"/>
        <pt x="1070" y="0" on="0"/>
        <pt x="1044" y="0" on="1"/>
        <pt x="1012" y="0" on="0"/>
        <pt x="990" y="33" on="1"/>
        <pt x="599" y="658" on="1"/>
        <pt x="578" y="656" on="0"/>
        <pt x="552" y="656" on="1"/>
        <pt x="203" y="656" on="1"/>
        <pt x="203" y="62" on="1"/>
        <pt x="203" y="36" on="0"/>
        <pt x="167" y="0" on="0"/>
        <pt x="141" y="0" on="1"/>
        <pt x="116" y="0" on="0"/>
        <pt x="80" y="36" on="0"/>
        <pt x="80" y="62" on="1"/>
        <pt x="80" y="1538" on="1"/>
        <pt x="80" y="1564" on="0"/>
        <pt x="116" y="1600" on="0"/>
        <pt x="141" y="1600" on="1"/>
      </contour>
    </TTGlyph>
    <TTGlyph name="Racute" xMin="95" yMin="0" xMax="1121" yMax="2079">
      <component glyphName="R" x="15" y="0" flags="0x200"/>
      <component glyphName="acute" x="255" y="480" flags="0x0"/>
    </TTGlyph>
    <TTGlyph name="Rcaron" xMin="95" yMin="0" xMax="1121" yMax="2056">
      <component glyphName="R" x="15" y="0" flags="0x200"/>
      <component glyphName="caron" x="96" y="480" flags="0x0"/>
    </TTGlyph>
    <TTGlyph name="Rcommaaccent" xMin="95" yMin="-456" xMax="1121" yMax="1600">
      <component glyphName="R" x="15" y="0" flags="0x200"/>
      <component glyphName="commaaccent" x="295" y="0" flags="0x0"/>
    </TTGlyph>
    <TTGlyph name="Rho" xMin="96" yMin="0" xMax="998" yMax="1600">
      <component glyphName="P" x="16" y="0" flags="0x200"/>
    </TTGlyph>
    <TTGlyph name="S" xMin="80" yMin="0" xMax="962" yMax="1600">
      <contour>
        <pt x="80" y="232" on="0"/>
        <pt x="80" y="253" on="1"/>
        <pt x="80" y="279" on="0"/>
        <pt x="115" y="315" on="0"/>
        <pt x="141" y="315" on="1"/>
        <pt x="174" y="315" on="0"/>
        <pt x="194" y="287" on="1"/>
        <pt x="207" y="268" on="0"/>
        <pt x="224" y="247" on="1"/>
        <pt x="269" y="195" on="0"/>
        <pt x="397" y="126" on="0"/>
        <pt x="493" y="123" on="1"/>
        <pt x="618" y="123" on="0"/>
        <pt x="716" y="206" on="1"/>
        <pt x="769" y="252" on="0"/>
        <pt x="839" y="381" on="0"/>
        <pt x="839" y="475" on="1"/>
        <pt x="839" y="601" on="0"/>
        <pt x="756" y="697" on="1"/>
        <pt x="710" y="751" on="0"/>
        <pt x="589" y="813" on="0"/>
        <pt x="519" y="819" on="1"/>
        <pt x="441" y="827" on="0"/>
        <pt x="304" y="897" on="0"/>
        <pt x="253" y="956" on="1"/>
        <pt x="209" y="1010" on="0"/>
        <pt x="161" y="1136" on="0"/>
        <pt x="161" y="1205" on="1"/>
        <pt x="163" y="1392" on="0"/>
        <pt x="298" y="1506" on="1"/>
        <pt x="407" y="1600" on="0"/>
        <pt x="552" y="1600" on="1"/>
        <pt x="720" y="1600" on="0"/>
        <pt x="848" y="1461" on="1"/>
        <pt x="870" y="1435" on="0"/>
        <pt x="886" y="1408" on="1"/>
        <pt x="895" y="1393" on="0"/>
        <pt x="895" y="1374" on="1"/>
        <pt x="895" y="1349" on="0"/>
        <pt x="859" y="1313" on="0"/>
        <pt x="834" y="1313" on="1"/>
        <pt x="805" y="1313" on="0"/>
        <pt x="793" y="1329" on="1"/>
        <pt x="777" y="1351" on="0"/>
        <pt x="754" y="1379" on="1"/>
        <pt x="679" y="1467" on="0"/>
        <pt x="573" y="1474" on="1"/>
        <pt x="464" y="1481" on="0"/>
        <pt x="378" y="1410" on="1"/>
        <pt x="292" y="1338" on="0"/>
        <pt x="285" y="1231" on="1"/>
        <pt x="281" y="1176" on="0"/>
        <pt x="311" y="1078" on="0"/>
        <pt x="347" y="1036" on="1"/>
        <pt x="383" y="993" on="0"/>
        <pt x="474" y="948" on="0"/>
        <pt x="528" y="943" on="1"/>
        <pt x="623" y="933" on="0"/>
        <pt x="788" y="848" on="0"/>
        <pt x="851" y="777" on="1"/>
        <pt x="904" y="712" on="0"/>
        <pt x="962" y="560" on="0"/>
        <pt x="962" y="479" on="1"/>
        <pt x="960" y="341" on="0"/>
        <pt x="871" y="176" on="0"/>
        <pt x="796" y="113" on="1"/>
        <pt x="662" y="0" on="0"/>
        <pt x="494" y="0" on="1"/>
        <pt x="283" y="0" on="0"/>
        <pt x="130" y="167" on="1"/>
        <pt x="113" y="186" on="0"/>
        <pt x="93" y="215" on="1"/>
      </contour>
    </TTGlyph>
    <TTGlyph name="Sacute" xMin="96" yMin="0" xMax="978" yMax="2079">
      <component glyphName="S" x="16" y="0" flags="0x200"/>
      <component glyphName="acute" x="333" y="480" flags="0x0"/>
    </TTGlyph>
    <TTGlyph name="Scaron" xMin="96" yMin="0" xMax="978" yMax="2056">
      <component glyphName="S" x="16" y="0" flags="0x200"/>
      <component glyphName="caron" x="146" y="480" flags="0x0"/>
    </TTGlyph>
    <TTGlyph name="Scedilla" xMin="96" yMin="-462" xMax="978" yMax="1600">
      <component glyphName="S" x="16" y="0" flags="0x200"/>
      <component glyphName="cedilla" x="166" y="0" flags="0x0"/>
    </TTGlyph>
    <TTGlyph name="Scircumflex" xMin="96" yMin="0" xMax="978" yMax="2056">
      <component glyphName="S" x="16" y="0" flags="0x200"/>
      <component glyphName="circumflex" x="156" y="480" flags="0x0"/>
    </TTGlyph>
    <TTGlyph name="Sigma" xMin="82" yMin="0" xMax="1190" yMax="1600">
      <contour>
        <pt x="1129" y="1600" on="1"/>
        <pt x="1154" y="1600" on="0"/>
        <pt x="1190" y="1564" on="0"/>
        <pt x="1190" y="1538" on="1"/>
        <pt x="1190" y="1513" on="0"/>
        <pt x="1154" y="1477" on="0"/>
        <pt x="1129" y="1477" on="1"/>
        <pt x="270" y="1477" on="1"/>
        <pt x="769" y="836" on="1"/>
        <pt x="780" y="822" on="0"/>
        <pt x="780" y="800" on="1"/>
        <pt x="780" y="779" on="0"/>
        <pt x="769" y="764" on="1"/>
        <pt x="270" y="123" on="1"/>
        <pt x="1129" y="123" on="1"/>
        <pt x="1154" y="123" on="0"/>
        <pt x="1190" y="87" on="0"/>
        <pt x="1190" y="62" on="1"/>
        <pt x="1190" y="36" on="0"/>
        <pt x="1154" y="0" on="0"/>
        <pt x="1129" y="0" on="1"/>
        <pt x="144" y="0" on="1"/>
        <pt x="118" y="0" on="0"/>
        <pt x="82" y="36" on="0"/>
        <pt x="82" y="62" on="1"/>
        <pt x="82" y="80" on="0"/>
        <pt x="92" y="94" on="1"/>
        <pt x="639" y="800" on="1"/>
        <pt x="92" y="1506" on="1"/>
        <pt x="82" y="1520" on="0"/>
        <pt x="82" y="1538" on="1"/>
        <pt x="82" y="1564" on="0"/>
        <pt x="118" y="1600" on="0"/>
        <pt x="144" y="1600" on="1"/>
      </contour>
    </TTGlyph>
    <TTGlyph name="T" xMin="81" yMin="0" xMax="1271" yMax="1600">
      <contour>
        <pt x="142" y="1477" on="1"/>
        <pt x="117" y="1477" on="0"/>
        <pt x="81" y="1513" on="0"/>
        <pt x="81" y="1538" on="1"/>
        <pt x="81" y="1564" on="0"/>
        <pt x="117" y="1600" on="0"/>
        <pt x="142" y="1600" on="1"/>
        <pt x="1209" y="1600" on="1"/>
        <pt x="1235" y="1600" on="0"/>
        <pt x="1271" y="1564" on="0"/>
        <pt x="1271" y="1538" on="1"/>
        <pt x="1271" y="1513" on="0"/>
        <pt x="1235" y="1477" on="0"/>
        <pt x="1209" y="1477" on="1"/>
        <pt x="737" y="1477" on="1"/>
        <pt x="737" y="62" on="1"/>
        <pt x="737" y="36" on="0"/>
        <pt x="702" y="0" on="0"/>
        <pt x="676" y="0" on="1"/>
        <pt x="650" y="0" on="0"/>
        <pt x="614" y="36" on="0"/>
        <pt x="614" y="62" on="1"/>
        <pt x="614" y="1477" on="1"/>
      </contour>
    </TTGlyph>
    <TTGlyph name="Tau" xMin="94" yMin="0" xMax="1284" yMax="1600">
      <component glyphName="T" x="13" y="0" flags="0x200"/>
    </TTGlyph>
    <TTGlyph name="Tbar" xMin="82" yMin="0" xMax="1272" yMax="1600">
      <contour>
        <pt x="615" y="779" on="1"/>
        <pt x="615" y="1477" on="1"/>
        <pt x="143" y="1477" on="1"/>
        <pt x="118" y="1477" on="0"/>
        <pt x="82" y="1513" on="0"/>
        <pt x="82" y="1538" on="1"/>
        <pt x="82" y="1564" on="0"/>
        <pt x="118" y="1600" on="0"/>
        <pt x="143" y="1600" on="1"/>
        <pt x="1210" y="1600" on="1"/>
        <pt x="1236" y="1600" on="0"/>
        <pt x="1272" y="1564" on="0"/>
        <pt x="1272" y="1538" on="1"/>
        <pt x="1272" y="1513" on="0"/>
        <pt x="1236" y="1477" on="0"/>
        <pt x="1210" y="1477" on="1"/>
        <pt x="738" y="1477" on="1"/>
        <pt x="738" y="779" on="1"/>
        <pt x="1087" y="779" on="1"/>
        <pt x="1113" y="779" on="0"/>
        <pt x="1149" y="744" on="0"/>
        <pt x="1149" y="718" on="1"/>
        <pt x="1149" y="692" on="0"/>
        <pt x="1113" y="656" on="0"/>
        <pt x="1087" y="656" on="1"/>
        <pt x="738" y="656" on="1"/>
        <pt x="738" y="62" on="1"/>
        <pt x="738" y="36" on="0"/>
        <pt x="703" y="0" on="0"/>
        <pt x="677" y="0" on="1"/>
        <pt x="651" y="0" on="0"/>
        <pt x="615" y="36" on="0"/>
        <pt x="615" y="62" on="1"/>
        <pt x="615" y="656" on="1"/>
        <pt x="266" y="656" on="1"/>
        <pt x="241" y="656" on="0"/>
        <pt x="205" y="692" on="0"/>
        <pt x="205" y="718" on="1"/>
        <pt x="205" y="744" on="0"/>
        <pt x="241" y="779" on="0"/>
        <pt x="266" y="779" on="1"/>
      </contour>
    </TTGlyph>
    <TTGlyph name="Tcaron" xMin="94" yMin="0" xMax="1284" yMax="2056">
      <component glyphName="T" x="13" y="0" flags="0x200"/>
      <component glyphName="caron" x="293" y="480" flags="0x0"/>
    </TTGlyph>
    <TTGlyph name="Tcommaaccent" xMin="94" yMin="-412" xMax="1284" yMax="1600">
      <component glyphName="T" x="13" y="0" flags="0x200"/>
      <component glyphName="cedilla" x="332" y="50" flags="0x0"/>
    </TTGlyph>
    <TTGlyph name="Theta" xMin="91" yMin="0" xMax="1691" yMax="1600">
      <component glyphName="O" x="11" y="0" flags="0x200"/>
      <component glyphName="macron" x="325" y="-1069" flags="0x0"/>
    </TTGlyph>
    <TTGlyph name="Thorn" xMin="82" yMin="0" xMax="1190" yMax="1600">
      <contour>
        <pt x="82" y="1538" on="1"/>
        <pt x="82" y="1564" on="0"/>
        <pt x="118" y="1600" on="0"/>
        <pt x="144" y="1600" on="1"/>
        <pt x="170" y="1600" on="0"/>
        <pt x="205" y="1564" on="0"/>
        <pt x="205" y="1538" on="1"/>
        <pt x="205" y="1272" on="1"/>
        <pt x="718" y="1272" on="1"/>
        <pt x="914" y="1272" on="0"/>
        <pt x="1052" y="1133" on="1"/>
        <pt x="1190" y="996" on="0"/>
        <pt x="1190" y="800" on="1"/>
        <pt x="1190" y="604" on="0"/>
        <pt x="1052" y="466" on="1"/>
        <pt x="914" y="328" on="0"/>
        <pt x="718" y="328" on="1"/>
        <pt x="205" y="328" on="1"/>
        <pt x="205" y="62" on="1"/>
        <pt x="205" y="36" on="0"/>
        <pt x="170" y="0" on="0"/>
        <pt x="144" y="0" on="1"/>
        <pt x="118" y="0" on="0"/>
        <pt x="82" y="36" on="0"/>
        <pt x="82" y="62" on="1"/>
      </contour>
      <contour>
        <pt x="718" y="451" on="1"/>
        <pt x="863" y="451" on="0"/>
        <pt x="964" y="553" on="1"/>
        <pt x="1067" y="656" on="0"/>
        <pt x="1067" y="800" on="1"/>
        <pt x="1067" y="944" on="0"/>
        <pt x="964" y="1046" on="1"/>
        <pt x="864" y="1149" on="0"/>
        <pt x="718" y="1149" on="1"/>
        <pt x="205" y="1149" on="1"/>
        <pt x="205" y="451" on="1"/>
      </contour>
    </TTGlyph>
    <TTGlyph name="U" xMin="81" yMin="0" xMax="1189" yMax="1600">
      <contour>
        <pt x="81" y="1538" on="1"/>
        <pt x="81" y="1564" on="0"/>
        <pt x="117" y="1600" on="0"/>
        <pt x="143" y="1600" on="1"/>
        <pt x="169" y="1600" on="0"/>
        <pt x="204" y="1564" on="0"/>
        <pt x="204" y="1538" on="1"/>
        <pt x="204" y="554" on="1"/>
        <pt x="204" y="375" on="0"/>
        <pt x="331" y="249" on="1"/>
        <pt x="457" y="123" on="0"/>
        <pt x="635" y="123" on="1"/>
        <pt x="814" y="123" on="0"/>
        <pt x="940" y="249" on="1"/>
        <pt x="1066" y="375" on="0"/>
        <pt x="1066" y="554" on="1"/>
        <pt x="1066" y="1538" on="1"/>
        <pt x="1066" y="1564" on="0"/>
        <pt x="1102" y="1600" on="0"/>
        <pt x="1128" y="1600" on="1"/>
        <pt x="1153" y="1600" on="0"/>
        <pt x="1189" y="1564" on="0"/>
        <pt x="1189" y="1538" on="1"/>
        <pt x="1189" y="554" on="1"/>
        <pt x="1189" y="324" on="0"/>
        <pt x="1027" y="162" on="1"/>
        <pt x="865" y="0" on="0"/>
        <pt x="635" y="0" on="1"/>
        <pt x="405" y="0" on="0"/>
        <pt x="243" y="162" on="1"/>
        <pt x="162" y="243" on="0"/>
        <pt x="81" y="438" on="0"/>
        <pt x="81" y="554" on="1"/>
      </contour>
    </TTGlyph>
    <TTGlyph name="Uacute" xMin="94" yMin="0" xMax="1202" yMax="2079">
      <component glyphName="U" x="13" y="0" flags="0x200"/>
      <component glyphName="acute" x="440" y="480" flags="0x0"/>
    </TTGlyph>
    <TTGlyph name="Ubreve" xMin="94" yMin="0" xMax="1202" yMax="2056">
      <component glyphName="U" x="13" y="0" flags="0x200"/>
      <component glyphName="breve" x="259" y="480" flags="0x0"/>
    </TTGlyph>
    <TTGlyph name="Ucircumflex" xMin="94" yMin="0" xMax="1202" yMax="2056">
      <component glyphName="U" x="13" y="0" flags="0x200"/>
      <component glyphName="circumflex" x="253" y="480" flags="0x0"/>
    </TTGlyph>
    <TTGlyph name="Udieresis" xMin="94" yMin="0" xMax="1202" yMax="1953">
      <component glyphName="U" x="13" y="0" flags="0x200"/>
      <component glyphName="dieresis" x="174" y="480" flags="0x0"/>
    </TTGlyph>
    <TTGlyph name="Ugrave" xMin="94" yMin="0" xMax="1202" yMax="2081">
      <component glyphName="U" x="13" y="0" flags="0x200"/>
      <component glyphName="grave" x="306" y="480" flags="0x0"/>
    </TTGlyph>
    <TTGlyph name="Uhungarumlaut" xMin="94" yMin="0" xMax="1202" yMax="2080">
      <component glyphName="U" x="13" y="0" flags="0x200"/>
      <component glyphName="hungarumlaut" x="293" y="480" flags="0x0"/>
    </TTGlyph>
    <TTGlyph name="Umacron" xMin="94" yMin="0" xMax="1202" yMax="1886">
      <component glyphName="U" x="13" y="0" flags="0x200"/>
      <component glyphName="uni02C9" x="253" y="480" flags="0x0"/>
    </TTGlyph>
    <TTGlyph name="Uogonek" xMin="94" yMin="-469" xMax="1202" yMax="1600">
      <component glyphName="U" x="13" y="0" flags="0x200"/>
      <component glyphName="ogonek" x="333" y="3" flags="0x0"/>
    </TTGlyph>
    <TTGlyph name="Upsilon" xMin="94" yMin="0" xMax="1202" yMax="1600">
      <component glyphName="Y" x="13" y="0" flags="0x200"/>
    </TTGlyph>
    <TTGlyph name="Upsilondieresis" xMin="94" yMin="0" xMax="1202" yMax="1953">
      <contour>
        <pt x="710" y="62" on="1"/>
        <pt x="710" y="36" on="0"/>
        <pt x="674" y="0" on="0"/>
        <pt x="648" y="0" on="1"/>
        <pt x="622" y="0" on="0"/>
        <pt x="587" y="36" on="0"/>
        <pt x="587" y="62" on="1"/>
        <pt x="587" y="782" on="1"/>
        <pt x="104" y="1504" on="1"/>
        <pt x="94" y="1520" on="0"/>
        <pt x="94" y="1538" on="1"/>
        <pt x="94" y="1564" on="0"/>
        <pt x="130" y="1600" on="0"/>
        <pt x="156" y="1600" on="1"/>
        <pt x="186" y="1600" on="0"/>
        <pt x="205" y="1575" on="1"/>
        <pt x="648" y="911" on="1"/>
        <pt x="1091" y="1575" on="1"/>
        <pt x="1109" y="1600" on="0"/>
        <pt x="1141" y="1600" on="1"/>
        <pt x="1166" y="1600" on="0"/>
        <pt x="1202" y="1564" on="0"/>
        <pt x="1202" y="1538" on="1"/>
        <pt x="1202" y="1518" on="0"/>
        <pt x="1192" y="1504" on="1"/>
        <pt x="710" y="782" on="1"/>
      </contour>
      <contour>
        <pt x="482" y="1870" on="1"/>
        <pt x="482" y="1835" on="0"/>
        <pt x="434" y="1787" on="0"/>
        <pt x="399" y="1787" on="1"/>
        <pt x="364" y="1787" on="0"/>
        <pt x="316" y="1835" on="0"/>
        <pt x="316" y="1870" on="1"/>
        <pt x="316" y="1904" on="0"/>
        <pt x="364" y="1953" on="0"/>
        <pt x="399" y="1953" on="1"/>
        <pt x="434" y="1953" on="0"/>
        <pt x="482" y="1904" on="0"/>
      </contour>
      <contour>
        <pt x="980" y="1870" on="1"/>
        <pt x="980" y="1835" on="0"/>
        <pt x="931" y="1787" on="0"/>
        <pt x="897" y="1787" on="1"/>
        <pt x="862" y="1787" on="0"/>
        <pt x="814" y="1835" on="0"/>
        <pt x="814" y="1870" on="1"/>
        <pt x="814" y="1904" on="0"/>
        <pt x="862" y="1953" on="0"/>
        <pt x="897" y="1953" on="1"/>
        <pt x="931" y="1953" on="0"/>
        <pt x="980" y="1904" on="0"/>
      </contour>
    </TTGlyph>
    <TTGlyph name="Upsilontonos" xMin="-40" yMin="0" xMax="1558" yMax="1600">
      <contour>
        <pt x="64" y="1241" on="1"/>
        <pt x="47" y="1225" on="0"/>
        <pt x="22" y="1225" on="1"/>
        <pt x="-4" y="1225" on="0"/>
        <pt x="-40" y="1262" on="0"/>
        <pt x="-40" y="1288" on="1"/>
        <pt x="-40" y="1313" on="0"/>
        <pt x="-26" y="1329" on="1"/>
        <pt x="226" y="1581" on="1"/>
        <pt x="244" y="1599" on="0"/>
        <pt x="271" y="1599" on="1"/>
        <pt x="297" y="1599" on="0"/>
        <pt x="333" y="1563" on="0"/>
        <pt x="333" y="1537" on="1"/>
        <pt x="333" y="1525" on="0"/>
        <pt x="325" y="1502" on="0"/>
        <pt x="316" y="1493" on="1"/>
      </contour>
      <contour>
        <pt x="1066" y="62" on="1"/>
        <pt x="1066" y="36" on="0"/>
        <pt x="1030" y="0" on="0"/>
        <pt x="1004" y="0" on="1"/>
        <pt x="978" y="0" on="0"/>
        <pt x="943" y="36" on="0"/>
        <pt x="943" y="62" on="1"/>
        <pt x="943" y="782" on="1"/>
        <pt x="460" y="1504" on="1"/>
        <pt x="450" y="1520" on="0"/>
        <pt x="450" y="1538" on="1"/>
        <pt x="450" y="1564" on="0"/>
        <pt x="486" y="1600" on="0"/>
        <pt x="512" y="1600" on="1"/>
        <pt x="542" y="1600" on="0"/>
        <pt x="561" y="1575" on="1"/>
        <pt x="1004" y="911" on="1"/>
        <pt x="1447" y="1575" on="1"/>
        <pt x="1465" y="1600" on="0"/>
        <pt x="1497" y="1600" on="1"/>
        <pt x="1522" y="1600" on="0"/>
        <pt x="1558" y="1564" on="0"/>
        <pt x="1558" y="1538" on="1"/>
        <pt x="1558" y="1518" on="0"/>
        <pt x="1548" y="1504" on="1"/>
        <pt x="1066" y="782" on="1"/>
      </contour>
    </TTGlyph>
    <TTGlyph name="Uring" xMin="94" yMin="0" xMax="1202" yMax="2080">
      <component glyphName="U" x="13" y="0" flags="0x200"/>
      <component glyphName="ring" x="372" y="480" flags="0x0"/>
    </TTGlyph>
    <TTGlyph name="Utilde" xMin="94" yMin="0" xMax="1202" yMax="2004">
      <component glyphName="U" x="13" y="0" flags="0x200"/>
      <component glyphName="tilde" x="177" y="480" flags="0x0"/>
    </TTGlyph>
    <TTGlyph name="V" xMin="80" yMin="0" xMax="1352" yMax="1600">
      <contour>
        <pt x="760" y="18" on="1"/>
        <pt x="742" y="0" on="0"/>
        <pt x="716" y="0" on="1"/>
        <pt x="689" y="0" on="0"/>
        <pt x="673" y="18" on="1"/>
        <pt x="667" y="25" on="0"/>
        <pt x="661" y="38" on="1"/>
        <pt x="89" y="1499" on="1"/>
        <pt x="80" y="1522" on="0"/>
        <pt x="80" y="1538" on="1"/>
        <pt x="80" y="1564" on="0"/>
        <pt x="116" y="1600" on="0"/>
        <pt x="142" y="1600" on="1"/>
        <pt x="185" y="1600" on="0"/>
        <pt x="198" y="1565" on="1"/>
        <pt x="716" y="231" on="1"/>
        <pt x="1235" y="1566" on="1"/>
        <pt x="1247" y="1600" on="0"/>
        <pt x="1291" y="1600" on="1"/>
        <pt x="1316" y="1600" on="0"/>
        <pt x="1352" y="1564" on="0"/>
        <pt x="1352" y="1538" on="1"/>
        <pt x="1352" y="1521" on="0"/>
        <pt x="1343" y="1499" on="1"/>
        <pt x="772" y="38" on="1"/>
        <pt x="767" y="25" on="0"/>
      </contour>
    </TTGlyph>
    <TTGlyph name="W" xMin="77" yMin="0" xMax="1841" yMax="1600">
      <contour>
        <pt x="916" y="1583" on="1"/>
        <pt x="935" y="1600" on="0"/>
        <pt x="959" y="1600" on="1"/>
        <pt x="985" y="1600" on="0"/>
        <pt x="1003" y="1583" on="1"/>
        <pt x="1013" y="1572" on="0"/>
        <pt x="1018" y="1559" on="1"/>
        <pt x="1370" y="293" on="1"/>
        <pt x="1721" y="1559" on="1"/>
        <pt x="1726" y="1573" on="0"/>
        <pt x="1737" y="1584" on="1"/>
        <pt x="1754" y="1600" on="0"/>
        <pt x="1780" y="1600" on="1"/>
        <pt x="1806" y="1600" on="0"/>
        <pt x="1841" y="1564" on="0"/>
        <pt x="1841" y="1538" on="1"/>
        <pt x="1841" y="1525" on="0"/>
        <pt x="1836" y="1508" on="1"/>
        <pt x="1434" y="54" on="1"/>
        <pt x="1428" y="32" on="0"/>
        <pt x="1414" y="18" on="1"/>
        <pt x="1394" y="0" on="0"/>
        <pt x="1370" y="0" on="1"/>
        <pt x="1344" y="0" on="0"/>
        <pt x="1326" y="18" on="1"/>
        <pt x="1312" y="33" on="0"/>
        <pt x="1306" y="53" on="1"/>
        <pt x="959" y="1305" on="1"/>
        <pt x="614" y="54" on="1"/>
        <pt x="607" y="33" on="0"/>
        <pt x="593" y="18" on="1"/>
        <pt x="574" y="0" on="0"/>
        <pt x="549" y="0" on="1"/>
        <pt x="524" y="0" on="0"/>
        <pt x="506" y="18" on="1"/>
        <pt x="491" y="33" on="0"/>
        <pt x="485" y="53" on="1"/>
        <pt x="82" y="1508" on="1"/>
        <pt x="77" y="1525" on="0"/>
        <pt x="77" y="1538" on="1"/>
        <pt x="77" y="1564" on="0"/>
        <pt x="113" y="1600" on="0"/>
        <pt x="139" y="1600" on="1"/>
        <pt x="165" y="1600" on="0"/>
        <pt x="183" y="1583" on="1"/>
        <pt x="193" y="1572" on="0"/>
        <pt x="197" y="1559" on="1"/>
        <pt x="549" y="293" on="1"/>
        <pt x="901" y="1560" on="1"/>
        <pt x="904" y="1571" on="0"/>
      </contour>
    </TTGlyph>
    <TTGlyph name="Wacute" xMin="90" yMin="0" xMax="1854" yMax="2079">
      <component glyphName="W" x="13" y="0" flags="0x200"/>
      <component glyphName="acute" x="760" y="480" flags="0x0"/>
    </TTGlyph>
    <TTGlyph name="Wcircumflex" xMin="90" yMin="0" xMax="1854" yMax="2056">
      <component glyphName="W" x="13" y="0" flags="0x200"/>
      <component glyphName="circumflex" x="573" y="480" flags="0x0"/>
    </TTGlyph>
    <TTGlyph name="Wdieresis" xMin="90" yMin="0" xMax="1854" yMax="1953">
      <component glyphName="W" x="13" y="0" flags="0x200"/>
      <component glyphName="dieresis" x="494" y="480" flags="0x0"/>
    </TTGlyph>
    <TTGlyph name="Wgrave" xMin="90" yMin="0" xMax="1854" yMax="2081">
      <component glyphName="W" x="13" y="0" flags="0x200"/>
      <component glyphName="grave" x="626" y="480" flags="0x0"/>
    </TTGlyph>
    <TTGlyph name="X" xMin="80" yMin="0" xMax="1352" yMax="1600">
      <contour>
        <pt x="716" y="901" on="1"/>
        <pt x="1239" y="1573" on="1"/>
        <pt x="1262" y="1600" on="0"/>
        <pt x="1291" y="1600" on="1"/>
        <pt x="1316" y="1600" on="0"/>
        <pt x="1352" y="1564" on="0"/>
        <pt x="1352" y="1538" on="1"/>
        <pt x="1352" y="1518" on="0"/>
        <pt x="1342" y="1503" on="1"/>
        <pt x="795" y="800" on="1"/>
        <pt x="1339" y="101" on="1"/>
        <pt x="1352" y="85" on="0"/>
        <pt x="1352" y="62" on="1"/>
        <pt x="1352" y="36" on="0"/>
        <pt x="1316" y="0" on="0"/>
        <pt x="1291" y="0" on="1"/>
        <pt x="1262" y="0" on="0"/>
        <pt x="1244" y="21" on="1"/>
        <pt x="716" y="698" on="1"/>
        <pt x="188" y="21" on="1"/>
        <pt x="171" y="0" on="0"/>
        <pt x="142" y="0" on="1"/>
        <pt x="116" y="0" on="0"/>
        <pt x="80" y="36" on="0"/>
        <pt x="80" y="62" on="1"/>
        <pt x="80" y="84" on="0"/>
        <pt x="94" y="101" on="1"/>
        <pt x="637" y="800" on="1"/>
        <pt x="91" y="1504" on="1"/>
        <pt x="80" y="1517" on="0"/>
        <pt x="80" y="1538" on="1"/>
        <pt x="80" y="1564" on="0"/>
        <pt x="116" y="1600" on="0"/>
        <pt x="142" y="1600" on="1"/>
        <pt x="172" y="1600" on="0"/>
        <pt x="193" y="1573" on="1"/>
      </contour>
    </TTGlyph>
    <TTGlyph name="Xi" xMin="82" yMin="0" xMax="1190" yMax="1600">
      <contour>
        <pt x="1129" y="1600" on="1"/>
        <pt x="1154" y="1600" on="0"/>
        <pt x="1190" y="1564" on="0"/>
        <pt x="1190" y="1538" on="1"/>
        <pt x="1190" y="1513" on="0"/>
        <pt x="1154" y="1477" on="0"/>
        <pt x="1129" y="1477" on="1"/>
        <pt x="144" y="1477" on="1"/>
        <pt x="118" y="1477" on="0"/>
        <pt x="82" y="1513" on="0"/>
        <pt x="82" y="1538" on="1"/>
        <pt x="82" y="1564" on="0"/>
        <pt x="118" y="1600" on="0"/>
        <pt x="144" y="1600" on="1"/>
      </contour>
      <contour>
        <pt x="1129" y="123" on="1"/>
        <pt x="1154" y="123" on="0"/>
        <pt x="1190" y="87" on="0"/>
        <pt x="1190" y="62" on="1"/>
        <pt x="1190" y="36" on="0"/>
        <pt x="1154" y="0" on="0"/>
        <pt x="1129" y="0" on="1"/>
        <pt x="144" y="0" on="1"/>
        <pt x="118" y="0" on="0"/>
        <pt x="82" y="36" on="0"/>
        <pt x="82" y="62" on="1"/>
        <pt x="82" y="87" on="0"/>
        <pt x="118" y="123" on="0"/>
        <pt x="144" y="123" on="1"/>
      </contour>
      <contour>
        <pt x="201" y="860" on="0"/>
        <pt x="227" y="862" on="1"/>
        <pt x="1046" y="862" on="1"/>
        <pt x="1072" y="862" on="0"/>
        <pt x="1108" y="826" on="0"/>
        <pt x="1108" y="800" on="1"/>
        <pt x="1108" y="774" on="0"/>
        <pt x="1072" y="738" on="0"/>
        <pt x="1046" y="738" on="1"/>
        <pt x="226" y="738" on="1"/>
        <pt x="203" y="739" on="0"/>
        <pt x="166" y="774" on="0"/>
        <pt x="166" y="800" on="1"/>
        <pt x="166" y="825" on="0"/>
      </contour>
    </TTGlyph>
    <TTGlyph name="Y" xMin="81" yMin="0" xMax="1189" yMax="1600">
      <contour>
        <pt x="697" y="62" on="1"/>
        <pt x="697" y="36" on="0"/>
        <pt x="661" y="0" on="0"/>
        <pt x="635" y="0" on="1"/>
        <pt x="609" y="0" on="0"/>
        <pt x="574" y="36" on="0"/>
        <pt x="574" y="62" on="1"/>
        <pt x="574" y="782" on="1"/>
        <pt x="91" y="1504" on="1"/>
        <pt x="81" y="1520" on="0"/>
        <pt x="81" y="1538" on="1"/>
        <pt x="81" y="1564" on="0"/>
        <pt x="117" y="1600" on="0"/>
        <pt x="143" y="1600" on="1"/>
        <pt x="173" y="1600" on="0"/>
        <pt x="192" y="1575" on="1"/>
        <pt x="635" y="911" on="1"/>
        <pt x="1078" y="1575" on="1"/>
        <pt x="1096" y="1600" on="0"/>
        <pt x="1128" y="1600" on="1"/>
        <pt x="1153" y="1600" on="0"/>
        <pt x="1189" y="1564" on="0"/>
        <pt x="1189" y="1538" on="1"/>
        <pt x="1189" y="1518" on="0"/>
        <pt x="1179" y="1504" on="1"/>
        <pt x="697" y="782" on="1"/>
      </contour>
    </TTGlyph>
    <TTGlyph name="Yacute" xMin="94" yMin="0" xMax="1202" yMax="2079">
      <component glyphName="Y" x="13" y="0" flags="0x200"/>
      <component glyphName="acute" x="440" y="480" flags="0x0"/>
    </TTGlyph>
    <TTGlyph name="Ycircumflex" xMin="94" yMin="0" xMax="1202" yMax="2056">
      <component glyphName="Y" x="13" y="0" flags="0x200"/>
      <component glyphName="circumflex" x="253" y="480" flags="0x0"/>
    </TTGlyph>
    <TTGlyph name="Ydieresis" xMin="94" yMin="0" xMax="1202" yMax="1953">
      <component glyphName="Y" x="13" y="0" flags="0x200"/>
      <component glyphName="dieresis" x="174" y="480" flags="0x0"/>
    </TTGlyph>
    <TTGlyph name="Ygrave" xMin="94" yMin="0" xMax="1202" yMax="2081">
      <component glyphName="Y" x="13" y="0" flags="0x200"/>
      <component glyphName="grave" x="306" y="480" flags="0x0"/>
    </TTGlyph>
    <TTGlyph name="Z" xMin="80" yMin="0" xMax="1352" yMax="1600">
      <contour>
        <pt x="142" y="1477" on="1"/>
        <pt x="116" y="1477" on="0"/>
        <pt x="80" y="1513" on="0"/>
        <pt x="80" y="1538" on="1"/>
        <pt x="80" y="1564" on="0"/>
        <pt x="116" y="1600" on="0"/>
        <pt x="142" y="1600" on="1"/>
        <pt x="1291" y="1600" on="1"/>
        <pt x="1316" y="1600" on="0"/>
        <pt x="1352" y="1564" on="0"/>
        <pt x="1352" y="1538" on="1"/>
        <pt x="1352" y="1518" on="0"/>
        <pt x="1342" y="1504" on="1"/>
        <pt x="268" y="123" on="1"/>
        <pt x="1291" y="123" on="1"/>
        <pt x="1316" y="123" on="0"/>
        <pt x="1352" y="87" on="0"/>
        <pt x="1352" y="62" on="1"/>
        <pt x="1352" y="36" on="0"/>
        <pt x="1316" y="0" on="0"/>
        <pt x="1291" y="0" on="1"/>
        <pt x="142" y="0" on="1"/>
        <pt x="116" y="0" on="0"/>
        <pt x="80" y="36" on="0"/>
        <pt x="80" y="62" on="1"/>
        <pt x="80" y="82" on="0"/>
        <pt x="94" y="101" on="1"/>
        <pt x="1164" y="1477" on="1"/>
      </contour>
    </TTGlyph>
    <TTGlyph name="Zacute" xMin="93" yMin="0" xMax="1365" yMax="2079">
      <component glyphName="Z" x="13" y="0" flags="0x200"/>
      <component glyphName="acute" x="520" y="480" flags="0x0"/>
    </TTGlyph>
    <TTGlyph name="Zcaron" xMin="93" yMin="0" xMax="1365" yMax="2056">
      <component glyphName="Z" x="13" y="0" flags="0x200"/>
      <component glyphName="caron" x="333" y="480" flags="0x0"/>
    </TTGlyph>
    <TTGlyph name="Zdotaccent" xMin="93" yMin="0" xMax="1365" yMax="1974">
      <component glyphName="Z" x="13" y="0" flags="0x200"/>
      <component glyphName="dotaccent" x="533" y="480" flags="0x0"/>
    </TTGlyph>
    <TTGlyph name="Zeta" xMin="93" yMin="0" xMax="1365" yMax="1600">
      <component glyphName="Z" x="13" y="0" flags="0x200"/>
    </TTGlyph>
    <TTGlyph name="a" xMin="80" yMin="0" xMax="1200" yMax="1120">
      <contour>
        <pt x="640" y="996" on="1"/>
        <pt x="460" y="996" on="0"/>
        <pt x="332" y="868" on="1"/>
        <pt x="204" y="740" on="0"/>
        <pt x="204" y="560" on="1"/>
        <pt x="204" y="380" on="0"/>
        <pt x="332" y="252" on="1"/>
        <pt x="460" y="124" on="0"/>
        <pt x="640" y="124" on="1"/>
        <pt x="820" y="124" on="0"/>
        <pt x="948" y="252" on="1"/>
        <pt x="1075" y="379" on="0"/>
        <pt x="1075" y="560" on="1"/>
        <pt x="1075" y="741" on="0"/>
        <pt x="948" y="868" on="1"/>
        <pt x="820" y="996" on="0"/>
      </contour>
      <contour>
        <pt x="1075" y="203" on="1"/>
        <pt x="873" y="0" on="0"/>
        <pt x="640" y="0" on="1"/>
        <pt x="408" y="0" on="0"/>
        <pt x="244" y="164" on="1"/>
        <pt x="80" y="328" on="0"/>
        <pt x="80" y="560" on="1"/>
        <pt x="80" y="792" on="0"/>
        <pt x="244" y="956" on="1"/>
        <pt x="408" y="1120" on="0"/>
        <pt x="640" y="1120" on="1"/>
        <pt x="872" y="1120" on="0"/>
        <pt x="1036" y="956" on="1"/>
        <pt x="1200" y="792" on="0"/>
        <pt x="1200" y="560" on="1"/>
        <pt x="1200" y="62" on="1"/>
        <pt x="1200" y="36" on="0"/>
        <pt x="1164" y="0" on="0"/>
        <pt x="1138" y="0" on="1"/>
        <pt x="1112" y="0" on="0"/>
        <pt x="1075" y="36" on="0"/>
        <pt x="1075" y="62" on="1"/>
      </contour>
    </TTGlyph>
    <TTGlyph name="aacute" xMin="92" yMin="0" xMax="1212" yMax="1599">
      <component glyphName="a" x="12" y="0" flags="0x200"/>
      <component glyphName="acute" x="392" y="0" flags="0x0"/>
    </TTGlyph>
    <TTGlyph name="abreve" xMin="92" yMin="0" xMax="1212" yMax="1576">
      <component glyphName="a" x="12" y="0" flags="0x200"/>
      <component glyphName="breve" x="258" y="0" flags="0x0"/>
    </TTGlyph>
    <TTGlyph name="acircumflex" xMin="92" yMin="0" xMax="1212" yMax="1576">
      <component glyphName="a" x="12" y="0" flags="0x200"/>
      <component glyphName="circumflex" x="252" y="0" flags="0x0"/>
    </TTGlyph>
    <TTGlyph name="acute" xMin="87" yMin="1225" xMax="460" yMax="1599">
      <contour>
        <pt x="191" y="1241" on="1"/>
        <pt x="174" y="1225" on="0"/>
        <pt x="149" y="1225" on="1"/>
        <pt x="123" y="1225" on="0"/>
        <pt x="87" y="1262" on="0"/>
        <pt x="87" y="1288" on="1"/>
        <pt x="87" y="1313" on="0"/>
        <pt x="101" y="1329" on="1"/>
        <pt x="353" y="1581" on="1"/>
        <pt x="371" y="1599" on="0"/>
        <pt x="398" y="1599" on="1"/>
        <pt x="424" y="1599" on="0"/>
        <pt x="460" y="1563" on="0"/>
        <pt x="460" y="1537" on="1"/>
        <pt x="460" y="1525" on="0"/>
        <pt x="452" y="1502" on="0"/>
        <pt x="443" y="1493" on="1"/>
      </contour>
    </TTGlyph>
    <TTGlyph name="adieresis" xMin="92" yMin="0" xMax="1212" yMax="1473">
      <component glyphName="a" x="12" y="0" flags="0x200"/>
      <component glyphName="dieresis" x="173" y="0" flags="0x0"/>
    </TTGlyph>
    <TTGlyph name="ae" xMin="71" yMin="0" xMax="2187" yMax="1120">
      <contour>
        <pt x="631" y="996" on="1"/>
        <pt x="451" y="996" on="0"/>
        <pt x="323" y="868" on="1"/>
        <pt x="195" y="740" on="0"/>
        <pt x="195" y="560" on="1"/>
        <pt x="195" y="380" on="0"/>
        <pt x="323" y="252" on="1"/>
        <pt x="451" y="124" on="0"/>
        <pt x="631" y="124" on="1"/>
        <pt x="811" y="124" on="0"/>
        <pt x="939" y="252" on="1"/>
        <pt x="1067" y="380" on="0"/>
        <pt x="1067" y="560" on="1"/>
        <pt x="1067" y="740" on="0"/>
        <pt x="939" y="868" on="1"/>
        <pt x="811" y="996" on="0"/>
      </contour>
      <contour>
        <pt x="2060" y="622" on="1"/>
        <pt x="2030" y="773" on="0"/>
        <pt x="1935" y="868" on="1"/>
        <pt x="1805" y="996" on="0"/>
        <pt x="1627" y="996" on="1"/>
        <pt x="1447" y="996" on="0"/>
        <pt x="1319" y="868" on="1"/>
        <pt x="1269" y="819" on="0"/>
        <pt x="1208" y="697" on="0"/>
        <pt x="1193" y="622" on="1"/>
      </contour>
      <contour>
        <pt x="1191" y="62" on="1"/>
        <pt x="1191" y="36" on="0"/>
        <pt x="1155" y="0" on="0"/>
        <pt x="1129" y="0" on="1"/>
        <pt x="1103" y="0" on="0"/>
        <pt x="1067" y="36" on="0"/>
        <pt x="1067" y="62" on="1"/>
        <pt x="1067" y="203" on="1"/>
        <pt x="864" y="0" on="0"/>
        <pt x="631" y="0" on="1"/>
        <pt x="399" y="0" on="0"/>
        <pt x="235" y="164" on="1"/>
        <pt x="71" y="328" on="0"/>
        <pt x="71" y="560" on="1"/>
        <pt x="71" y="792" on="0"/>
        <pt x="235" y="956" on="1"/>
        <pt x="399" y="1120" on="0"/>
        <pt x="631" y="1120" on="1"/>
        <pt x="863" y="1120" on="0"/>
        <pt x="1027" y="956" on="1"/>
        <pt x="1074" y="909" on="0"/>
        <pt x="1129" y="822" on="1"/>
        <pt x="1155" y="864" on="0"/>
        <pt x="1205" y="931" on="0"/>
        <pt x="1230" y="956" on="1"/>
        <pt x="1394" y="1120" on="0"/>
        <pt x="1627" y="1120" on="1"/>
        <pt x="1859" y="1120" on="0"/>
        <pt x="2023" y="956" on="1"/>
        <pt x="2187" y="792" on="0"/>
        <pt x="2187" y="560" on="1"/>
        <pt x="2187" y="534" on="0"/>
        <pt x="2150" y="498" on="0"/>
        <pt x="2124" y="498" on="1"/>
        <pt x="1193" y="498" on="1"/>
        <pt x="1223" y="346" on="0"/>
        <pt x="1319" y="252" on="1"/>
        <pt x="1447" y="124" on="0"/>
        <pt x="1627" y="124" on="1"/>
        <pt x="1708" y="124" on="0"/>
        <pt x="1849" y="177" on="0"/>
        <pt x="1907" y="227" on="1"/>
        <pt x="1924" y="241" on="0"/>
        <pt x="1946" y="241" on="1"/>
        <pt x="1972" y="241" on="0"/>
        <pt x="2008" y="204" on="0"/>
        <pt x="2008" y="178" on="1"/>
        <pt x="2008" y="150" on="0"/>
        <pt x="1992" y="135" on="1"/>
        <pt x="1836" y="0" on="0"/>
        <pt x="1627" y="0" on="1"/>
        <pt x="1394" y="0" on="0"/>
        <pt x="1191" y="203" on="1"/>
      </contour>
    </TTGlyph>
    <TTGlyph name="aeacute" xMin="71" yMin="0" xMax="2187" yMax="1599">
      <component glyphName="ae" x="0" y="0" flags="0x200"/>
      <component glyphName="acute" x="907" y="0" flags="0x0"/>
    </TTGlyph>
    <TTGlyph name="afii00208" xMin="-88" yMin="498" xMax="1530" yMax="622">
      <contour>
        <pt x="-25" y="498" on="1"/>
        <pt x="-51" y="498" on="0"/>
        <pt x="-88" y="534" on="0"/>
        <pt x="-88" y="560" on="1"/>
        <pt x="-88" y="586" on="0"/>
        <pt x="-51" y="622" on="0"/>
        <pt x="-25" y="622" on="1"/>
        <pt x="1468" y="622" on="1"/>
        <pt x="1494" y="622" on="0"/>
        <pt x="1530" y="586" on="0"/>
        <pt x="1530" y="560" on="1"/>
        <pt x="1530" y="534" on="0"/>
        <pt x="1494" y="498" on="0"/>
        <pt x="1468" y="498" on="1"/>
      </contour>
    </TTGlyph>
    <TTGlyph name="afii10017" xMin="93" yMin="0" xMax="1365" yMax="1600">
      <component glyphName="A" x="13" y="0" flags="0x200"/>
    </TTGlyph>
    <TTGlyph name="afii10018" xMin="83" yMin="0" xMax="1027" yMax="1600">
      <contour>
        <pt x="555" y="123" on="1"/>
        <pt x="700" y="123" on="0"/>
        <pt x="801" y="225" on="1"/>
        <pt x="904" y="327" on="0"/>
        <pt x="904" y="472" on="1"/>
        <pt x="904" y="616" on="0"/>
        <pt x="801" y="718" on="1"/>
        <pt x="701" y="821" on="0"/>
        <pt x="555" y="821" on="1"/>
        <pt x="206" y="821" on="1"/>
        <pt x="206" y="123" on="1"/>
      </contour>
      <contour>
        <pt x="555" y="944" on="1"/>
        <pt x="750" y="944" on="0"/>
        <pt x="889" y="805" on="1"/>
        <pt x="1027" y="668" on="0"/>
        <pt x="1027" y="472" on="1"/>
        <pt x="1027" y="276" on="0"/>
        <pt x="889" y="137" on="1"/>
        <pt x="750" y="0" on="0"/>
        <pt x="555" y="0" on="1"/>
        <pt x="145" y="0" on="1"/>
        <pt x="119" y="0" on="0"/>
        <pt x="83" y="36" on="0"/>
        <pt x="83" y="62" on="1"/>
        <pt x="83" y="1538" on="1"/>
        <pt x="83" y="1564" on="0"/>
        <pt x="119" y="1600" on="0"/>
        <pt x="145" y="1600" on="1"/>
        <pt x="801" y="1600" on="1"/>
        <pt x="827" y="1600" on="0"/>
        <pt x="863" y="1564" on="0"/>
        <pt x="863" y="1538" on="1"/>
        <pt x="863" y="1513" on="0"/>
        <pt x="827" y="1477" on="0"/>
        <pt x="801" y="1477" on="1"/>
        <pt x="206" y="1477" on="1"/>
        <pt x="206" y="944" on="1"/>
      </contour>
    </TTGlyph>
    <TTGlyph name="afii10019" xMin="95" yMin="0" xMax="1039" yMax="1600">
      <component glyphName="B" x="15" y="0" flags="0x200"/>
    </TTGlyph>
    <TTGlyph name="afii10020" xMin="83" yMin="0" xMax="1109" yMax="1600">
      <contour>
        <pt x="83" y="1537" on="1"/>
        <pt x="83" y="1564" on="0"/>
        <pt x="120" y="1600" on="0"/>
        <pt x="145" y="1600" on="1"/>
        <pt x="1047" y="1600" on="1"/>
        <pt x="1073" y="1600" on="0"/>
        <pt x="1109" y="1564" on="0"/>
        <pt x="1109" y="1538" on="1"/>
        <pt x="1109" y="1513" on="0"/>
        <pt x="1073" y="1477" on="0"/>
        <pt x="1047" y="1477" on="1"/>
        <pt x="207" y="1477" on="1"/>
        <pt x="207" y="61" on="1"/>
        <pt x="206" y="36" on="0"/>
        <pt x="189" y="18" on="1"/>
        <pt x="169" y="0" on="0"/>
        <pt x="144" y="0" on="1"/>
        <pt x="119" y="0" on="0"/>
        <pt x="83" y="36" on="0"/>
        <pt x="83" y="62" on="1"/>
      </contour>
    </TTGlyph>
    <TTGlyph name="afii10021" xMin="80" yMin="-328" xMax="1516" yMax="1600">
      <contour>
        <pt x="313" y="123" on="1"/>
        <pt x="1282" y="123" on="1"/>
        <pt x="798" y="1369" on="1"/>
      </contour>
      <contour>
        <pt x="1455" y="123" on="1"/>
        <pt x="1481" y="123" on="0"/>
        <pt x="1516" y="87" on="0"/>
        <pt x="1516" y="62" on="1"/>
        <pt x="1516" y="-267" on="1"/>
        <pt x="1516" y="-293" on="0"/>
        <pt x="1481" y="-328" on="0"/>
        <pt x="1455" y="-328" on="1"/>
        <pt x="1429" y="-328" on="0"/>
        <pt x="1393" y="-293" on="0"/>
        <pt x="1393" y="-267" on="1"/>
        <pt x="1393" y="0" on="1"/>
        <pt x="203" y="0" on="1"/>
        <pt x="203" y="-267" on="1"/>
        <pt x="203" y="-293" on="0"/>
        <pt x="168" y="-328" on="0"/>
        <pt x="142" y="-328" on="1"/>
        <pt x="116" y="-328" on="0"/>
        <pt x="80" y="-293" on="0"/>
        <pt x="80" y="-267" on="1"/>
        <pt x="80" y="62" on="1"/>
        <pt x="80" y="87" on="0"/>
        <pt x="116" y="123" on="0"/>
        <pt x="142" y="123" on="1"/>
        <pt x="182" y="123" on="1"/>
        <pt x="739" y="1556" on="1"/>
        <pt x="745" y="1572" on="0"/>
        <pt x="755" y="1583" on="1"/>
        <pt x="772" y="1600" on="0"/>
        <pt x="798" y="1600" on="1"/>
        <pt x="824" y="1600" on="0"/>
        <pt x="842" y="1582" on="1"/>
        <pt x="852" y="1571" on="0"/>
        <pt x="858" y="1556" on="1"/>
        <pt x="1415" y="123" on="1"/>
      </contour>
    </TTGlyph>
    <TTGlyph name="afii10022" xMin="94" yMin="0" xMax="1202" yMax="1600">
      <component glyphName="E" x="14" y="0" flags="0x200"/>
    </TTGlyph>
    <TTGlyph name="afii10023" xMin="94" yMin="0" xMax="1202" yMax="1953">
      <component glyphName="E" x="14" y="0" flags="0x200"/>
      <component glyphName="dieresis" x="176" y="480" flags="0x0"/>
    </TTGlyph>
    <TTGlyph name="afii10024" xMin="77" yMin="0" xMax="2005" yMax="1600">
      <contour>
        <pt x="1889" y="31" on="1"/>
        <pt x="1310" y="816" on="1"/>
        <pt x="1103" y="609" on="1"/>
        <pt x="1103" y="62" on="1"/>
        <pt x="1103" y="36" on="0"/>
        <pt x="1067" y="0" on="0"/>
        <pt x="1041" y="0" on="1"/>
        <pt x="1015" y="0" on="0"/>
        <pt x="980" y="36" on="0"/>
        <pt x="980" y="62" on="1"/>
        <pt x="980" y="609" on="1"/>
        <pt x="773" y="816" on="1"/>
        <pt x="185" y="21" on="1"/>
        <pt x="169" y="0" on="0"/>
        <pt x="138" y="0" on="1"/>
        <pt x="113" y="0" on="0"/>
        <pt x="77" y="36" on="0"/>
        <pt x="77" y="61" on="1"/>
        <pt x="77" y="83" on="0"/>
        <pt x="90" y="100" on="1"/>
        <pt x="683" y="906" on="1"/>
        <pt x="96" y="1494" on="1"/>
        <pt x="77" y="1513" on="0"/>
        <pt x="77" y="1538" on="1"/>
        <pt x="77" y="1564" on="0"/>
        <pt x="113" y="1600" on="0"/>
        <pt x="139" y="1600" on="1"/>
        <pt x="166" y="1600" on="0"/>
        <pt x="185" y="1581" on="1"/>
        <pt x="980" y="786" on="1"/>
        <pt x="980" y="1538" on="1"/>
        <pt x="980" y="1564" on="0"/>
        <pt x="1015" y="1600" on="0"/>
        <pt x="1041" y="1600" on="1"/>
        <pt x="1067" y="1600" on="0"/>
        <pt x="1103" y="1564" on="0"/>
        <pt x="1103" y="1538" on="1"/>
        <pt x="1103" y="786" on="1"/>
        <pt x="1898" y="1581" on="1"/>
        <pt x="1917" y="1600" on="0"/>
        <pt x="1944" y="1600" on="1"/>
        <pt x="1970" y="1600" on="0"/>
        <pt x="2005" y="1564" on="0"/>
        <pt x="2005" y="1538" on="1"/>
        <pt x="2005" y="1513" on="0"/>
        <pt x="1987" y="1494" on="1"/>
        <pt x="1399" y="906" on="1"/>
        <pt x="1994" y="98" on="1"/>
        <pt x="2005" y="82" on="0"/>
        <pt x="2005" y="61" on="1"/>
        <pt x="2005" y="36" on="0"/>
        <pt x="1969" y="0" on="0"/>
        <pt x="1943" y="0" on="1"/>
        <pt x="1910" y="0" on="0"/>
      </contour>
    </TTGlyph>
    <TTGlyph name="afii10025" xMin="84" yMin="0" xMax="986" yMax="1600">
      <contour>
        <pt x="535" y="779" on="1"/>
        <pt x="509" y="779" on="0"/>
        <pt x="473" y="815" on="0"/>
        <pt x="473" y="841" on="1"/>
        <pt x="473" y="867" on="0"/>
        <pt x="509" y="903" on="0"/>
        <pt x="535" y="903" on="1"/>
        <pt x="655" y="903" on="0"/>
        <pt x="738" y="987" on="1"/>
        <pt x="822" y="1071" on="0"/>
        <pt x="822" y="1190" on="1"/>
        <pt x="822" y="1307" on="0"/>
        <pt x="738" y="1393" on="1"/>
        <pt x="654" y="1477" on="0"/>
        <pt x="535" y="1477" on="1"/>
        <pt x="416" y="1477" on="0"/>
        <pt x="332" y="1393" on="1"/>
        <pt x="248" y="1309" on="0"/>
        <pt x="248" y="1190" on="1"/>
        <pt x="248" y="1164" on="0"/>
        <pt x="212" y="1128" on="0"/>
        <pt x="186" y="1128" on="1"/>
        <pt x="160" y="1128" on="0"/>
        <pt x="125" y="1164" on="0"/>
        <pt x="125" y="1190" on="1"/>
        <pt x="125" y="1360" on="0"/>
        <pt x="245" y="1480" on="1"/>
        <pt x="365" y="1600" on="0"/>
        <pt x="535" y="1600" on="1"/>
        <pt x="705" y="1600" on="0"/>
        <pt x="825" y="1480" on="1"/>
        <pt x="945" y="1360" on="0"/>
        <pt x="945" y="1190" on="1"/>
        <pt x="945" y="1019" on="0"/>
        <pt x="825" y="899" on="1"/>
        <pt x="797" y="872" on="0"/>
        <pt x="760" y="845" on="1"/>
        <pt x="813" y="813" on="0"/>
        <pt x="855" y="771" on="1"/>
        <pt x="986" y="638" on="0"/>
        <pt x="986" y="451" on="1"/>
        <pt x="986" y="263" on="0"/>
        <pt x="854" y="131" on="1"/>
        <pt x="723" y="0" on="0"/>
        <pt x="535" y="0" on="1"/>
        <pt x="348" y="0" on="0"/>
        <pt x="215" y="131" on="1"/>
        <pt x="84" y="264" on="0"/>
        <pt x="84" y="451" on="1"/>
        <pt x="84" y="477" on="0"/>
        <pt x="119" y="513" on="0"/>
        <pt x="145" y="513" on="1"/>
        <pt x="171" y="513" on="0"/>
        <pt x="207" y="477" on="0"/>
        <pt x="207" y="451" on="1"/>
        <pt x="207" y="316" on="0"/>
        <pt x="303" y="219" on="1"/>
        <pt x="400" y="123" on="0"/>
        <pt x="535" y="123" on="1"/>
        <pt x="669" y="123" on="0"/>
        <pt x="767" y="219" on="1"/>
        <pt x="863" y="316" on="0"/>
        <pt x="863" y="451" on="1"/>
        <pt x="863" y="585" on="0"/>
        <pt x="767" y="683" on="1"/>
        <pt x="671" y="779" on="0"/>
      </contour>
    </TTGlyph>
    <TTGlyph name="afii10026" xMin="75" yMin="0" xMax="1347" yMax="1600">
      <component glyphName="N" x="1427" y="0" scalex="-0.999877929688" scaley="1.0" flags="0x0"/>
    </TTGlyph>
    <TTGlyph name="afii10027" xMin="75" yMin="0" xMax="1347" yMax="2056">
      <contour>
        <pt x="1224" y="1358" on="1"/>
        <pt x="182" y="18" on="1"/>
        <pt x="166" y="0" on="0"/>
        <pt x="136" y="0" on="1"/>
        <pt x="111" y="0" on="0"/>
        <pt x="75" y="36" on="0"/>
        <pt x="75" y="62" on="1"/>
        <pt x="75" y="1538" on="1"/>
        <pt x="75" y="1564" on="0"/>
        <pt x="111" y="1600" on="0"/>
        <pt x="136" y="1600" on="1"/>
        <pt x="162" y="1600" on="0"/>
        <pt x="198" y="1564" on="0"/>
        <pt x="198" y="1538" on="1"/>
        <pt x="198" y="241" on="1"/>
        <pt x="1238" y="1578" on="1"/>
        <pt x="1256" y="1600" on="0"/>
        <pt x="1285" y="1600" on="1"/>
        <pt x="1311" y="1600" on="0"/>
        <pt x="1347" y="1564" on="0"/>
        <pt x="1347" y="1538" on="1"/>
        <pt x="1347" y="62" on="1"/>
        <pt x="1347" y="36" on="0"/>
        <pt x="1311" y="0" on="0"/>
        <pt x="1285" y="0" on="1"/>
        <pt x="1259" y="0" on="0"/>
        <pt x="1224" y="36" on="0"/>
        <pt x="1224" y="62" on="1"/>
      </contour>
      <contour>
        <pt x="399" y="1994" on="1"/>
        <pt x="399" y="2020" on="0"/>
        <pt x="436" y="2056" on="0"/>
        <pt x="462" y="2056" on="1"/>
        <pt x="488" y="2056" on="0"/>
        <pt x="524" y="2020" on="0"/>
        <pt x="524" y="1994" on="1"/>
        <pt x="524" y="1947" on="0"/>
        <pt x="584" y="1916" on="1"/>
        <pt x="640" y="1890" on="0"/>
        <pt x="710" y="1890" on="1"/>
        <pt x="780" y="1890" on="0"/>
        <pt x="837" y="1916" on="1"/>
        <pt x="898" y="1946" on="0"/>
        <pt x="898" y="1994" on="1"/>
        <pt x="898" y="2020" on="0"/>
        <pt x="934" y="2056" on="0"/>
        <pt x="960" y="2056" on="1"/>
        <pt x="986" y="2056" on="0"/>
        <pt x="1022" y="2020" on="0"/>
        <pt x="1023" y="1995" on="1"/>
        <pt x="1017" y="1896" on="0"/>
        <pt x="933" y="1835" on="1"/>
        <pt x="886" y="1801" on="0"/>
        <pt x="776" y="1766" on="0"/>
        <pt x="710" y="1766" on="1"/>
        <pt x="646" y="1766" on="0"/>
        <pt x="533" y="1802" on="0"/>
        <pt x="487" y="1834" on="1"/>
        <pt x="399" y="1902" on="0"/>
      </contour>
    </TTGlyph>
    <TTGlyph name="afii10028" xMin="95" yMin="0" xMax="1121" yMax="1600">
      <component glyphName="K" x="15" y="0" flags="0x200"/>
    </TTGlyph>
    <TTGlyph name="afii10029" xMin="81" yMin="0" xMax="1353" yMax="1600">
      <component glyphName="Lambda" x="0" y="0" flags="0x200"/>
    </TTGlyph>
    <TTGlyph name="afii10030" xMin="90" yMin="0" xMax="1854" yMax="1600">
      <component glyphName="W" x="13" y="1600" scalex="1.0" scaley="-0.999877929688" flags="0x0"/>
    </TTGlyph>
    <TTGlyph name="afii10031" xMin="94" yMin="0" xMax="1202" yMax="1600">
      <component glyphName="H" x="14" y="0" flags="0x200"/>
    </TTGlyph>
    <TTGlyph name="afii10032" xMin="91" yMin="0" xMax="1691" yMax="1600">
      <component glyphName="O" x="11" y="0" flags="0x200"/>
    </TTGlyph>
    <TTGlyph name="afii10033" xMin="82" yMin="0" xMax="1190" yMax="1600">
      <contour>
        <pt x="1129" y="1600" on="1"/>
        <pt x="1154" y="1600" on="0"/>
        <pt x="1190" y="1564" on="0"/>
        <pt x="1190" y="1538" on="1"/>
        <pt x="1190" y="62" on="1"/>
        <pt x="1190" y="36" on="0"/>
        <pt x="1154" y="0" on="0"/>
        <pt x="1129" y="0" on="1"/>
        <pt x="1103" y="0" on="0"/>
        <pt x="1067" y="36" on="0"/>
        <pt x="1067" y="62" on="1"/>
        <pt x="1067" y="1477" on="1"/>
        <pt x="205" y="1477" on="1"/>
        <pt x="205" y="62" on="1"/>
        <pt x="205" y="36" on="0"/>
        <pt x="170" y="0" on="0"/>
        <pt x="144" y="0" on="1"/>
        <pt x="118" y="0" on="0"/>
        <pt x="82" y="36" on="0"/>
        <pt x="82" y="62" on="1"/>
        <pt x="82" y="1538" on="1"/>
        <pt x="82" y="1564" on="0"/>
        <pt x="118" y="1600" on="0"/>
        <pt x="144" y="1600" on="1"/>
      </contour>
    </TTGlyph>
    <TTGlyph name="afii10034" xMin="96" yMin="0" xMax="998" yMax="1600">
      <component glyphName="P" x="16" y="0" flags="0x200"/>
    </TTGlyph>
    <TTGlyph name="afii10035" xMin="93" yMin="0" xMax="1418" yMax="1600">
      <component glyphName="C" x="13" y="0" flags="0x200"/>
    </TTGlyph>
    <TTGlyph name="afii10036" xMin="94" yMin="0" xMax="1284" yMax="1600">
      <component glyphName="T" x="13" y="0" flags="0x200"/>
    </TTGlyph>
    <TTGlyph name="afii10037" xMin="81" yMin="0" xMax="1353" yMax="1600">
      <contour>
        <pt x="717" y="603" on="1"/>
        <pt x="1240" y="1572" on="1"/>
        <pt x="1255" y="1600" on="0"/>
        <pt x="1292" y="1600" on="1"/>
        <pt x="1317" y="1600" on="0"/>
        <pt x="1353" y="1564" on="0"/>
        <pt x="1353" y="1538" on="1"/>
        <pt x="1353" y="1523" on="0"/>
        <pt x="1344" y="1506" on="1"/>
        <pt x="620" y="160" on="1"/>
        <pt x="598" y="122" on="0"/>
        <pt x="566" y="90" on="1"/>
        <pt x="476" y="0" on="0"/>
        <pt x="348" y="0" on="1"/>
        <pt x="245" y="0" on="0"/>
        <pt x="171" y="55" on="1"/>
        <pt x="140" y="80" on="0"/>
        <pt x="140" y="109" on="1"/>
        <pt x="140" y="135" on="0"/>
        <pt x="175" y="170" on="0"/>
        <pt x="201" y="170" on="1"/>
        <pt x="222" y="170" on="0"/>
        <pt x="236" y="159" on="1"/>
        <pt x="284" y="123" on="0"/>
        <pt x="348" y="123" on="1"/>
        <pt x="422" y="123" on="0"/>
        <pt x="478" y="177" on="1"/>
        <pt x="502" y="201" on="0"/>
        <pt x="513" y="224" on="1"/>
        <pt x="647" y="472" on="1"/>
        <pt x="90" y="1506" on="1"/>
        <pt x="81" y="1523" on="0"/>
        <pt x="81" y="1538" on="1"/>
        <pt x="81" y="1564" on="0"/>
        <pt x="117" y="1600" on="0"/>
        <pt x="143" y="1600" on="1"/>
        <pt x="178" y="1600" on="0"/>
        <pt x="195" y="1571" on="1"/>
      </contour>
    </TTGlyph>
    <TTGlyph name="afii10038" xMin="79" yMin="0" xMax="1679" yMax="1600">
      <component glyphName="Phi" x="0" y="0" flags="0x200"/>
    </TTGlyph>
    <TTGlyph name="afii10039" xMin="93" yMin="0" xMax="1365" yMax="1600">
      <component glyphName="X" x="13" y="0" flags="0x200"/>
    </TTGlyph>
    <TTGlyph name="afii10040" xMin="81" yMin="-328" xMax="1353" yMax="1600">
      <contour>
        <pt x="143" y="0" on="1"/>
        <pt x="117" y="0" on="0"/>
        <pt x="81" y="36" on="0"/>
        <pt x="81" y="62" on="1"/>
        <pt x="81" y="1538" on="1"/>
        <pt x="81" y="1564" on="0"/>
        <pt x="117" y="1600" on="0"/>
        <pt x="143" y="1600" on="1"/>
        <pt x="169" y="1600" on="0"/>
        <pt x="204" y="1564" on="0"/>
        <pt x="204" y="1538" on="1"/>
        <pt x="204" y="123" on="1"/>
        <pt x="1066" y="123" on="1"/>
        <pt x="1066" y="1538" on="1"/>
        <pt x="1066" y="1564" on="0"/>
        <pt x="1102" y="1600" on="0"/>
        <pt x="1127" y="1600" on="1"/>
        <pt x="1153" y="1600" on="0"/>
        <pt x="1189" y="1564" on="0"/>
        <pt x="1189" y="1538" on="1"/>
        <pt x="1189" y="123" on="1"/>
        <pt x="1292" y="123" on="1"/>
        <pt x="1317" y="123" on="0"/>
        <pt x="1353" y="87" on="0"/>
        <pt x="1353" y="62" on="1"/>
        <pt x="1353" y="-34" on="0"/>
        <pt x="1314" y="-205" on="0"/>
        <pt x="1276" y="-286" on="1"/>
        <pt x="1269" y="-303" on="0"/>
        <pt x="1262" y="-310" on="1"/>
        <pt x="1244" y="-328" on="0"/>
        <pt x="1218" y="-328" on="1"/>
        <pt x="1192" y="-328" on="0"/>
        <pt x="1156" y="-293" on="0"/>
        <pt x="1156" y="-267" on="1"/>
        <pt x="1156" y="-251" on="0"/>
        <pt x="1163" y="-238" on="1"/>
        <pt x="1206" y="-158" on="0"/>
        <pt x="1224" y="0" on="1"/>
      </contour>
    </TTGlyph>
    <TTGlyph name="afii10041" xMin="82" yMin="0" xMax="1190" yMax="1600">
      <contour>
        <pt x="1190" y="62" on="1"/>
        <pt x="1190" y="36" on="0"/>
        <pt x="1154" y="0" on="0"/>
        <pt x="1129" y="0" on="1"/>
        <pt x="1103" y="0" on="0"/>
        <pt x="1067" y="36" on="0"/>
        <pt x="1067" y="62" on="1"/>
        <pt x="1067" y="775" on="1"/>
        <pt x="1028" y="736" on="1"/>
        <pt x="947" y="655" on="0"/>
        <pt x="752" y="574" on="0"/>
        <pt x="636" y="574" on="1"/>
        <pt x="520" y="574" on="0"/>
        <pt x="325" y="655" on="0"/>
        <pt x="244" y="736" on="1"/>
        <pt x="163" y="817" on="0"/>
        <pt x="82" y="1012" on="0"/>
        <pt x="82" y="1128" on="1"/>
        <pt x="82" y="1538" on="1"/>
        <pt x="82" y="1564" on="0"/>
        <pt x="118" y="1600" on="0"/>
        <pt x="144" y="1600" on="1"/>
        <pt x="170" y="1600" on="0"/>
        <pt x="205" y="1564" on="0"/>
        <pt x="205" y="1538" on="1"/>
        <pt x="205" y="1128" on="1"/>
        <pt x="205" y="950" on="0"/>
        <pt x="332" y="824" on="1"/>
        <pt x="458" y="697" on="0"/>
        <pt x="636" y="697" on="1"/>
        <pt x="815" y="697" on="0"/>
        <pt x="941" y="824" on="1"/>
        <pt x="1067" y="950" on="0"/>
        <pt x="1067" y="1128" on="1"/>
        <pt x="1067" y="1538" on="1"/>
        <pt x="1067" y="1564" on="0"/>
        <pt x="1103" y="1600" on="0"/>
        <pt x="1129" y="1600" on="1"/>
        <pt x="1154" y="1600" on="0"/>
        <pt x="1190" y="1564" on="0"/>
        <pt x="1190" y="1538" on="1"/>
      </contour>
    </TTGlyph>
    <TTGlyph name="afii10042" xMin="80" yMin="0" xMax="1516" yMax="1600">
      <contour>
        <pt x="80" y="1538" on="1"/>
        <pt x="80" y="1564" on="0"/>
        <pt x="116" y="1600" on="0"/>
        <pt x="142" y="1600" on="1"/>
        <pt x="168" y="1600" on="0"/>
        <pt x="203" y="1564" on="0"/>
        <pt x="203" y="1538" on="1"/>
        <pt x="203" y="123" on="1"/>
        <pt x="737" y="123" on="1"/>
        <pt x="737" y="1538" on="1"/>
        <pt x="737" y="1564" on="0"/>
        <pt x="772" y="1600" on="0"/>
        <pt x="798" y="1600" on="1"/>
        <pt x="824" y="1600" on="0"/>
        <pt x="860" y="1564" on="0"/>
        <pt x="860" y="1538" on="1"/>
        <pt x="860" y="123" on="1"/>
        <pt x="1393" y="123" on="1"/>
        <pt x="1393" y="1538" on="1"/>
        <pt x="1393" y="1564" on="0"/>
        <pt x="1429" y="1600" on="0"/>
        <pt x="1455" y="1600" on="1"/>
        <pt x="1481" y="1600" on="0"/>
        <pt x="1516" y="1564" on="0"/>
        <pt x="1516" y="1538" on="1"/>
        <pt x="1516" y="62" on="1"/>
        <pt x="1516" y="36" on="0"/>
        <pt x="1481" y="0" on="0"/>
        <pt x="1455" y="0" on="1"/>
        <pt x="142" y="0" on="1"/>
        <pt x="116" y="0" on="0"/>
        <pt x="80" y="36" on="0"/>
        <pt x="80" y="62" on="1"/>
      </contour>
    </TTGlyph>
    <TTGlyph name="afii10043" xMin="79" yMin="-328" xMax="1679" yMax="1600">
      <contour>
        <pt x="141" y="0" on="1"/>
        <pt x="115" y="0" on="0"/>
        <pt x="79" y="36" on="0"/>
        <pt x="79" y="62" on="1"/>
        <pt x="79" y="1538" on="1"/>
        <pt x="79" y="1564" on="0"/>
        <pt x="115" y="1600" on="0"/>
        <pt x="141" y="1600" on="1"/>
        <pt x="167" y="1600" on="0"/>
        <pt x="202" y="1564" on="0"/>
        <pt x="202" y="1538" on="1"/>
        <pt x="202" y="123" on="1"/>
        <pt x="736" y="123" on="1"/>
        <pt x="736" y="1538" on="1"/>
        <pt x="736" y="1564" on="0"/>
        <pt x="771" y="1600" on="0"/>
        <pt x="797" y="1600" on="1"/>
        <pt x="823" y="1600" on="0"/>
        <pt x="859" y="1564" on="0"/>
        <pt x="859" y="1538" on="1"/>
        <pt x="859" y="123" on="1"/>
        <pt x="1392" y="123" on="1"/>
        <pt x="1392" y="1538" on="1"/>
        <pt x="1392" y="1564" on="0"/>
        <pt x="1428" y="1600" on="0"/>
        <pt x="1454" y="1600" on="1"/>
        <pt x="1479" y="1600" on="0"/>
        <pt x="1515" y="1564" on="0"/>
        <pt x="1515" y="1538" on="1"/>
        <pt x="1515" y="123" on="1"/>
        <pt x="1618" y="123" on="1"/>
        <pt x="1644" y="123" on="0"/>
        <pt x="1679" y="87" on="0"/>
        <pt x="1679" y="62" on="1"/>
        <pt x="1679" y="-128" on="0"/>
        <pt x="1602" y="-286" on="1"/>
        <pt x="1595" y="-303" on="0"/>
        <pt x="1588" y="-310" on="1"/>
        <pt x="1570" y="-328" on="0"/>
        <pt x="1544" y="-328" on="1"/>
        <pt x="1518" y="-328" on="0"/>
        <pt x="1482" y="-293" on="0"/>
        <pt x="1482" y="-267" on="1"/>
        <pt x="1482" y="-253" on="0"/>
        <pt x="1490" y="-238" on="1"/>
        <pt x="1510" y="-199" on="0"/>
        <pt x="1541" y="-81" on="0"/>
        <pt x="1550" y="0" on="1"/>
      </contour>
    </TTGlyph>
    <TTGlyph name="afii10044" xMin="0" yMin="0" xMax="1272" yMax="1600">
      <contour>
        <pt x="841" y="123" on="1"/>
        <pt x="967" y="123" on="0"/>
        <pt x="1059" y="213" on="1"/>
        <pt x="1149" y="304" on="0"/>
        <pt x="1149" y="431" on="1"/>
        <pt x="1149" y="558" on="0"/>
        <pt x="1059" y="648" on="1"/>
        <pt x="969" y="738" on="0"/>
        <pt x="841" y="738" on="1"/>
        <pt x="452" y="738" on="1"/>
        <pt x="452" y="123" on="1"/>
      </contour>
      <contour>
        <pt x="390" y="1600" on="1"/>
        <pt x="416" y="1600" on="0"/>
        <pt x="452" y="1564" on="0"/>
        <pt x="452" y="1538" on="1"/>
        <pt x="452" y="862" on="1"/>
        <pt x="841" y="862" on="1"/>
        <pt x="1019" y="862" on="0"/>
        <pt x="1146" y="735" on="1"/>
        <pt x="1272" y="609" on="0"/>
        <pt x="1272" y="431" on="1"/>
        <pt x="1272" y="252" on="0"/>
        <pt x="1146" y="126" on="1"/>
        <pt x="1020" y="0" on="0"/>
        <pt x="841" y="0" on="1"/>
        <pt x="390" y="0" on="1"/>
        <pt x="364" y="0" on="0"/>
        <pt x="329" y="36" on="0"/>
        <pt x="329" y="62" on="1"/>
        <pt x="329" y="1477" on="1"/>
        <pt x="62" y="1477" on="1"/>
        <pt x="36" y="1477" on="0"/>
        <pt x="0" y="1513" on="0"/>
        <pt x="0" y="1538" on="1"/>
        <pt x="0" y="1564" on="0"/>
        <pt x="36" y="1600" on="0"/>
        <pt x="62" y="1600" on="1"/>
      </contour>
    </TTGlyph>
    <TTGlyph name="afii10045" xMin="81" yMin="0" xMax="1353" yMax="1600">
      <contour>
        <pt x="594" y="123" on="1"/>
        <pt x="720" y="123" on="0"/>
        <pt x="812" y="213" on="1"/>
        <pt x="902" y="304" on="0"/>
        <pt x="902" y="431" on="1"/>
        <pt x="902" y="558" on="0"/>
        <pt x="812" y="648" on="1"/>
        <pt x="722" y="738" on="0"/>
        <pt x="594" y="738" on="1"/>
        <pt x="204" y="738" on="1"/>
        <pt x="204" y="123" on="1"/>
      </contour>
      <contour>
        <pt x="204" y="862" on="1"/>
        <pt x="594" y="862" on="1"/>
        <pt x="772" y="862" on="0"/>
        <pt x="899" y="735" on="1"/>
        <pt x="1025" y="609" on="0"/>
        <pt x="1025" y="431" on="1"/>
        <pt x="1025" y="252" on="0"/>
        <pt x="899" y="126" on="1"/>
        <pt x="773" y="0" on="0"/>
        <pt x="594" y="0" on="1"/>
        <pt x="143" y="0" on="1"/>
        <pt x="117" y="0" on="0"/>
        <pt x="81" y="36" on="0"/>
        <pt x="81" y="62" on="1"/>
        <pt x="81" y="1538" on="1"/>
        <pt x="81" y="1564" on="0"/>
        <pt x="117" y="1600" on="0"/>
        <pt x="143" y="1600" on="1"/>
        <pt x="169" y="1600" on="0"/>
        <pt x="204" y="1564" on="0"/>
        <pt x="204" y="1538" on="1"/>
      </contour>
      <contour>
        <pt x="1230" y="1538" on="1"/>
        <pt x="1230" y="1564" on="0"/>
        <pt x="1266" y="1600" on="0"/>
        <pt x="1292" y="1600" on="1"/>
        <pt x="1317" y="1600" on="0"/>
        <pt x="1353" y="1564" on="0"/>
        <pt x="1353" y="1538" on="1"/>
        <pt x="1353" y="62" on="1"/>
        <pt x="1353" y="36" on="0"/>
        <pt x="1317" y="0" on="0"/>
        <pt x="1292" y="0" on="1"/>
        <pt x="1266" y="0" on="0"/>
        <pt x="1230" y="36" on="0"/>
        <pt x="1230" y="62" on="1"/>
      </contour>
    </TTGlyph>
    <TTGlyph name="afii10046" xMin="83" yMin="0" xMax="1027" yMax="1600">
      <contour>
        <pt x="596" y="123" on="1"/>
        <pt x="722" y="123" on="0"/>
        <pt x="814" y="213" on="1"/>
        <pt x="904" y="304" on="0"/>
        <pt x="904" y="431" on="1"/>
        <pt x="904" y="558" on="0"/>
        <pt x="814" y="648" on="1"/>
        <pt x="724" y="738" on="0"/>
        <pt x="596" y="738" on="1"/>
        <pt x="206" y="738" on="1"/>
        <pt x="206" y="123" on="1"/>
      </contour>
      <contour>
        <pt x="206" y="862" on="1"/>
        <pt x="596" y="862" on="1"/>
        <pt x="774" y="862" on="0"/>
        <pt x="901" y="735" on="1"/>
        <pt x="1027" y="609" on="0"/>
        <pt x="1027" y="431" on="1"/>
        <pt x="1027" y="252" on="0"/>
        <pt x="901" y="126" on="1"/>
        <pt x="775" y="0" on="0"/>
        <pt x="596" y="0" on="1"/>
        <pt x="145" y="0" on="1"/>
        <pt x="119" y="0" on="0"/>
        <pt x="83" y="36" on="0"/>
        <pt x="83" y="62" on="1"/>
        <pt x="83" y="1538" on="1"/>
        <pt x="83" y="1564" on="0"/>
        <pt x="119" y="1600" on="0"/>
        <pt x="145" y="1600" on="1"/>
        <pt x="171" y="1600" on="0"/>
        <pt x="206" y="1564" on="0"/>
        <pt x="206" y="1538" on="1"/>
      </contour>
    </TTGlyph>
    <TTGlyph name="afii10047" xMin="86" yMin="0" xMax="1411" yMax="1600">
      <component glyphName="afii10053" x="1492" y="0" scalex="-0.999877929688" scaley="1.0" flags="0x0"/>
    </TTGlyph>
    <TTGlyph name="afii10048" xMin="77" yMin="0" xMax="2005" yMax="1600">
      <contour>
        <pt x="1205" y="1477" on="1"/>
        <pt x="927" y="1477" on="0"/>
        <pt x="726" y="1278" on="1"/>
        <pt x="529" y="1081" on="0"/>
        <pt x="529" y="800" on="1"/>
        <pt x="529" y="518" on="0"/>
        <pt x="726" y="321" on="1"/>
        <pt x="925" y="123" on="0"/>
        <pt x="1205" y="123" on="1"/>
        <pt x="1485" y="123" on="0"/>
        <pt x="1683" y="321" on="1"/>
        <pt x="1882" y="519" on="0"/>
        <pt x="1882" y="800" on="1"/>
        <pt x="1882" y="1080" on="0"/>
        <pt x="1683" y="1278" on="1"/>
        <pt x="1484" y="1477" on="0"/>
      </contour>
      <contour>
        <pt x="407" y="862" on="1"/>
        <pt x="434" y="1160" on="0"/>
        <pt x="640" y="1366" on="1"/>
        <pt x="874" y="1600" on="0"/>
        <pt x="1205" y="1600" on="1"/>
        <pt x="1537" y="1600" on="0"/>
        <pt x="1771" y="1365" on="1"/>
        <pt x="2005" y="1131" on="0"/>
        <pt x="2005" y="800" on="1"/>
        <pt x="2005" y="469" on="0"/>
        <pt x="1771" y="234" on="1"/>
        <pt x="1537" y="0" on="0"/>
        <pt x="1205" y="0" on="1"/>
        <pt x="874" y="0" on="0"/>
        <pt x="640" y="235" on="1"/>
        <pt x="434" y="441" on="0"/>
        <pt x="407" y="738" on="1"/>
        <pt x="200" y="738" on="1"/>
        <pt x="200" y="62" on="1"/>
        <pt x="200" y="36" on="0"/>
        <pt x="165" y="0" on="0"/>
        <pt x="139" y="0" on="1"/>
        <pt x="113" y="0" on="0"/>
        <pt x="77" y="36" on="0"/>
        <pt x="77" y="62" on="1"/>
        <pt x="77" y="1538" on="1"/>
        <pt x="77" y="1564" on="0"/>
        <pt x="113" y="1600" on="0"/>
        <pt x="139" y="1600" on="1"/>
        <pt x="165" y="1600" on="0"/>
        <pt x="200" y="1564" on="0"/>
        <pt x="200" y="1538" on="1"/>
        <pt x="200" y="862" on="1"/>
      </contour>
    </TTGlyph>
    <TTGlyph name="afii10049" xMin="79" yMin="0" xMax="1105" yMax="1600">
      <component glyphName="R" x="1185" y="0" scalex="-0.999877929688" scaley="1.0" flags="0x0"/>
    </TTGlyph>
    <TTGlyph name="afii10050" xMin="83" yMin="0" xMax="1109" yMax="1928">
      <contour>
        <pt x="984" y="1600" on="1"/>
        <pt x="976" y="1668" on="0"/>
        <pt x="944" y="1786" on="0"/>
        <pt x="919" y="1837" on="1"/>
        <pt x="912" y="1851" on="0"/>
        <pt x="912" y="1867" on="1"/>
        <pt x="912" y="1893" on="0"/>
        <pt x="947" y="1928" on="0"/>
        <pt x="973" y="1928" on="1"/>
        <pt x="999" y="1928" on="0"/>
        <pt x="1017" y="1910" on="1"/>
        <pt x="1025" y="1902" on="0"/>
        <pt x="1032" y="1886" on="1"/>
        <pt x="1070" y="1805" on="0"/>
        <pt x="1109" y="1634" on="0"/>
        <pt x="1109" y="1538" on="1"/>
        <pt x="1109" y="1513" on="0"/>
        <pt x="1073" y="1477" on="0"/>
        <pt x="1047" y="1477" on="1"/>
        <pt x="206" y="1477" on="1"/>
        <pt x="206" y="62" on="1"/>
        <pt x="206" y="37" on="0"/>
        <pt x="189" y="18" on="1"/>
        <pt x="169" y="0" on="0"/>
        <pt x="144" y="0" on="1"/>
        <pt x="119" y="0" on="0"/>
        <pt x="83" y="36" on="0"/>
        <pt x="83" y="62" on="1"/>
        <pt x="83" y="1538" on="1"/>
        <pt x="84" y="1564" on="0"/>
        <pt x="120" y="1600" on="0"/>
        <pt x="145" y="1600" on="1"/>
      </contour>
    </TTGlyph>
    <TTGlyph name="afii10051" xMin="80" yMin="0" xMax="1557" yMax="1600">
      <contour>
        <pt x="613" y="1477" on="1"/>
        <pt x="142" y="1477" on="1"/>
        <pt x="116" y="1477" on="0"/>
        <pt x="80" y="1513" on="0"/>
        <pt x="80" y="1538" on="1"/>
        <pt x="80" y="1564" on="0"/>
        <pt x="116" y="1600" on="0"/>
        <pt x="142" y="1600" on="1"/>
        <pt x="1208" y="1600" on="1"/>
        <pt x="1234" y="1600" on="0"/>
        <pt x="1270" y="1564" on="0"/>
        <pt x="1270" y="1538" on="1"/>
        <pt x="1270" y="1513" on="0"/>
        <pt x="1234" y="1477" on="0"/>
        <pt x="1208" y="1477" on="1"/>
        <pt x="736" y="1477" on="1"/>
        <pt x="736" y="793" on="1"/>
        <pt x="820" y="868" on="0"/>
        <pt x="994" y="944" on="0"/>
        <pt x="1085" y="944" on="1"/>
        <pt x="1280" y="944" on="0"/>
        <pt x="1419" y="805" on="1"/>
        <pt x="1557" y="668" on="0"/>
        <pt x="1557" y="472" on="1"/>
        <pt x="1557" y="276" on="0"/>
        <pt x="1419" y="137" on="1"/>
        <pt x="1280" y="0" on="0"/>
        <pt x="1085" y="0" on="1"/>
        <pt x="1059" y="0" on="0"/>
        <pt x="1024" y="36" on="0"/>
        <pt x="1024" y="62" on="1"/>
        <pt x="1024" y="87" on="0"/>
        <pt x="1059" y="123" on="0"/>
        <pt x="1085" y="123" on="1"/>
        <pt x="1230" y="123" on="0"/>
        <pt x="1331" y="225" on="1"/>
        <pt x="1434" y="327" on="0"/>
        <pt x="1434" y="472" on="1"/>
        <pt x="1434" y="616" on="0"/>
        <pt x="1331" y="718" on="1"/>
        <pt x="1231" y="821" on="0"/>
        <pt x="1085" y="821" on="1"/>
        <pt x="941" y="821" on="0"/>
        <pt x="839" y="719" on="1"/>
        <pt x="736" y="616" on="0"/>
        <pt x="736" y="473" on="1"/>
        <pt x="736" y="62" on="1"/>
        <pt x="736" y="36" on="0"/>
        <pt x="701" y="0" on="0"/>
        <pt x="675" y="0" on="1"/>
        <pt x="649" y="0" on="0"/>
        <pt x="613" y="36" on="0"/>
        <pt x="613" y="62" on="1"/>
      </contour>
    </TTGlyph>
    <TTGlyph name="afii10052" xMin="83" yMin="0" xMax="1109" yMax="2079">
      <component glyphName="afii10020" x="0" y="0" flags="0x200"/>
      <component glyphName="acute" x="427" y="480" flags="0x0"/>
    </TTGlyph>
    <TTGlyph name="afii10053" xMin="81" yMin="0" xMax="1406" yMax="1600">
      <contour>
        <pt x="205" y="738" on="1"/>
        <pt x="235" y="488" on="0"/>
        <pt x="403" y="322" on="1"/>
        <pt x="602" y="123" on="0"/>
        <pt x="881" y="123" on="1"/>
        <pt x="1123" y="123" on="0"/>
        <pt x="1303" y="271" on="1"/>
        <pt x="1318" y="281" on="0"/>
        <pt x="1338" y="281" on="1"/>
        <pt x="1364" y="281" on="0"/>
        <pt x="1400" y="245" on="0"/>
        <pt x="1400" y="219" on="1"/>
        <pt x="1400" y="193" on="0"/>
        <pt x="1385" y="178" on="1"/>
        <pt x="1273" y="91" on="0"/>
        <pt x="1021" y="0" on="0"/>
        <pt x="881" y="0" on="1"/>
        <pt x="718" y="0" on="0"/>
        <pt x="432" y="122" on="0"/>
        <pt x="315" y="234" on="1"/>
        <pt x="203" y="351" on="0"/>
        <pt x="81" y="637" on="0"/>
        <pt x="81" y="800" on="1"/>
        <pt x="81" y="1131" on="0"/>
        <pt x="315" y="1365" on="1"/>
        <pt x="550" y="1600" on="0"/>
        <pt x="881" y="1600" on="1"/>
        <pt x="1166" y="1600" on="0"/>
        <pt x="1388" y="1418" on="1"/>
        <pt x="1406" y="1400" on="0"/>
        <pt x="1406" y="1374" on="1"/>
        <pt x="1406" y="1349" on="0"/>
        <pt x="1370" y="1313" on="0"/>
        <pt x="1345" y="1313" on="1"/>
        <pt x="1319" y="1313" on="0"/>
        <pt x="1294" y="1337" on="1"/>
        <pt x="1121" y="1477" on="0"/>
        <pt x="881" y="1477" on="1"/>
        <pt x="601" y="1477" on="0"/>
        <pt x="403" y="1279" on="1"/>
        <pt x="235" y="1111" on="0"/>
        <pt x="205" y="862" on="1"/>
        <pt x="963" y="862" on="1"/>
        <pt x="989" y="862" on="0"/>
        <pt x="1025" y="826" on="0"/>
        <pt x="1025" y="800" on="1"/>
        <pt x="1025" y="774" on="0"/>
        <pt x="989" y="738" on="0"/>
        <pt x="963" y="738" on="1"/>
      </contour>
    </TTGlyph>
    <TTGlyph name="afii10054" xMin="96" yMin="0" xMax="978" yMax="1600">
      <component glyphName="S" x="16" y="0" flags="0x200"/>
    </TTGlyph>
    <TTGlyph name="afii10055" xMin="182" yMin="0" xMax="305" yMax="1600">
      <component glyphName="I" x="4" y="0" flags="0x200"/>
    </TTGlyph>
    <TTGlyph name="afii10056" xMin="-93" yMin="0" xMax="571" yMax="1953">
      <component glyphName="I" x="0" y="0" flags="0x200"/>
      <component glyphName="dieresis" x="-237" y="480" flags="0x0"/>
    </TTGlyph>
    <TTGlyph name="afii10057" xMin="95" yMin="0" xMax="1039" yMax="1600">
      <component glyphName="J" x="15" y="0" flags="0x200"/>
    </TTGlyph>
    <TTGlyph name="afii10058" xMin="77" yMin="0" xMax="2005" yMax="1600">
      <contour>
        <pt x="1091" y="738" on="1"/>
        <pt x="1330" y="123" on="1"/>
        <pt x="1575" y="123" on="1"/>
        <pt x="1702" y="123" on="0"/>
        <pt x="1792" y="213" on="1"/>
        <pt x="1882" y="303" on="0"/>
        <pt x="1882" y="431" on="1"/>
        <pt x="1882" y="559" on="0"/>
        <pt x="1792" y="648" on="1"/>
        <pt x="1703" y="738" on="0"/>
        <pt x="1575" y="738" on="1"/>
      </contour>
      <contour>
        <pt x="1287" y="0" on="1"/>
        <pt x="1262" y="0" on="0"/>
        <pt x="1243" y="18" on="1"/>
        <pt x="1236" y="26" on="0"/>
        <pt x="1231" y="37" on="1"/>
        <pt x="713" y="1369" on="1"/>
        <pt x="196" y="38" on="1"/>
        <pt x="192" y="29" on="0"/>
        <pt x="183" y="18" on="1"/>
        <pt x="165" y="0" on="0"/>
        <pt x="139" y="0" on="1"/>
        <pt x="113" y="0" on="0"/>
        <pt x="77" y="36" on="0"/>
        <pt x="77" y="62" on="1"/>
        <pt x="77" y="75" on="0"/>
        <pt x="83" y="89" on="1"/>
        <pt x="654" y="1556" on="1"/>
        <pt x="660" y="1573" on="0"/>
        <pt x="670" y="1583" on="1"/>
        <pt x="687" y="1600" on="0"/>
        <pt x="713" y="1600" on="1"/>
        <pt x="739" y="1600" on="0"/>
        <pt x="757" y="1582" on="1"/>
        <pt x="767" y="1572" on="0"/>
        <pt x="773" y="1556" on="1"/>
        <pt x="1042" y="862" on="1"/>
        <pt x="1575" y="862" on="1"/>
        <pt x="1752" y="862" on="0"/>
        <pt x="1879" y="735" on="1"/>
        <pt x="2005" y="609" on="0"/>
        <pt x="2005" y="431" on="1"/>
        <pt x="2005" y="252" on="0"/>
        <pt x="1879" y="126" on="1"/>
        <pt x="1753" y="0" on="0"/>
        <pt x="1575" y="0" on="1"/>
      </contour>
    </TTGlyph>
    <TTGlyph name="afii10059" xMin="78" yMin="0" xMax="1842" yMax="1600">
      <contour>
        <pt x="1412" y="123" on="1"/>
        <pt x="1539" y="123" on="0"/>
        <pt x="1629" y="213" on="1"/>
        <pt x="1719" y="303" on="0"/>
        <pt x="1719" y="431" on="1"/>
        <pt x="1719" y="559" on="0"/>
        <pt x="1629" y="648" on="1"/>
        <pt x="1540" y="738" on="0"/>
        <pt x="1412" y="738" on="1"/>
        <pt x="1022" y="738" on="1"/>
        <pt x="1022" y="123" on="1"/>
      </contour>
      <contour>
        <pt x="1412" y="862" on="1"/>
        <pt x="1589" y="862" on="0"/>
        <pt x="1716" y="735" on="1"/>
        <pt x="1842" y="609" on="0"/>
        <pt x="1842" y="431" on="1"/>
        <pt x="1842" y="252" on="0"/>
        <pt x="1716" y="126" on="1"/>
        <pt x="1590" y="0" on="0"/>
        <pt x="1412" y="0" on="1"/>
        <pt x="960" y="0" on="1"/>
        <pt x="934" y="0" on="0"/>
        <pt x="899" y="36" on="0"/>
        <pt x="899" y="62" on="1"/>
        <pt x="899" y="738" on="1"/>
        <pt x="201" y="738" on="1"/>
        <pt x="201" y="62" on="1"/>
        <pt x="201" y="36" on="0"/>
        <pt x="166" y="0" on="0"/>
        <pt x="140" y="0" on="1"/>
        <pt x="114" y="0" on="0"/>
        <pt x="78" y="36" on="0"/>
        <pt x="78" y="62" on="1"/>
        <pt x="78" y="1538" on="1"/>
        <pt x="78" y="1564" on="0"/>
        <pt x="114" y="1600" on="0"/>
        <pt x="140" y="1600" on="1"/>
        <pt x="166" y="1600" on="0"/>
        <pt x="201" y="1564" on="0"/>
        <pt x="201" y="1538" on="1"/>
        <pt x="201" y="862" on="1"/>
        <pt x="899" y="862" on="1"/>
        <pt x="899" y="1538" on="1"/>
        <pt x="899" y="1564" on="0"/>
        <pt x="934" y="1600" on="0"/>
        <pt x="960" y="1600" on="1"/>
        <pt x="986" y="1600" on="0"/>
        <pt x="1022" y="1564" on="0"/>
        <pt x="1022" y="1538" on="1"/>
        <pt x="1022" y="862" on="1"/>
      </contour>
    </TTGlyph>
    <TTGlyph name="afii10060" xMin="80" yMin="0" xMax="1557" yMax="1600">
      <contour>
        <pt x="1434" y="472" on="1"/>
        <pt x="1434" y="616" on="0"/>
        <pt x="1331" y="718" on="1"/>
        <pt x="1231" y="821" on="0"/>
        <pt x="1085" y="821" on="1"/>
        <pt x="941" y="821" on="0"/>
        <pt x="839" y="719" on="1"/>
        <pt x="736" y="616" on="0"/>
        <pt x="736" y="473" on="1"/>
        <pt x="736" y="62" on="1"/>
        <pt x="736" y="36" on="0"/>
        <pt x="701" y="0" on="0"/>
        <pt x="675" y="0" on="1"/>
        <pt x="649" y="0" on="0"/>
        <pt x="613" y="36" on="0"/>
        <pt x="613" y="62" on="1"/>
        <pt x="613" y="1477" on="1"/>
        <pt x="142" y="1477" on="1"/>
        <pt x="116" y="1477" on="0"/>
        <pt x="80" y="1513" on="0"/>
        <pt x="80" y="1538" on="1"/>
        <pt x="80" y="1564" on="0"/>
        <pt x="116" y="1600" on="0"/>
        <pt x="142" y="1600" on="1"/>
        <pt x="1208" y="1600" on="1"/>
        <pt x="1234" y="1600" on="0"/>
        <pt x="1270" y="1564" on="0"/>
        <pt x="1270" y="1538" on="1"/>
        <pt x="1270" y="1513" on="0"/>
        <pt x="1234" y="1477" on="0"/>
        <pt x="1208" y="1477" on="1"/>
        <pt x="736" y="1477" on="1"/>
        <pt x="736" y="793" on="1"/>
        <pt x="820" y="868" on="0"/>
        <pt x="994" y="944" on="0"/>
        <pt x="1085" y="944" on="1"/>
        <pt x="1280" y="944" on="0"/>
        <pt x="1419" y="805" on="1"/>
        <pt x="1557" y="668" on="0"/>
        <pt x="1557" y="472" on="1"/>
        <pt x="1557" y="62" on="1"/>
        <pt x="1557" y="36" on="0"/>
        <pt x="1521" y="0" on="0"/>
        <pt x="1495" y="0" on="1"/>
        <pt x="1470" y="0" on="0"/>
        <pt x="1434" y="36" on="0"/>
        <pt x="1434" y="62" on="1"/>
      </contour>
    </TTGlyph>
    <TTGlyph name="afii10061" xMin="95" yMin="0" xMax="1121" yMax="2079">
      <contour>
        <pt x="95" y="1538" on="1"/>
        <pt x="95" y="1564" on="0"/>
        <pt x="131" y="1600" on="0"/>
        <pt x="156" y="1600" on="1"/>
        <pt x="182" y="1600" on="0"/>
        <pt x="218" y="1564" on="0"/>
        <pt x="218" y="1538" on="1"/>
        <pt x="218" y="786" on="1"/>
        <pt x="1013" y="1581" on="1"/>
        <pt x="1032" y="1600" on="0"/>
        <pt x="1059" y="1600" on="1"/>
        <pt x="1085" y="1600" on="0"/>
        <pt x="1121" y="1564" on="0"/>
        <pt x="1121" y="1538" on="1"/>
        <pt x="1121" y="1515" on="0"/>
        <pt x="1103" y="1494" on="1"/>
        <pt x="514" y="906" on="1"/>
        <pt x="1109" y="98" on="1"/>
        <pt x="1120" y="82" on="0"/>
        <pt x="1121" y="65" on="1"/>
        <pt x="1121" y="32" on="0"/>
        <pt x="1096" y="12" on="1"/>
        <pt x="1079" y="0" on="0"/>
        <pt x="1061" y="0" on="1"/>
        <pt x="1027" y="0" on="0"/>
        <pt x="1008" y="26" on="1"/>
        <pt x="425" y="816" on="1"/>
        <pt x="218" y="609" on="1"/>
        <pt x="218" y="62" on="1"/>
        <pt x="218" y="36" on="0"/>
        <pt x="182" y="0" on="0"/>
        <pt x="156" y="0" on="1"/>
        <pt x="131" y="0" on="0"/>
        <pt x="95" y="36" on="0"/>
        <pt x="95" y="62" on="1"/>
      </contour>
      <contour>
        <pt x="588" y="1721" on="1"/>
        <pt x="571" y="1705" on="0"/>
        <pt x="546" y="1705" on="1"/>
        <pt x="520" y="1705" on="0"/>
        <pt x="484" y="1742" on="0"/>
        <pt x="484" y="1768" on="1"/>
        <pt x="484" y="1793" on="0"/>
        <pt x="498" y="1809" on="1"/>
        <pt x="750" y="2061" on="1"/>
        <pt x="768" y="2079" on="0"/>
        <pt x="795" y="2079" on="1"/>
        <pt x="821" y="2079" on="0"/>
        <pt x="857" y="2043" on="0"/>
        <pt x="857" y="2017" on="1"/>
        <pt x="857" y="2005" on="0"/>
        <pt x="849" y="1982" on="0"/>
        <pt x="840" y="1973" on="1"/>
      </contour>
    </TTGlyph>
    <TTGlyph name="afii10062" xMin="81" yMin="0" xMax="1353" yMax="2056">
      <component glyphName="afii10037" x="0" y="0" flags="0x200"/>
      <component glyphName="breve" x="326" y="480" flags="0x0"/>
    </TTGlyph>
    <TTGlyph name="afii10065" xMin="92" yMin="0" xMax="1212" yMax="1120">
      <component glyphName="a" x="12" y="0" flags="0x200"/>
    </TTGlyph>
    <TTGlyph name="afii10066" xMin="80" yMin="0" xMax="1200" yMax="1618">
      <contour>
        <pt x="1075" y="560" on="1"/>
        <pt x="1075" y="741" on="0"/>
        <pt x="948" y="868" on="1"/>
        <pt x="820" y="996" on="0"/>
        <pt x="640" y="996" on="1"/>
        <pt x="460" y="996" on="0"/>
        <pt x="332" y="868" on="1"/>
        <pt x="204" y="740" on="0"/>
        <pt x="204" y="560" on="1"/>
        <pt x="204" y="380" on="0"/>
        <pt x="332" y="252" on="1"/>
        <pt x="460" y="124" on="0"/>
        <pt x="640" y="124" on="1"/>
        <pt x="820" y="124" on="0"/>
        <pt x="948" y="252" on="1"/>
        <pt x="1075" y="379" on="0"/>
      </contour>
      <contour>
        <pt x="204" y="917" on="1"/>
        <pt x="244" y="956" on="1"/>
        <pt x="408" y="1120" on="0"/>
        <pt x="640" y="1120" on="1"/>
        <pt x="872" y="1120" on="0"/>
        <pt x="1036" y="956" on="1"/>
        <pt x="1200" y="792" on="0"/>
        <pt x="1200" y="560" on="1"/>
        <pt x="1200" y="328" on="0"/>
        <pt x="1036" y="164" on="1"/>
        <pt x="872" y="0" on="0"/>
        <pt x="640" y="0" on="1"/>
        <pt x="408" y="0" on="0"/>
        <pt x="244" y="164" on="1"/>
        <pt x="80" y="328" on="0"/>
        <pt x="80" y="560" on="1"/>
        <pt x="80" y="975" on="1"/>
        <pt x="80" y="1207" on="0"/>
        <pt x="244" y="1371" on="1"/>
        <pt x="408" y="1535" on="0"/>
        <pt x="640" y="1535" on="1"/>
        <pt x="688" y="1535" on="1"/>
        <pt x="871" y="1535" on="0"/>
        <pt x="1026" y="1612" on="1"/>
        <pt x="1038" y="1618" on="0"/>
        <pt x="1055" y="1618" on="1"/>
        <pt x="1081" y="1618" on="0"/>
        <pt x="1117" y="1582" on="0"/>
        <pt x="1117" y="1556" on="1"/>
        <pt x="1117" y="1528" on="0"/>
        <pt x="1099" y="1512" on="1"/>
        <pt x="1093" y="1505" on="0"/>
        <pt x="1082" y="1499" on="1"/>
        <pt x="993" y="1454" on="0"/>
        <pt x="797" y="1410" on="0"/>
        <pt x="688" y="1410" on="1"/>
        <pt x="640" y="1410" on="1"/>
        <pt x="459" y="1410" on="0"/>
        <pt x="332" y="1283" on="1"/>
        <pt x="204" y="1155" on="0"/>
        <pt x="204" y="975" on="1"/>
      </contour>
    </TTGlyph>
    <TTGlyph name="afii10067" xMin="82" yMin="0" xMax="953" yMax="1120">
      <contour>
        <pt x="559" y="622" on="1"/>
        <pt x="636" y="622" on="0"/>
        <pt x="691" y="677" on="1"/>
        <pt x="746" y="732" on="0"/>
        <pt x="746" y="809" on="1"/>
        <pt x="746" y="884" on="0"/>
        <pt x="691" y="941" on="1"/>
        <pt x="636" y="996" on="0"/>
        <pt x="559" y="996" on="1"/>
        <pt x="207" y="996" on="1"/>
        <pt x="207" y="622" on="1"/>
      </contour>
      <contour>
        <pt x="642" y="124" on="1"/>
        <pt x="717" y="124" on="0"/>
        <pt x="774" y="179" on="1"/>
        <pt x="829" y="236" on="0"/>
        <pt x="829" y="311" on="1"/>
        <pt x="829" y="388" on="0"/>
        <pt x="774" y="443" on="1"/>
        <pt x="717" y="498" on="0"/>
        <pt x="642" y="498" on="1"/>
        <pt x="207" y="498" on="1"/>
        <pt x="207" y="124" on="1"/>
      </contour>
      <contour>
        <pt x="559" y="1120" on="1"/>
        <pt x="689" y="1120" on="0"/>
        <pt x="779" y="1029" on="1"/>
        <pt x="870" y="939" on="0"/>
        <pt x="870" y="809" on="1"/>
        <pt x="870" y="750" on="0"/>
        <pt x="826" y="642" on="0"/>
        <pt x="783" y="591" on="1"/>
        <pt x="833" y="564" on="0"/>
        <pt x="863" y="532" on="1"/>
        <pt x="953" y="440" on="0"/>
        <pt x="953" y="311" on="1"/>
        <pt x="953" y="181" on="0"/>
        <pt x="862" y="90" on="1"/>
        <pt x="772" y="0" on="0"/>
        <pt x="642" y="0" on="1"/>
        <pt x="144" y="0" on="1"/>
        <pt x="118" y="0" on="0"/>
        <pt x="82" y="36" on="0"/>
        <pt x="82" y="62" on="1"/>
        <pt x="82" y="1058" on="1"/>
        <pt x="82" y="1084" on="0"/>
        <pt x="118" y="1120" on="0"/>
        <pt x="144" y="1120" on="1"/>
      </contour>
    </TTGlyph>
    <TTGlyph name="afii10068" xMin="84" yMin="0" xMax="789" yMax="1120">
      <contour>
        <pt x="208" y="62" on="1"/>
        <pt x="208" y="36" on="0"/>
        <pt x="172" y="0" on="0"/>
        <pt x="146" y="0" on="1"/>
        <pt x="120" y="0" on="0"/>
        <pt x="84" y="36" on="0"/>
        <pt x="84" y="62" on="1"/>
        <pt x="84" y="809" on="1"/>
        <pt x="84" y="939" on="0"/>
        <pt x="174" y="1029" on="1"/>
        <pt x="265" y="1120" on="0"/>
        <pt x="395" y="1120" on="1"/>
        <pt x="727" y="1120" on="1"/>
        <pt x="753" y="1120" on="0"/>
        <pt x="789" y="1084" on="0"/>
        <pt x="789" y="1058" on="1"/>
        <pt x="789" y="1032" on="0"/>
        <pt x="753" y="996" on="0"/>
        <pt x="727" y="996" on="1"/>
        <pt x="395" y="996" on="1"/>
        <pt x="318" y="996" on="0"/>
        <pt x="263" y="941" on="1"/>
        <pt x="208" y="884" on="0"/>
        <pt x="208" y="809" on="1"/>
      </contour>
    </TTGlyph>
    <TTGlyph name="afii10069" xMin="80" yMin="-480" xMax="1200" yMax="1120">
      <component glyphName="g" x="0" y="0" flags="0x200"/>
    </TTGlyph>
    <TTGlyph name="afii10070" xMin="80" yMin="0" xMax="1200" yMax="1120">
      <component glyphName="e" x="0" y="0" flags="0x200"/>
    </TTGlyph>
    <TTGlyph name="afii10071" xMin="80" yMin="0" xMax="1200" yMax="1473">
      <component glyphName="e" x="0" y="0" flags="0x200"/>
      <component glyphName="dieresis" x="161" y="0" flags="0x0"/>
    </TTGlyph>
    <TTGlyph name="afii10072" xMin="75" yMin="0" xMax="1693" yMax="1120">
      <contour>
        <pt x="822" y="560" on="1"/>
        <pt x="822" y="1058" on="1"/>
        <pt x="822" y="1084" on="0"/>
        <pt x="858" y="1120" on="0"/>
        <pt x="884" y="1120" on="1"/>
        <pt x="910" y="1120" on="0"/>
        <pt x="947" y="1084" on="0"/>
        <pt x="947" y="1058" on="1"/>
        <pt x="947" y="560" on="1"/>
        <pt x="1589" y="1104" on="1"/>
        <pt x="1606" y="1120" on="0"/>
        <pt x="1631" y="1120" on="1"/>
        <pt x="1657" y="1120" on="0"/>
        <pt x="1693" y="1084" on="0"/>
        <pt x="1693" y="1058" on="1"/>
        <pt x="1693" y="1031" on="0"/>
        <pt x="1677" y="1015" on="1"/>
        <pt x="1143" y="563" on="1"/>
        <pt x="1675" y="107" on="1"/>
        <pt x="1693" y="91" on="0"/>
        <pt x="1693" y="62" on="1"/>
        <pt x="1693" y="36" on="0"/>
        <pt x="1657" y="0" on="0"/>
        <pt x="1631" y="0" on="1"/>
        <pt x="1606" y="0" on="0"/>
        <pt x="1591" y="15" on="1"/>
        <pt x="1046" y="481" on="1"/>
        <pt x="947" y="396" on="1"/>
        <pt x="947" y="62" on="1"/>
        <pt x="947" y="36" on="0"/>
        <pt x="910" y="0" on="0"/>
        <pt x="884" y="0" on="1"/>
        <pt x="858" y="0" on="0"/>
        <pt x="822" y="36" on="0"/>
        <pt x="822" y="62" on="1"/>
        <pt x="822" y="396" on="1"/>
        <pt x="723" y="481" on="1"/>
        <pt x="178" y="15" on="1"/>
        <pt x="161" y="0" on="0"/>
        <pt x="138" y="0" on="1"/>
        <pt x="112" y="0" on="0"/>
        <pt x="75" y="36" on="0"/>
        <pt x="75" y="62" on="1"/>
        <pt x="75" y="89" on="0"/>
        <pt x="94" y="107" on="1"/>
        <pt x="626" y="563" on="1"/>
        <pt x="92" y="1015" on="1"/>
        <pt x="75" y="1031" on="0"/>
        <pt x="75" y="1058" on="1"/>
        <pt x="75" y="1084" on="0"/>
        <pt x="112" y="1120" on="0"/>
        <pt x="138" y="1120" on="1"/>
        <pt x="163" y="1120" on="0"/>
        <pt x="179" y="1104" on="1"/>
      </contour>
    </TTGlyph>
    <TTGlyph name="afii10073" xMin="113" yMin="0" xMax="870" yMax="1119">
      <contour>
        <pt x="228" y="238" on="1"/>
        <pt x="265" y="193" on="0"/>
        <pt x="290" y="176" on="1"/>
        <pt x="368" y="124" on="0"/>
        <pt x="477" y="124" on="1"/>
        <pt x="586" y="124" on="0"/>
        <pt x="746" y="242" on="0"/>
        <pt x="746" y="321" on="1"/>
        <pt x="746" y="410" on="0"/>
        <pt x="587" y="539" on="0"/>
        <pt x="477" y="539" on="1"/>
        <pt x="451" y="539" on="0"/>
        <pt x="415" y="575" on="0"/>
        <pt x="415" y="601" on="1"/>
        <pt x="415" y="627" on="0"/>
        <pt x="451" y="663" on="0"/>
        <pt x="477" y="663" on="1"/>
        <pt x="584" y="663" on="0"/>
        <pt x="746" y="748" on="0"/>
        <pt x="746" y="819" on="1"/>
        <pt x="746" y="899" on="0"/>
        <pt x="585" y="995" on="0"/>
        <pt x="477" y="995" on="1"/>
        <pt x="368" y="995" on="0"/>
        <pt x="290" y="942" on="1"/>
        <pt x="252" y="915" on="0"/>
        <pt x="229" y="882" on="1"/>
        <pt x="225" y="875" on="0"/>
        <pt x="220" y="869" on="1"/>
        <pt x="201" y="851" on="0"/>
        <pt x="175" y="851" on="1"/>
        <pt x="150" y="851" on="0"/>
        <pt x="113" y="887" on="0"/>
        <pt x="113" y="913" on="1"/>
        <pt x="113" y="932" on="0"/>
        <pt x="122" y="946" on="1"/>
        <pt x="149" y="989" on="0"/>
        <pt x="196" y="1027" on="1"/>
        <pt x="312" y="1119" on="0"/>
        <pt x="477" y="1119" on="1"/>
        <pt x="642" y="1119" on="0"/>
        <pt x="870" y="946" on="0"/>
        <pt x="870" y="819" on="1"/>
        <pt x="870" y="693" on="0"/>
        <pt x="716" y="604" on="1"/>
        <pt x="870" y="470" on="0"/>
        <pt x="870" y="321" on="1"/>
        <pt x="870" y="193" on="0"/>
        <pt x="641" y="0" on="0"/>
        <pt x="477" y="0" on="1"/>
        <pt x="312" y="0" on="0"/>
        <pt x="196" y="93" on="1"/>
        <pt x="154" y="126" on="0"/>
        <pt x="127" y="165" on="1"/>
        <pt x="115" y="181" on="0"/>
        <pt x="115" y="202" on="1"/>
        <pt x="115" y="228" on="0"/>
        <pt x="152" y="264" on="0"/>
        <pt x="177" y="264" on="1"/>
        <pt x="209" y="264" on="0"/>
      </contour>
    </TTGlyph>
    <TTGlyph name="afii10074" xMin="81" yMin="0" xMax="1118" yMax="1120">
      <component glyphName="u" x="0" y="0" flags="0x200"/>
    </TTGlyph>
    <TTGlyph name="afii10075" xMin="81" yMin="0" xMax="1118" yMax="1576">
      <contour>
        <pt x="1118" y="62" on="1"/>
        <pt x="1118" y="36" on="0"/>
        <pt x="1081" y="0" on="0"/>
        <pt x="1055" y="0" on="1"/>
        <pt x="1029" y="0" on="0"/>
        <pt x="993" y="36" on="0"/>
        <pt x="993" y="62" on="1"/>
        <pt x="993" y="178" on="1"/>
        <pt x="809" y="0" on="0"/>
        <pt x="599" y="0" on="1"/>
        <pt x="386" y="0" on="0"/>
        <pt x="232" y="151" on="1"/>
        <pt x="81" y="303" on="0"/>
        <pt x="81" y="519" on="1"/>
        <pt x="81" y="1058" on="1"/>
        <pt x="81" y="1084" on="0"/>
        <pt x="117" y="1120" on="0"/>
        <pt x="143" y="1120" on="1"/>
        <pt x="169" y="1120" on="0"/>
        <pt x="205" y="1084" on="0"/>
        <pt x="205" y="1058" on="1"/>
        <pt x="205" y="519" on="1"/>
        <pt x="205" y="355" on="0"/>
        <pt x="320" y="240" on="1"/>
        <pt x="439" y="124" on="0"/>
        <pt x="599" y="124" on="1"/>
        <pt x="761" y="124" on="0"/>
        <pt x="877" y="240" on="1"/>
        <pt x="993" y="355" on="0"/>
        <pt x="993" y="519" on="1"/>
        <pt x="993" y="1058" on="1"/>
        <pt x="993" y="1084" on="0"/>
        <pt x="1029" y="1120" on="0"/>
        <pt x="1055" y="1120" on="1"/>
        <pt x="1081" y="1120" on="0"/>
        <pt x="1118" y="1084" on="0"/>
        <pt x="1118" y="1058" on="1"/>
      </contour>
      <contour>
        <pt x="288" y="1514" on="1"/>
        <pt x="288" y="1540" on="0"/>
        <pt x="325" y="1576" on="0"/>
        <pt x="351" y="1576" on="1"/>
        <pt x="377" y="1576" on="0"/>
        <pt x="413" y="1540" on="0"/>
        <pt x="413" y="1514" on="1"/>
        <pt x="413" y="1467" on="0"/>
        <pt x="473" y="1436" on="1"/>
        <pt x="529" y="1410" on="0"/>
        <pt x="599" y="1410" on="1"/>
        <pt x="669" y="1410" on="0"/>
        <pt x="726" y="1436" on="1"/>
        <pt x="787" y="1466" on="0"/>
        <pt x="787" y="1514" on="1"/>
        <pt x="787" y="1540" on="0"/>
        <pt x="823" y="1576" on="0"/>
        <pt x="849" y="1576" on="1"/>
        <pt x="875" y="1576" on="0"/>
        <pt x="911" y="1540" on="0"/>
        <pt x="912" y="1515" on="1"/>
        <pt x="906" y="1416" on="0"/>
        <pt x="822" y="1355" on="1"/>
        <pt x="775" y="1321" on="0"/>
        <pt x="665" y="1286" on="0"/>
        <pt x="599" y="1286" on="1"/>
        <pt x="535" y="1286" on="0"/>
        <pt x="422" y="1322" on="0"/>
        <pt x="376" y="1354" on="1"/>
        <pt x="288" y="1422" on="0"/>
      </contour>
    </TTGlyph>
    <TTGlyph name="afii10076" xMin="82" yMin="0" xMax="953" yMax="1120">
      <contour>
        <pt x="82" y="1058" on="1"/>
        <pt x="82" y="1084" on="0"/>
        <pt x="118" y="1120" on="0"/>
        <pt x="144" y="1120" on="1"/>
        <pt x="170" y="1120" on="0"/>
        <pt x="207" y="1084" on="0"/>
        <pt x="207" y="1058" on="1"/>
        <pt x="207" y="560" on="1"/>
        <pt x="849" y="1104" on="1"/>
        <pt x="866" y="1120" on="0"/>
        <pt x="891" y="1120" on="1"/>
        <pt x="917" y="1120" on="0"/>
        <pt x="953" y="1084" on="0"/>
        <pt x="953" y="1058" on="1"/>
        <pt x="953" y="1033" on="0"/>
        <pt x="937" y="1015" on="1"/>
        <pt x="403" y="563" on="1"/>
        <pt x="935" y="107" on="1"/>
        <pt x="953" y="90" on="0"/>
        <pt x="953" y="62" on="1"/>
        <pt x="953" y="36" on="0"/>
        <pt x="917" y="0" on="0"/>
        <pt x="891" y="0" on="1"/>
        <pt x="868" y="0" on="0"/>
        <pt x="851" y="15" on="1"/>
        <pt x="306" y="481" on="1"/>
        <pt x="207" y="396" on="1"/>
        <pt x="207" y="62" on="1"/>
        <pt x="207" y="36" on="0"/>
        <pt x="170" y="0" on="0"/>
        <pt x="144" y="0" on="1"/>
        <pt x="118" y="0" on="0"/>
        <pt x="82" y="36" on="0"/>
        <pt x="82" y="62" on="1"/>
      </contour>
    </TTGlyph>
    <TTGlyph name="afii10077" xMin="81" yMin="-2" xMax="1118" yMax="1118">
      <component glyphName="v" x="0" y="1118" scalex="1.0" scaley="-0.999877929688" flags="0x0"/>
    </TTGlyph>
    <TTGlyph name="afii10078" xMin="77" yMin="-1" xMax="1529" yMax="1119">
      <component glyphName="w" x="0" y="1119" scalex="1.0" scaley="-0.999877929688" flags="0x0"/>
    </TTGlyph>
    <TTGlyph name="afii10079" xMin="82" yMin="0" xMax="994" yMax="1120">
      <contour>
        <pt x="206" y="498" on="1"/>
        <pt x="206" y="62" on="1"/>
        <pt x="206" y="36" on="0"/>
        <pt x="170" y="0" on="0"/>
        <pt x="144" y="0" on="1"/>
        <pt x="118" y="0" on="0"/>
        <pt x="82" y="36" on="0"/>
        <pt x="82" y="62" on="1"/>
        <pt x="82" y="1058" on="1"/>
        <pt x="82" y="1084" on="0"/>
        <pt x="118" y="1120" on="0"/>
        <pt x="144" y="1120" on="1"/>
        <pt x="170" y="1120" on="0"/>
        <pt x="206" y="1084" on="0"/>
        <pt x="206" y="1058" on="1"/>
        <pt x="206" y="622" on="1"/>
        <pt x="870" y="622" on="1"/>
        <pt x="870" y="1058" on="1"/>
        <pt x="870" y="1084" on="0"/>
        <pt x="906" y="1120" on="0"/>
        <pt x="932" y="1120" on="1"/>
        <pt x="958" y="1120" on="0"/>
        <pt x="994" y="1084" on="0"/>
        <pt x="994" y="1058" on="1"/>
        <pt x="994" y="62" on="1"/>
        <pt x="994" y="36" on="0"/>
        <pt x="958" y="0" on="0"/>
        <pt x="932" y="0" on="1"/>
        <pt x="906" y="0" on="0"/>
        <pt x="870" y="36" on="0"/>
        <pt x="870" y="62" on="1"/>
        <pt x="870" y="498" on="1"/>
      </contour>
    </TTGlyph>
    <TTGlyph name="afii10080" xMin="80" yMin="0" xMax="1200" yMax="1120">
      <component glyphName="o" x="0" y="0" flags="0x200"/>
    </TTGlyph>
    <TTGlyph name="afii10081" xMin="81" yMin="0" xMax="1118" yMax="1120">
      <component glyphName="n" x="0" y="0" flags="0x200"/>
    </TTGlyph>
    <TTGlyph name="afii10082" xMin="80" yMin="-480" xMax="1200" yMax="1120">
      <component glyphName="p" x="0" y="0" flags="0x200"/>
    </TTGlyph>
    <TTGlyph name="afii10083" xMin="93" yMin="0" xMax="1040" yMax="1120">
      <component glyphName="c" x="13" y="0" flags="0x200"/>
    </TTGlyph>
    <TTGlyph name="afii10084" xMin="75" yMin="0" xMax="1693" yMax="1120">
      <component glyphName="m" x="0" y="0" flags="0x200"/>
    </TTGlyph>
    <TTGlyph name="afii10085" xMin="81" yMin="-480" xMax="1036" yMax="1120">
      <component glyphName="y" x="0" y="0" flags="0x200"/>
    </TTGlyph>
    <TTGlyph name="afii10086" xMin="74" yMin="-480" xMax="1858" yMax="1600">
      <contour>
        <pt x="551" y="996" on="1"/>
        <pt x="403" y="996" on="0"/>
        <pt x="299" y="866" on="1"/>
        <pt x="198" y="739" on="0"/>
        <pt x="198" y="560" on="1"/>
        <pt x="198" y="380" on="0"/>
        <pt x="299" y="253" on="1"/>
        <pt x="402" y="124" on="0"/>
        <pt x="551" y="124" on="1"/>
        <pt x="626" y="124" on="0"/>
        <pt x="750" y="189" on="0"/>
        <pt x="802" y="254" on="1"/>
        <pt x="802" y="253" on="1"/>
        <pt x="904" y="379" on="0"/>
        <pt x="904" y="560" on="1"/>
        <pt x="904" y="741" on="0"/>
        <pt x="802" y="867" on="1"/>
        <pt x="802" y="866" on="1"/>
        <pt x="750" y="931" on="0"/>
        <pt x="626" y="996" on="0"/>
      </contour>
      <contour>
        <pt x="1381" y="996" on="1"/>
        <pt x="1233" y="996" on="0"/>
        <pt x="1129" y="866" on="1"/>
        <pt x="1028" y="741" on="0"/>
        <pt x="1028" y="560" on="1"/>
        <pt x="1028" y="378" on="0"/>
        <pt x="1129" y="253" on="1"/>
        <pt x="1232" y="124" on="0"/>
        <pt x="1381" y="124" on="1"/>
        <pt x="1528" y="124" on="0"/>
        <pt x="1632" y="254" on="1"/>
        <pt x="1632" y="253" on="1"/>
        <pt x="1733" y="378" on="0"/>
        <pt x="1733" y="560" on="1"/>
        <pt x="1733" y="742" on="0"/>
        <pt x="1632" y="867" on="1"/>
        <pt x="1632" y="866" on="1"/>
        <pt x="1528" y="996" on="0"/>
      </contour>
      <contour>
        <pt x="904" y="1538" on="1"/>
        <pt x="904" y="1564" on="0"/>
        <pt x="940" y="1600" on="0"/>
        <pt x="966" y="1600" on="1"/>
        <pt x="992" y="1600" on="0"/>
        <pt x="1028" y="1564" on="0"/>
        <pt x="1028" y="1538" on="1"/>
        <pt x="1028" y="941" on="1"/>
        <pt x="1198" y="1120" on="0"/>
        <pt x="1381" y="1120" on="1"/>
        <pt x="1577" y="1120" on="0"/>
        <pt x="1717" y="957" on="1"/>
        <pt x="1858" y="792" on="0"/>
        <pt x="1858" y="560" on="1"/>
        <pt x="1858" y="328" on="0"/>
        <pt x="1717" y="163" on="1"/>
        <pt x="1577" y="0" on="0"/>
        <pt x="1381" y="0" on="1"/>
        <pt x="1198" y="0" on="0"/>
        <pt x="1028" y="179" on="1"/>
        <pt x="1028" y="-418" on="1"/>
        <pt x="1028" y="-444" on="0"/>
        <pt x="992" y="-480" on="0"/>
        <pt x="966" y="-480" on="1"/>
        <pt x="940" y="-480" on="0"/>
        <pt x="904" y="-444" on="0"/>
        <pt x="904" y="-418" on="1"/>
        <pt x="904" y="179" on="1"/>
        <pt x="732" y="0" on="0"/>
        <pt x="551" y="0" on="1"/>
        <pt x="354" y="0" on="0"/>
        <pt x="214" y="163" on="1"/>
        <pt x="74" y="327" on="0"/>
        <pt x="74" y="560" on="1"/>
        <pt x="74" y="793" on="0"/>
        <pt x="214" y="957" on="1"/>
        <pt x="354" y="1120" on="0"/>
        <pt x="551" y="1120" on="1"/>
        <pt x="732" y="1120" on="0"/>
        <pt x="904" y="941" on="1"/>
      </contour>
    </TTGlyph>
    <TTGlyph name="afii10087" xMin="81" yMin="0" xMax="1035" yMax="1120">
      <component glyphName="x" x="0" y="0" flags="0x200"/>
    </TTGlyph>
    <TTGlyph name="afii10088" xMin="79" yMin="-332" xMax="1282" yMax="1120">
      <contour>
        <pt x="1116" y="124" on="1"/>
        <pt x="1220" y="124" on="1"/>
        <pt x="1246" y="124" on="0"/>
        <pt x="1282" y="88" on="0"/>
        <pt x="1282" y="62" on="1"/>
        <pt x="1282" y="-127" on="0"/>
        <pt x="1204" y="-290" on="1"/>
        <pt x="1198" y="-305" on="0"/>
        <pt x="1190" y="-313" on="1"/>
        <pt x="1171" y="-332" on="0"/>
        <pt x="1145" y="-332" on="1"/>
        <pt x="1119" y="-332" on="0"/>
        <pt x="1083" y="-296" on="0"/>
        <pt x="1083" y="-270" on="1"/>
        <pt x="1083" y="-255" on="0"/>
        <pt x="1090" y="-241" on="1"/>
        <pt x="1139" y="-140" on="0"/>
        <pt x="1157" y="0" on="1"/>
        <pt x="1054" y="0" on="1"/>
        <pt x="1028" y="0" on="0"/>
        <pt x="992" y="36" on="0"/>
        <pt x="992" y="62" on="1"/>
        <pt x="992" y="178" on="1"/>
        <pt x="807" y="0" on="0"/>
        <pt x="598" y="0" on="1"/>
        <pt x="384" y="0" on="0"/>
        <pt x="231" y="151" on="1"/>
        <pt x="79" y="305" on="0"/>
        <pt x="79" y="519" on="1"/>
        <pt x="79" y="1058" on="1"/>
        <pt x="79" y="1084" on="0"/>
        <pt x="115" y="1120" on="0"/>
        <pt x="141" y="1120" on="1"/>
        <pt x="167" y="1120" on="0"/>
        <pt x="204" y="1084" on="0"/>
        <pt x="204" y="1058" on="1"/>
        <pt x="204" y="519" on="1"/>
        <pt x="204" y="355" on="0"/>
        <pt x="319" y="240" on="1"/>
        <pt x="437" y="124" on="0"/>
        <pt x="598" y="124" on="1"/>
        <pt x="760" y="124" on="0"/>
        <pt x="876" y="240" on="1"/>
        <pt x="992" y="356" on="0"/>
        <pt x="992" y="519" on="1"/>
        <pt x="992" y="1058" on="1"/>
        <pt x="992" y="1084" on="0"/>
        <pt x="1028" y="1120" on="0"/>
        <pt x="1054" y="1120" on="1"/>
        <pt x="1080" y="1120" on="0"/>
        <pt x="1116" y="1084" on="0"/>
        <pt x="1116" y="1058" on="1"/>
      </contour>
    </TTGlyph>
    <TTGlyph name="afii10089" xMin="82" yMin="0" xMax="953" yMax="1120">
      <contour>
        <pt x="82" y="1058" on="1"/>
        <pt x="82" y="1084" on="0"/>
        <pt x="118" y="1120" on="0"/>
        <pt x="144" y="1120" on="1"/>
        <pt x="170" y="1120" on="0"/>
        <pt x="207" y="1084" on="0"/>
        <pt x="207" y="1058" on="1"/>
        <pt x="207" y="809" on="1"/>
        <pt x="207" y="680" on="0"/>
        <pt x="298" y="589" on="1"/>
        <pt x="389" y="498" on="0"/>
        <pt x="518" y="498" on="1"/>
        <pt x="646" y="498" on="0"/>
        <pt x="737" y="589" on="1"/>
        <pt x="829" y="680" on="0"/>
        <pt x="829" y="808" on="1"/>
        <pt x="829" y="1058" on="1"/>
        <pt x="829" y="1084" on="0"/>
        <pt x="865" y="1120" on="0"/>
        <pt x="891" y="1120" on="1"/>
        <pt x="917" y="1120" on="0"/>
        <pt x="953" y="1084" on="0"/>
        <pt x="953" y="1058" on="1"/>
        <pt x="953" y="62" on="1"/>
        <pt x="953" y="36" on="0"/>
        <pt x="917" y="0" on="0"/>
        <pt x="891" y="0" on="1"/>
        <pt x="865" y="0" on="0"/>
        <pt x="829" y="36" on="0"/>
        <pt x="829" y="62" on="1"/>
        <pt x="829" y="502" on="1"/>
        <pt x="676" y="373" on="0"/>
        <pt x="518" y="373" on="1"/>
        <pt x="338" y="373" on="0"/>
        <pt x="210" y="501" on="1"/>
        <pt x="82" y="629" on="0"/>
        <pt x="82" y="809" on="1"/>
      </contour>
    </TTGlyph>
    <TTGlyph name="afii10090" xMin="67" yMin="0" xMax="1685" yMax="1120">
      <component glyphName="m" x="1760" y="1120" scale="-0.999877929688" flags="0x0"/>
    </TTGlyph>
    <TTGlyph name="afii10091" xMin="74" yMin="-332" xMax="1858" yMax="1120">
      <contour>
        <pt x="1629" y="0" on="1"/>
        <pt x="1603" y="0" on="0"/>
        <pt x="1567" y="36" on="0"/>
        <pt x="1567" y="62" on="1"/>
        <pt x="1567" y="129" on="1"/>
        <pt x="1415" y="0" on="0"/>
        <pt x="1256" y="0" on="1"/>
        <pt x="1076" y="0" on="0"/>
        <pt x="948" y="128" on="1"/>
        <pt x="917" y="158" on="0"/>
        <pt x="883" y="206" on="1"/>
        <pt x="845" y="155" on="0"/>
        <pt x="817" y="128" on="1"/>
        <pt x="689" y="0" on="0"/>
        <pt x="509" y="0" on="1"/>
        <pt x="331" y="0" on="0"/>
        <pt x="201" y="128" on="1"/>
        <pt x="74" y="255" on="0"/>
        <pt x="74" y="436" on="1"/>
        <pt x="74" y="1058" on="1"/>
        <pt x="74" y="1084" on="0"/>
        <pt x="110" y="1120" on="0"/>
        <pt x="136" y="1120" on="1"/>
        <pt x="162" y="1120" on="0"/>
        <pt x="198" y="1084" on="0"/>
        <pt x="198" y="1058" on="1"/>
        <pt x="198" y="436" on="1"/>
        <pt x="198" y="307" on="0"/>
        <pt x="290" y="216" on="1"/>
        <pt x="382" y="124" on="0"/>
        <pt x="509" y="124" on="1"/>
        <pt x="637" y="124" on="0"/>
        <pt x="729" y="216" on="1"/>
        <pt x="821" y="307" on="0"/>
        <pt x="821" y="436" on="1"/>
        <pt x="821" y="1058" on="1"/>
        <pt x="821" y="1084" on="0"/>
        <pt x="857" y="1120" on="0"/>
        <pt x="883" y="1120" on="1"/>
        <pt x="909" y="1120" on="0"/>
        <pt x="945" y="1084" on="0"/>
        <pt x="945" y="1058" on="1"/>
        <pt x="945" y="436" on="1"/>
        <pt x="945" y="307" on="0"/>
        <pt x="1036" y="216" on="1"/>
        <pt x="1128" y="124" on="0"/>
        <pt x="1256" y="124" on="1"/>
        <pt x="1384" y="124" on="0"/>
        <pt x="1476" y="216" on="1"/>
        <pt x="1567" y="307" on="0"/>
        <pt x="1567" y="436" on="1"/>
        <pt x="1567" y="1058" on="1"/>
        <pt x="1567" y="1084" on="0"/>
        <pt x="1603" y="1120" on="0"/>
        <pt x="1629" y="1120" on="1"/>
        <pt x="1655" y="1120" on="0"/>
        <pt x="1692" y="1084" on="0"/>
        <pt x="1692" y="1058" on="1"/>
        <pt x="1692" y="124" on="1"/>
        <pt x="1795" y="124" on="1"/>
        <pt x="1821" y="124" on="0"/>
        <pt x="1858" y="88" on="0"/>
        <pt x="1858" y="62" on="1"/>
        <pt x="1858" y="-127" on="0"/>
        <pt x="1780" y="-289" on="1"/>
        <pt x="1772" y="-307" on="0"/>
        <pt x="1765" y="-314" on="1"/>
        <pt x="1747" y="-332" on="0"/>
        <pt x="1721" y="-332" on="1"/>
        <pt x="1695" y="-332" on="0"/>
        <pt x="1659" y="-296" on="0"/>
        <pt x="1659" y="-270" on="1"/>
        <pt x="1659" y="-255" on="0"/>
        <pt x="1666" y="-241" on="1"/>
        <pt x="1716" y="-139" on="0"/>
        <pt x="1732" y="0" on="1"/>
      </contour>
    </TTGlyph>
    <TTGlyph name="afii10092" xMin="39" yMin="0" xMax="1200" yMax="1120">
      <contour>
        <pt x="889" y="124" on="1"/>
        <pt x="966" y="124" on="0"/>
        <pt x="1021" y="179" on="1"/>
        <pt x="1076" y="236" on="0"/>
        <pt x="1076" y="311" on="1"/>
        <pt x="1076" y="388" on="0"/>
        <pt x="1021" y="443" on="1"/>
        <pt x="966" y="498" on="0"/>
        <pt x="889" y="498" on="1"/>
        <pt x="495" y="498" on="1"/>
        <pt x="495" y="124" on="1"/>
      </contour>
      <contour>
        <pt x="889" y="622" on="1"/>
        <pt x="1019" y="622" on="0"/>
        <pt x="1109" y="531" on="1"/>
        <pt x="1200" y="441" on="0"/>
        <pt x="1200" y="311" on="1"/>
        <pt x="1200" y="181" on="0"/>
        <pt x="1109" y="90" on="1"/>
        <pt x="1019" y="0" on="0"/>
        <pt x="889" y="0" on="1"/>
        <pt x="433" y="0" on="1"/>
        <pt x="407" y="0" on="0"/>
        <pt x="371" y="36" on="0"/>
        <pt x="371" y="62" on="1"/>
        <pt x="371" y="996" on="1"/>
        <pt x="101" y="996" on="1"/>
        <pt x="75" y="996" on="0"/>
        <pt x="39" y="1032" on="0"/>
        <pt x="39" y="1058" on="1"/>
        <pt x="39" y="1084" on="0"/>
        <pt x="75" y="1120" on="0"/>
        <pt x="101" y="1120" on="1"/>
        <pt x="433" y="1120" on="1"/>
        <pt x="459" y="1120" on="0"/>
        <pt x="495" y="1084" on="0"/>
        <pt x="495" y="1058" on="1"/>
        <pt x="495" y="622" on="1"/>
      </contour>
    </TTGlyph>
    <TTGlyph name="afii10093" xMin="82" yMin="0" xMax="1176" yMax="1120">
      <component glyphName="afii10094" x="0" y="0" flags="0x0"/>
      <component glyphName="dotlessi" x="881" y="0" flags="0x0"/>
    </TTGlyph>
    <TTGlyph name="afii10094" xMin="82" yMin="0" xMax="912" yMax="1120">
      <contour>
        <pt x="601" y="124" on="1"/>
        <pt x="676" y="124" on="0"/>
        <pt x="733" y="179" on="1"/>
        <pt x="788" y="236" on="0"/>
        <pt x="788" y="311" on="1"/>
        <pt x="788" y="388" on="0"/>
        <pt x="733" y="443" on="1"/>
        <pt x="676" y="498" on="0"/>
        <pt x="601" y="498" on="1"/>
        <pt x="207" y="498" on="1"/>
        <pt x="207" y="124" on="1"/>
      </contour>
      <contour>
        <pt x="207" y="622" on="1"/>
        <pt x="601" y="622" on="1"/>
        <pt x="731" y="622" on="0"/>
        <pt x="821" y="531" on="1"/>
        <pt x="912" y="441" on="0"/>
        <pt x="912" y="311" on="1"/>
        <pt x="912" y="181" on="0"/>
        <pt x="821" y="90" on="1"/>
        <pt x="731" y="0" on="0"/>
        <pt x="601" y="0" on="1"/>
        <pt x="145" y="0" on="1"/>
        <pt x="119" y="0" on="0"/>
        <pt x="82" y="36" on="0"/>
        <pt x="82" y="62" on="1"/>
        <pt x="82" y="1060" on="1"/>
        <pt x="84" y="1085" on="0"/>
        <pt x="101" y="1102" on="1"/>
        <pt x="119" y="1120" on="0"/>
        <pt x="145" y="1120" on="1"/>
        <pt x="171" y="1120" on="0"/>
        <pt x="207" y="1084" on="0"/>
        <pt x="207" y="1058" on="1"/>
      </contour>
    </TTGlyph>
    <TTGlyph name="afii10095" xMin="81" yMin="0" xMax="1028" yMax="1120">
      <contour>
        <pt x="902" y="622" on="1"/>
        <pt x="872" y="774" on="0"/>
        <pt x="776" y="868" on="1"/>
        <pt x="648" y="996" on="0"/>
        <pt x="468" y="996" on="1"/>
        <pt x="306" y="996" on="0"/>
        <pt x="184" y="889" on="1"/>
        <pt x="166" y="874" on="0"/>
        <pt x="144" y="874" on="1"/>
        <pt x="118" y="874" on="0"/>
        <pt x="81" y="910" on="0"/>
        <pt x="81" y="936" on="1"/>
        <pt x="81" y="966" on="0"/>
        <pt x="103" y="985" on="1"/>
        <pt x="180" y="1050" on="0"/>
        <pt x="365" y="1120" on="0"/>
        <pt x="468" y="1120" on="1"/>
        <pt x="700" y="1120" on="0"/>
        <pt x="864" y="956" on="1"/>
        <pt x="1028" y="792" on="0"/>
        <pt x="1028" y="560" on="1"/>
        <pt x="1028" y="328" on="0"/>
        <pt x="864" y="164" on="1"/>
        <pt x="700" y="0" on="0"/>
        <pt x="468" y="0" on="1"/>
        <pt x="365" y="0" on="0"/>
        <pt x="180" y="70" on="0"/>
        <pt x="103" y="135" on="1"/>
        <pt x="85" y="153" on="0"/>
        <pt x="85" y="180" on="1"/>
        <pt x="85" y="206" on="0"/>
        <pt x="121" y="243" on="0"/>
        <pt x="147" y="243" on="1"/>
        <pt x="169" y="243" on="0"/>
        <pt x="184" y="231" on="1"/>
        <pt x="243" y="182" on="0"/>
        <pt x="389" y="124" on="0"/>
        <pt x="468" y="124" on="1"/>
        <pt x="648" y="124" on="0"/>
        <pt x="776" y="252" on="1"/>
        <pt x="826" y="301" on="0"/>
        <pt x="887" y="423" on="0"/>
        <pt x="902" y="498" on="1"/>
        <pt x="393" y="498" on="1"/>
        <pt x="367" y="498" on="0"/>
        <pt x="330" y="534" on="0"/>
        <pt x="330" y="560" on="1"/>
        <pt x="330" y="586" on="0"/>
        <pt x="367" y="622" on="0"/>
        <pt x="393" y="622" on="1"/>
      </contour>
    </TTGlyph>
    <TTGlyph name="afii10096" xMin="77" yMin="0" xMax="1529" yMax="1120">
      <contour>
        <pt x="969" y="996" on="1"/>
        <pt x="789" y="996" on="0"/>
        <pt x="661" y="868" on="1"/>
        <pt x="533" y="740" on="0"/>
        <pt x="533" y="560" on="1"/>
        <pt x="533" y="380" on="0"/>
        <pt x="661" y="252" on="1"/>
        <pt x="789" y="124" on="0"/>
        <pt x="969" y="124" on="1"/>
        <pt x="1149" y="124" on="0"/>
        <pt x="1277" y="252" on="1"/>
        <pt x="1404" y="379" on="0"/>
        <pt x="1404" y="560" on="1"/>
        <pt x="1404" y="741" on="0"/>
        <pt x="1277" y="868" on="1"/>
        <pt x="1149" y="996" on="0"/>
      </contour>
      <contour>
        <pt x="412" y="622" on="1"/>
        <pt x="438" y="822" on="0"/>
        <pt x="573" y="956" on="1"/>
        <pt x="735" y="1120" on="0"/>
        <pt x="969" y="1120" on="1"/>
        <pt x="1201" y="1120" on="0"/>
        <pt x="1365" y="956" on="1"/>
        <pt x="1529" y="792" on="0"/>
        <pt x="1529" y="560" on="1"/>
        <pt x="1529" y="328" on="0"/>
        <pt x="1365" y="164" on="1"/>
        <pt x="1201" y="0" on="0"/>
        <pt x="969" y="0" on="1"/>
        <pt x="735" y="0" on="0"/>
        <pt x="573" y="164" on="1"/>
        <pt x="438" y="298" on="0"/>
        <pt x="412" y="498" on="1"/>
        <pt x="201" y="498" on="1"/>
        <pt x="201" y="62" on="1"/>
        <pt x="201" y="36" on="0"/>
        <pt x="165" y="0" on="0"/>
        <pt x="139" y="0" on="1"/>
        <pt x="113" y="0" on="0"/>
        <pt x="77" y="36" on="0"/>
        <pt x="77" y="62" on="1"/>
        <pt x="77" y="1058" on="1"/>
        <pt x="77" y="1084" on="0"/>
        <pt x="113" y="1120" on="0"/>
        <pt x="139" y="1120" on="1"/>
        <pt x="165" y="1120" on="0"/>
        <pt x="201" y="1084" on="0"/>
        <pt x="201" y="1058" on="1"/>
        <pt x="201" y="622" on="1"/>
      </contour>
    </TTGlyph>
</ttFont>
